<svg width="112" height="112" viewBox="0 0 112 112" fill="none" xmlns="http://www.w3.org/2000/svg">
<g clip-path="url(#clip0_314_237)">
<rect width="112" height="112" rx="56" fill="#EEF2F5"/>
<path d="M17.8269 105.837C17.8269 101.691 19.7048 98.7084 22.449 96.4277C25.1481 94.1846 28.7248 92.5856 32.2156 91.1416L48.4031 84.4453L49.9343 78.6953L51.8669 79.209L50.0818 85.916L49.6248 86.1045L32.9792 92.9902C29.4722 94.441 26.1638 95.9409 23.7273 97.9658C21.3357 99.9535 19.8269 102.409 19.8269 105.837V119.066H79.1355V121.066H17.8269V105.837ZM102.631 105.837C102.631 102.41 101.122 99.9535 98.7302 97.9658C96.2937 95.9409 92.9853 94.4408 89.4783 92.9902L72.8328 86.1045L72.3757 85.916L70.5906 79.209L72.5232 78.6953L74.0535 84.4453L90.2429 91.1416C93.7335 92.5854 97.3095 94.1846 100.009 96.4277C102.753 98.7084 104.631 101.691 104.631 105.837V121.066H82.5779V119.066H102.631V105.837Z" fill="#9BAFB8"/>
<path d="M91.2128 54.1968V50.1499L61.3387 53.4692L61.2284 53.4819L61.118 53.4692L31.245 50.1499V54.1968C31.245 57.4314 33.8961 60.0825 37.1307 60.0825H40.5731V62.0825H37.1307C32.7915 62.0825 29.245 58.536 29.245 54.1968V39.4263H93.2128V54.1968C93.2128 58.536 89.6662 62.0825 85.327 62.0825H81.8846V60.0825H85.327C88.5617 60.0825 91.2128 57.4314 91.2128 54.1968ZM31.245 48.1382L61.2284 51.4692L91.2128 48.1382V41.4263H31.245V48.1382Z" fill="#F16408"/>
<path d="M50.2422 85.1807C50.2424 91.2479 55.161 96.1659 61.2285 96.166C67.2961 96.166 72.2146 91.2479 72.2148 85.1807H74.2148C74.2146 92.3525 68.4006 98.166 61.2285 98.166C54.0565 98.1659 48.2424 92.3524 48.2422 85.1807H50.2422ZM39.5732 61.082V50.1807H41.5732V61.082C41.5732 71.8886 50.4203 80.7381 61.2285 80.7383C72.0367 80.7383 80.8848 71.8891 80.8848 61.082V50.1807H82.8848V61.082C82.8848 72.9936 73.1413 82.7383 61.2285 82.7383C49.3156 82.7381 39.5732 72.993 39.5732 61.082Z" fill="#9BAFB8"/>
<path d="M32.688 37.5127C32.6881 31.5904 34.4938 26.0875 37.5835 21.5264L39.2397 22.6484C36.3671 26.8892 34.6881 32.0031 34.688 37.5127V40.4268H32.688V37.5127ZM87.77 37.5127C87.7699 25.6014 79.9219 15.522 69.1138 12.1641V40.4268H67.1138V9.44238C67.1136 8.10152 66.0124 7 64.6714 7H57.7856C56.4448 7.00023 55.3434 8.10147 55.3433 9.44238V40.4268H53.3433V12.1641C48.6521 13.6217 44.5167 16.3456 41.3394 19.9395L39.8413 18.6152C43.389 14.6025 48.0502 11.5957 53.3433 10.0771V9.44238C53.3434 6.9969 55.3402 5.00023 57.7856 5H64.6714C67.1171 5 69.1136 6.99704 69.1138 9.44238V10.0762C81.0407 13.4977 89.7698 24.4842 89.77 37.5127V40.4268H87.77V37.5127ZM79.4419 26.9951V30.4375H77.4419V26.9951H79.4419ZM75.9995 20.1094V23.5527H73.9995V20.1094H75.9995Z" fill="#F16408"/>
<path d="M33.5973 92.0659V114.043L33.3971 114.311L28.6305 120.667L27.0309 119.466L31.5973 113.377V92.0659H33.5973ZM90.861 92.0659V113.377L95.4274 119.466L93.8268 120.667L89.0602 114.311L88.861 114.043V92.0659H90.861ZM40.483 89.2173V105.826H81.9752V89.2173H83.9752V107.826H38.483V89.2173H40.483Z" fill="#9BAFB8"/>
</g>
<rect x="0.5" y="0.5" width="111" height="111" rx="55.5" stroke="#E9E9E9"/>
<defs>
<clipPath id="clip0_314_237">
<rect width="112" height="112" rx="56" fill="white"/>
</clipPath>
</defs>
</svg>
