<svg width="112" height="112" viewBox="0 0 112 112" fill="none" xmlns="http://www.w3.org/2000/svg">
<g clip-path="url(#clip0_314_45)">
<rect width="112" height="112" rx="56" fill="#EEF2F5"/>
<path d="M19 115V56.9941L56 27.2822L93 56.9941V115H95V56.0352L56 24.7178L17 56.0352V115H19Z" fill="#9BAFB8"/>
<path d="M107.627 53.2207L56 11.7168L4.37305 53.2207L5.62695 54.7793L56 14.2842L106.373 54.7793L107.627 53.2207Z" fill="#9BAFB8"/>
<path d="M78 30V9H76V30H78Z" fill="#9BAFB8"/>
<path d="M57.5256 90.3042C57.5256 91.2894 56.7276 92.0882 55.7424 92.0884C54.7571 92.0884 53.9583 91.2895 53.9583 90.3042C53.9584 89.319 54.7572 88.521 55.7424 88.521C56.7275 88.5212 57.5255 89.3191 57.5256 90.3042ZM59.5256 90.3042C59.5255 88.2145 57.8321 86.5212 55.7424 86.521C53.6526 86.521 51.9584 88.2144 51.9583 90.3042C51.9583 92.3941 53.6525 94.0884 55.7424 94.0884C57.8322 94.0882 59.5256 92.394 59.5256 90.3042Z" fill="#F16408"/>
<path d="M54.7419 61.3511V87.52C54.7419 88.0723 55.1897 88.52 55.7419 88.52C56.2942 88.52 56.7419 88.0723 56.7419 87.52V61.3511C56.7417 60.799 56.2941 60.3511 55.7419 60.3511C55.1898 60.3511 54.7422 60.799 54.7419 61.3511Z" fill="#F16408"/>
<path d="M69.6619 62.9082L69.7634 62.9033C70.2679 62.8523 70.6619 62.4261 70.6619 61.9082C70.6619 61.3903 70.2679 60.9641 69.7634 60.9131L69.6619 60.9082H66.8777C66.3254 60.9082 65.8777 61.3559 65.8777 61.9082C65.8777 62.4605 66.3254 62.9082 66.8777 62.9082H69.6619Z" fill="#F16408"/>
<path d="M75.2292 68.4761C75.7815 68.4761 76.2292 68.0284 76.2292 67.4761C76.2292 66.9238 75.7815 66.4761 75.2292 66.4761H66.8777C66.3254 66.4761 65.8777 66.9238 65.8777 67.4761C65.8777 68.0284 66.3254 68.4761 66.8777 68.4761H75.2292Z" fill="#F16408"/>
<path d="M75.2292 79.6118C75.7815 79.6118 76.2292 79.1641 76.2292 78.6118C76.2292 78.0595 75.7815 77.6118 75.2292 77.6118H66.8777C66.3254 77.6118 65.8777 78.0595 65.8777 78.6118C65.8777 79.1641 66.3254 79.6118 66.8777 79.6118H75.2292Z" fill="#F16408"/>
<path d="M69.6619 74.0439L69.7634 74.0391C70.2679 73.988 70.6619 73.5619 70.6619 73.0439C70.6619 72.526 70.2679 72.0998 69.7634 72.0488L69.6619 72.0439H66.8777C66.3254 72.0439 65.8777 72.4917 65.8777 73.0439C65.8777 73.5962 66.3254 74.0439 66.8777 74.0439H69.6619Z" fill="#F16408"/>
<path d="M69.6619 85.1792L69.7634 85.1743C70.2679 85.1233 70.6619 84.6971 70.6619 84.1792C70.6619 83.6613 70.2679 83.2351 69.7634 83.1841L69.6619 83.1792H66.8777C66.3254 83.1792 65.8777 83.6269 65.8777 84.1792C65.8777 84.7315 66.3254 85.1792 66.8777 85.1792H69.6619Z" fill="#F16408"/>
<path d="M63.0935 90.3042C63.0935 94.3573 59.7951 97.6558 55.7419 97.6558C51.6888 97.6557 48.3904 94.3573 48.3904 90.3042C48.3904 88.1495 49.3415 86.2219 50.8435 84.8677C51.0538 84.6781 51.1746 84.4077 51.1746 84.1245V58.5679C51.1746 56.0449 53.219 54.0005 55.7419 54.0005C58.2649 54.0005 60.3093 56.0449 60.3093 58.5679V84.1245C60.3093 84.4077 60.43 84.6781 60.6404 84.8677C62.1424 86.2219 63.0935 88.1494 63.0935 90.3042ZM65.0935 90.3042C65.0935 87.7054 64.0108 85.3802 62.3093 83.6948V58.5679C62.3093 54.9403 59.3695 52.0005 55.7419 52.0005C52.1144 52.0005 49.1746 54.9404 49.1746 58.5679V83.6948C47.4732 85.3802 46.3904 87.7054 46.3904 90.3042C46.3904 95.4619 50.5843 99.6557 55.7419 99.6558C60.8997 99.6558 65.0935 95.4619 65.0935 90.3042Z" fill="#F16408"/>
<path d="M75.2292 57.3403C75.7815 57.3403 76.2292 56.8926 76.2292 56.3403C76.2292 55.788 75.7815 55.3403 75.2292 55.3403H66.8777C66.3254 55.3403 65.8777 55.788 65.8777 56.3403C65.8777 56.8926 66.3254 57.3403 66.8777 57.3403H75.2292Z" fill="#F16408"/>
</g>
<rect x="0.5" y="0.5" width="111" height="111" rx="55.5" stroke="#E9E9E9"/>
<defs>
<clipPath id="clip0_314_45">
<rect width="112" height="112" rx="56" fill="white"/>
</clipPath>
</defs>
</svg>
