<svg width="112" height="112" viewBox="0 0 112 112" fill="none" xmlns="http://www.w3.org/2000/svg">
<g clip-path="url(#clip0_314_168)">
<rect width="112" height="112" rx="56" fill="#EEF2F5"/>
<path d="M77.4648 76.0127C78.0171 76.0127 78.4648 75.565 78.4648 75.0127V62.5059H91C91.5523 62.5059 92 62.0581 92 61.5059V48C92 47.4477 91.5523 47 91 47H23.5352C22.9829 47.0001 22.5352 47.4478 22.5352 48V60.5059H10C9.44787 60.5059 9.00025 60.9538 9 61.5059V75.0127C9 75.565 9.44772 76.0127 10 76.0127H77.4648ZM24.5352 49H90V60.5059H24.5352V49ZM11 62.5059H76.4648V74.0127H11V62.5059Z" fill="#9BAFB8"/>
<path d="M91.0001 89.4814C91.5524 89.4814 92.0001 89.0337 92.0001 88.4814V74.9746C91.9999 74.4225 91.5522 73.9746 91.0001 73.9746H23.5353C22.9831 73.9746 22.5355 74.4225 22.5353 74.9746V88.4814C22.5353 89.0337 22.983 89.4814 23.5353 89.4814H91.0001ZM24.5353 75.9746H90.0001V87.4814H24.5353V75.9746Z" fill="#9BAFB8"/>
<path d="M91 116.494C91.5523 116.494 92 116.046 92 115.494V101.987C91.9997 101.435 91.5521 100.987 91 100.987H78.4648V88.4814C78.4648 87.9292 78.0171 87.4814 77.4648 87.4814H10C9.44772 87.4814 9 87.9292 9 88.4814V101.987C9 102.54 9.44772 102.987 10 102.987H22.5352V115.494C22.5352 116.046 22.9829 116.494 23.5352 116.494H91ZM11 89.4814H76.4648V100.987H11V89.4814ZM24.5352 102.987H90V114.494H24.5352V102.987Z" fill="#F16408"/>
<path d="M76.7812 5.625L48.9004 40.4824L34.3047 26.3613L35.6953 24.9238L48.7109 37.5166L75.2188 4.375L76.7812 5.625Z" fill="#F16408"/>
</g>
<rect x="0.5" y="0.5" width="111" height="111" rx="55.5" stroke="#E9E9E9"/>
<defs>
<clipPath id="clip0_314_168">
<rect width="112" height="112" rx="56" fill="white"/>
</clipPath>
</defs>
</svg>
