<svg width="112" height="112" viewBox="0 0 112 112" fill="none" xmlns="http://www.w3.org/2000/svg">
<rect x="0.5" y="0.5" width="111" height="111" rx="55.5" fill="#EEF2F5"/>
<rect x="0.5" y="0.5" width="111" height="111" rx="55.5" stroke="#E9E9E9"/>
<path d="M56.9998 104.012V77.001L73.9295 63.457L90.8592 77.001V104.012H92.8592V76.0391L92.4842 75.7383L73.9295 60.8955L55.3748 75.7383L54.9998 76.0391V104.012H56.9998Z" fill="#F16408"/>
<path d="M68.9529 104.012V93.0586H78.9061V104.012H80.9061V91.0586H66.9529V104.012H68.9529Z" fill="#F16408"/>
<path d="M104.437 67.3711L73.9296 42.9658L43.4218 67.3711L44.6718 68.9336L73.9296 45.5273L103.187 68.9336L104.437 67.3711Z" fill="#F16408"/>
<path d="M86.8827 53.8086V41.2578H84.8827V53.8086H86.8827Z" fill="#F16408"/>
<path d="M21.1406 104.012V31.8945H19.1406V104.012H21.1406Z" fill="#9BAFB8"/>
<path d="M20.1406 26.918V24.918H8.98828V14.9648H20.1406V12.9648H6.98828V26.918H20.1406Z" fill="#9BAFB8"/>
<path d="M98.8358 26.918V12.9648H38.0702V14.9648H96.8358V24.918H38.0702V26.918H98.8358Z" fill="#9BAFB8"/>
<path d="M33.0937 104.012V31.8945H31.0937V104.012H33.0937Z" fill="#9BAFB8"/>
<path d="M74.9296 44.2461V25.918H72.9296V44.2461H74.9296Z" fill="#9BAFB8"/>
<path d="M107 105.012V103.012H5V105.012H107Z" fill="#9BAFB8"/>
<path d="M37.0703 30.8945H21.1406V8.98828H32.0937C34.8421 8.9883 37.0703 11.2163 37.0703 13.9648V30.8945ZM39.0703 13.9648C39.0703 10.1117 35.9466 6.9883 32.0937 6.98828H19.1406V32.8945H39.0703V13.9648Z" fill="#9BAFB8"/>
</svg>
