<svg width="112" height="112" viewBox="0 0 112 112" fill="none" xmlns="http://www.w3.org/2000/svg">
<g clip-path="url(#clip0_314_221)">
<rect width="112" height="112" rx="56" fill="#EEF2F5"/>
<path d="M81 79C81 60.7746 66.2254 46 48 46C29.7746 46 15 60.7746 15 79C15 97.2254 29.7746 112 48 112C66.2254 112 81 97.2254 81 79ZM71.4375 79C71.4375 66.6083 60.9589 56.4619 48 56.4619C35.0411 56.4619 24.5625 66.6083 24.5625 79C24.5625 91.3917 35.0411 101.538 48 101.538C60.9589 101.538 71.4375 91.3917 71.4375 79ZM73.4375 79C73.4375 92.5662 61.9922 103.538 48 103.538C34.0078 103.538 22.5625 92.5662 22.5625 79C22.5625 65.4338 34.0078 54.4619 48 54.4619C61.9922 54.4619 73.4375 65.4338 73.4375 79ZM83 79C83 98.33 67.33 114 48 114C28.67 114 13 98.33 13 79C13 59.67 28.67 44 48 44C67.33 44 83 59.67 83 79Z" fill="#F16408"/>
<path d="M85 26.5C85 19.5964 79.4036 14 72.5 14C65.5964 14 60 19.5964 60 26.5C60 33.4036 65.5964 39 72.5 39C79.4036 39 85 33.4036 85 26.5ZM81.2031 26.5C81.2031 21.9339 77.3339 18.1543 72.5 18.1543C67.6661 18.1543 63.7969 21.9339 63.7969 26.5C63.7969 31.0661 67.6661 34.8457 72.5 34.8457C77.3339 34.8457 81.2031 31.0661 81.2031 26.5ZM83.2031 26.5C83.2031 32.2407 78.3672 36.8457 72.5 36.8457C66.6328 36.8457 61.7969 32.2407 61.7969 26.5C61.7969 20.7593 66.6328 16.1543 72.5 16.1543C78.3672 16.1543 83.2031 20.7593 83.2031 26.5ZM87 26.5C87 34.5081 80.5081 41 72.5 41C64.4919 41 58 34.5081 58 26.5C58 18.4919 64.4919 12 72.5 12C80.5081 12 87 18.4919 87 26.5Z" fill="#9BAFB8"/>
<path d="M91.4141 66.8105C91.7879 67.0811 92.3047 67.0619 92.6582 66.7529L100.658 59.7529C101.074 59.3893 101.116 58.7574 100.753 58.3417C100.412 57.9521 99.8351 57.8902 99.4219 58.1835L99.3418 58.247L92 64.6718L84.6582 58.247C84.2426 57.8836 83.6107 57.9262 83.2471 58.3417C82.8837 58.7574 82.9263 59.3893 83.3418 59.7529L91.3418 66.7529L91.4141 66.8105Z" fill="#9BAFB8"/>
<path d="M91 43V65C91 65.5523 91.4477 66 92 66C92.5523 66 93 65.5523 93 65V43C93 42.4477 92.5523 42 92 42C91.4477 42 91 42.4477 91 43Z" fill="#9BAFB8"/>
<path d="M33.4092 40.8069C33.7855 41.083 34.3089 41.063 34.6641 40.7473L43.6641 32.7473L43.7373 32.676C44.0803 32.3027 44.0911 31.7232 43.7471 31.3362C43.403 30.9491 42.826 30.8918 42.415 31.1887L42.3359 31.2532L34 38.6633L25.6641 31.2532C25.2513 30.8862 24.6198 30.9234 24.2529 31.3362C23.886 31.749 23.9231 32.3804 24.3359 32.7473L33.3359 40.7473L33.4092 40.8069Z" fill="#9BAFB8"/>
<path d="M33 13V39C33 39.5523 33.4477 40 34 40C34.5523 40 35 39.5523 35 39V13C35 12.4477 34.5523 12 34 12C33.4477 12 33 12.4477 33 13Z" fill="#9BAFB8"/>
<path d="M49.7651 85.7524H45.7573V90.1953H44.2676V85.7524H42V84.3418H44.2676V82.3906H42V80.98H44.2676V71H49.8442C51.5493 71 52.8853 71.5142 53.8521 72.5425C54.8188 73.5708 55.3022 74.9595 55.3022 76.7085C55.3022 78.5278 54.8276 79.9297 53.8784 80.9141C52.9292 81.8984 51.5713 82.3906 49.8047 82.3906H45.7573V84.3418H49.7651V85.7524ZM45.7573 80.98H49.8442C51.1099 80.98 52.0811 80.6108 52.7578 79.8726C53.4434 79.1255 53.7861 78.0796 53.7861 76.7349C53.7861 75.4341 53.4434 74.397 52.7578 73.6235C52.0811 72.8413 51.1406 72.4414 49.9365 72.4238H45.7573V80.98Z" fill="#F16408"/>
</g>
<rect x="0.5" y="0.5" width="111" height="111" rx="55.5" stroke="#E9E9E9"/>
<defs>
<clipPath id="clip0_314_221">
<rect width="112" height="112" rx="56" fill="white"/>
</clipPath>
</defs>
</svg>
