<svg width="112" height="112" viewBox="0 0 112 112" fill="none" xmlns="http://www.w3.org/2000/svg">
<rect x="0.5" y="0.5" width="111" height="111" rx="55.5" fill="#EEF2F5"/>
<rect x="0.5" y="0.5" width="111" height="111" rx="55.5" stroke="#E9E9E9"/>
<g clip-path="url(#clip0_314_183)">
<path d="M-10 117V58.9941L27 29.2822L64 58.9941V117H66V58.0352L27 26.7178L-12 58.0352V117H-10Z" fill="#F16408"/>
<path d="M78.627 55.2207L27 13.7168L-24.627 55.2207L-23.373 56.7793L27 16.2842L77.373 56.7793L78.627 55.2207Z" fill="#F16408"/>
<path d="M49 32V11H47V32H49Z" fill="#F16408"/>
<path d="M59 66V68H17V66H59Z" fill="#9BAFB8"/>
<path d="M59 84V86H17V84H59Z" fill="#9BAFB8"/>
<path d="M84.9287 59.9285C85.3191 59.5381 85.9522 59.5383 86.3428 59.9285L92.707 66.2927C93.0976 66.6833 93.0976 67.3163 92.707 67.7068L86.3428 74.0711C85.9522 74.4613 85.3191 74.4615 84.9287 74.0711C84.5383 73.6806 84.5385 73.0476 84.9287 72.657L89.5859 67.9998H72V65.9998H89.5859L84.9287 61.3425C84.5385 60.952 84.5383 60.3189 84.9287 59.9285Z" fill="#9BAFB8"/>
<path d="M84.9287 77.9285C85.3191 77.5381 85.9522 77.5383 86.3428 77.9285L92.707 84.2927C93.0976 84.6833 93.0976 85.3163 92.707 85.7068L86.3428 92.0711C85.9522 92.4613 85.3191 92.4615 84.9287 92.0711C84.5383 91.6806 84.5385 91.0476 84.9287 90.657L89.5859 85.9998H72V83.9998H89.5859L84.9287 79.3425C84.5385 78.952 84.5383 78.3189 84.9287 77.9285Z" fill="#9BAFB8"/>
</g>
<defs>
<clipPath id="clip0_314_183">
<rect width="102" height="102" fill="white" transform="translate(5 5)"/>
</clipPath>
</defs>
</svg>
