<svg width="1321" height="428" viewBox="0 0 1321 428" fill="none" xmlns="http://www.w3.org/2000/svg">
<path d="M1035.37 265.047V221.14" stroke="black" stroke-width="2.5648" stroke-miterlimit="10"/>
<path d="M1191.92 221.14V425.957" stroke="black" stroke-width="2.5648" stroke-miterlimit="10"/>
<path d="M1138.92 140.537C1130.98 137.839 1122.51 136.367 1113.64 136.367C1070.44 136.367 1035.37 171.444 1035.37 214.762" stroke="black" stroke-width="2.5648" stroke-miterlimit="10"/>
<path d="M1191.92 214.762C1191.92 188.173 1178.69 164.674 1158.51 150.496" stroke="black" stroke-width="2.5648" stroke-miterlimit="10"/>
<path d="M63.6681 258.57H50.2471V330.735H63.6681V258.57Z" stroke="#9BAFB8" stroke-width="2.5648" stroke-miterlimit="10"/>
<path d="M67.1948 264.456H46.7204" stroke="#9BAFB8" stroke-width="2.5648" stroke-miterlimit="10"/>
<path d="M31.634 258.57H18.213V330.735H31.634V258.57Z" stroke="#9BAFB8" stroke-width="2.5648" stroke-miterlimit="10"/>
<path d="M35.1607 264.456H14.6373" stroke="#9BAFB8" stroke-width="2.5648" stroke-miterlimit="10"/>
<path d="M250.926 410.651H12.825V345.403" stroke="black" stroke-width="2.5648" stroke-miterlimit="10"/>
<path d="M218.696 425.957H2.14695L2 410.65" stroke="black" stroke-width="2.5648" stroke-miterlimit="10"/>
<path d="M24.6786 345.403H2V331.176H250.926" stroke="black" stroke-width="2.5648" stroke-miterlimit="10"/>
<path d="M281.294 163.546H287.172V208.679" stroke="black" stroke-width="2.5648" stroke-miterlimit="10"/>
<path d="M114.217 30.5479L83.8486 60.9639" stroke="black" stroke-width="2.5648" stroke-miterlimit="10"/>
<path d="M83.8486 30.5479L114.217 60.9639" stroke="black" stroke-width="2.5648" stroke-miterlimit="10"/>
<path d="M114.217 60.9648L83.8486 91.3809" stroke="black" stroke-width="2.5648" stroke-miterlimit="10"/>
<path d="M83.8486 60.9648L114.217 91.3809" stroke="black" stroke-width="2.5648" stroke-miterlimit="10"/>
<path d="M114.217 91.3809L83.8486 121.748" stroke="black" stroke-width="2.5648" stroke-miterlimit="10"/>
<path d="M83.8486 91.3809L114.217 121.748" stroke="black" stroke-width="2.5648" stroke-miterlimit="10"/>
<path d="M114.217 30.5479H83.8486V121.747H114.217V30.5479Z" stroke="black" stroke-width="2.5648" stroke-miterlimit="10"/>
<path d="M114.217 135.042L83.8486 165.458" stroke="black" stroke-width="2.5648" stroke-miterlimit="10"/>
<path d="M83.8486 135.042L114.217 165.458" stroke="black" stroke-width="2.5648" stroke-miterlimit="10"/>
<path d="M114.217 165.457L83.8486 195.873" stroke="black" stroke-width="2.5648" stroke-miterlimit="10"/>
<path d="M83.8486 165.457L114.217 195.873" stroke="black" stroke-width="2.5648" stroke-miterlimit="10"/>
<path d="M114.217 195.874L83.8486 226.241" stroke="black" stroke-width="2.5648" stroke-miterlimit="10"/>
<path d="M83.8486 195.874L114.217 226.241" stroke="black" stroke-width="2.5648" stroke-miterlimit="10"/>
<path d="M114.217 135.042H83.8486V226.241H114.217V135.042Z" stroke="black" stroke-width="2.5648" stroke-miterlimit="10"/>
<path d="M114.217 239.535L83.8486 269.951" stroke="black" stroke-width="2.5648" stroke-miterlimit="10"/>
<path d="M83.8486 239.535L114.217 269.951" stroke="black" stroke-width="2.5648" stroke-miterlimit="10"/>
<path d="M114.217 269.952L83.8486 300.319" stroke="black" stroke-width="2.5648" stroke-miterlimit="10"/>
<path d="M83.8486 269.952L114.217 300.319" stroke="black" stroke-width="2.5648" stroke-miterlimit="10"/>
<path d="M114.217 300.319L83.8486 330.735" stroke="black" stroke-width="2.5648" stroke-miterlimit="10"/>
<path d="M83.8486 300.319L114.217 330.735" stroke="black" stroke-width="2.5648" stroke-miterlimit="10"/>
<path d="M114.217 239.535H83.8486V330.734H114.217V239.535Z" stroke="black" stroke-width="2.5648" stroke-miterlimit="10"/>
<path d="M181.812 52.2315V30.5479" stroke="black" stroke-width="2.5648" stroke-miterlimit="10"/>
<path d="M197.046 52.2315V30.5479" stroke="black" stroke-width="2.5648" stroke-miterlimit="10"/>
<path d="M123.132 30.5478H206.401V17.4492H71.6032V30.5478H77.432" stroke="black" stroke-width="2.5648" stroke-miterlimit="10"/>
<path d="M120.781 121.747H128.912V135.042H120.781" stroke="black" stroke-width="2.5648" stroke-miterlimit="10"/>
<path d="M77.432 135.042H69.2521V121.747H77.432" stroke="black" stroke-width="2.5648" stroke-miterlimit="10"/>
<path d="M120.683 226.24H128.863V239.535H120.683" stroke="black" stroke-width="2.5648" stroke-miterlimit="10"/>
<path d="M77.334 239.535H69.2031V226.24H77.334" stroke="black" stroke-width="2.5648" stroke-miterlimit="10"/>
<path d="M276.249 163.349H269.049V68.2254H276.249V52.2324H144.537V165.115H136.357V219.913H144.537V331.177" stroke="black" stroke-width="2.5648" stroke-miterlimit="10"/>
<path d="M151.591 176.545H277.817" stroke="black" stroke-width="2.5648" stroke-miterlimit="10"/>
<path d="M277.817 206.814H151.591" stroke="black" stroke-width="2.5648" stroke-miterlimit="10"/>
<path d="M250.828 86.2295V145.345" stroke="#9BAFB8" stroke-width="2.5648" stroke-miterlimit="10"/>
<path d="M228.982 86.2295V145.345" stroke="#9BAFB8" stroke-width="2.5648" stroke-miterlimit="10"/>
<path d="M207.136 86.2295V145.345" stroke="#9BAFB8" stroke-width="2.5648" stroke-miterlimit="10"/>
<path d="M185.29 86.2295V145.345" stroke="#9BAFB8" stroke-width="2.5648" stroke-miterlimit="10"/>
<path d="M163.444 86.2295V145.345" stroke="#9BAFB8" stroke-width="2.5648" stroke-miterlimit="10"/>
<path d="M173.387 145.344H239.366" stroke="#9BAFB8" stroke-width="2.5648" stroke-miterlimit="10"/>
<path d="M174.171 86.2295H240.101" stroke="#9BAFB8" stroke-width="2.5648" stroke-miterlimit="10"/>
<path d="M228.149 243.166V302.33" stroke="#9BAFB8" stroke-width="2.5648" stroke-miterlimit="10"/>
<path d="M206.303 243.166V302.33" stroke="#9BAFB8" stroke-width="2.5648" stroke-miterlimit="10"/>
<path d="M184.457 243.166V302.33" stroke="#9BAFB8" stroke-width="2.5648" stroke-miterlimit="10"/>
<path d="M162.611 243.166V302.33" stroke="#9BAFB8" stroke-width="2.5648" stroke-miterlimit="10"/>
<path d="M172.555 302.33H238.533" stroke="#9BAFB8" stroke-width="2.5648" stroke-miterlimit="10"/>
<path d="M173.338 243.166H239.268" stroke="#9BAFB8" stroke-width="2.5648" stroke-miterlimit="10"/>
<path d="M38.8833 367.333V384.209" stroke="#9BAFB8" stroke-width="2.5648" stroke-miterlimit="10"/>
<path d="M65.5784 367.333V384.209" stroke="#9BAFB8" stroke-width="2.5648" stroke-miterlimit="10"/>
<path d="M92.2735 367.333V384.209" stroke="#9BAFB8" stroke-width="2.5648" stroke-miterlimit="10"/>
<path d="M118.969 367.333V384.209" stroke="#9BAFB8" stroke-width="2.5648" stroke-miterlimit="10"/>
<path d="M145.664 367.333V384.209" stroke="#9BAFB8" stroke-width="2.5648" stroke-miterlimit="10"/>
<path d="M172.408 367.333V384.209" stroke="#9BAFB8" stroke-width="2.5648" stroke-miterlimit="10"/>
<path d="M199.103 367.333V384.209" stroke="#9BAFB8" stroke-width="2.5648" stroke-miterlimit="10"/>
<path d="M225.798 367.333V384.209" stroke="#9BAFB8" stroke-width="2.5648" stroke-miterlimit="10"/>
<path d="M181.812 11.1702V1.94727H218.157V26.9669H250.828V45.7562" stroke="#9BAFB8" stroke-width="2.5648" stroke-miterlimit="10"/>
<path d="M991.972 300.81H881.86V332.305" stroke="black" stroke-width="2.5648" stroke-miterlimit="10"/>
<path d="M1015.83 425.81V300.81H1005.64" stroke="black" stroke-width="2.5648" stroke-miterlimit="10"/>
<path d="M1019.06 425.81H1135V300.81H1019.06" stroke="black" stroke-width="2.5648" stroke-miterlimit="10"/>
<path d="M987.808 280.107C976.836 276.035 963.366 272.699 948.867 272.699C911.886 272.699 881.909 294.383 881.909 294.383" stroke="black" stroke-width="2.5648" stroke-miterlimit="10"/>
<path d="M1015.83 294.383C1015.83 294.383 1012.98 292.323 1007.99 289.526" stroke="black" stroke-width="2.5648" stroke-miterlimit="10"/>
<path d="M989.914 272.699H967.53" stroke="black" stroke-width="2.5648" stroke-miterlimit="10"/>
<path d="M1135.73 294.383C1135.73 294.383 1105.76 272.699 1068.77 272.699H1007.2" stroke="black" stroke-width="2.5648" stroke-miterlimit="10"/>
<path d="M1005.05 294.384H1019.06" stroke="black" stroke-width="2.5648" stroke-miterlimit="10"/>
<path d="M878.628 300.81V294.384H991.972" stroke="black" stroke-width="2.5648" stroke-miterlimit="10"/>
<path d="M1138.13 300.81V294.384H1019.06" stroke="black" stroke-width="2.5648" stroke-miterlimit="10"/>
<path d="M1036.01 320.776H1029.69V335.837H1036.01V320.776Z" stroke="black" stroke-width="2.5648" stroke-miterlimit="10"/>
<path d="M1065.3 320.776H1058.98V335.837H1065.3V320.776Z" stroke="black" stroke-width="2.5648" stroke-miterlimit="10"/>
<path d="M1094.59 320.776H1088.27V335.837H1094.59V320.776Z" stroke="black" stroke-width="2.5648" stroke-miterlimit="10"/>
<path d="M1123.83 320.776H1117.51V335.837H1123.83V320.776Z" stroke="black" stroke-width="2.5648" stroke-miterlimit="10"/>
<path d="M1036.25 374.104H1029.93V389.164H1036.25V374.104Z" stroke="black" stroke-width="2.5648" stroke-miterlimit="10"/>
<path d="M1065.54 374.104H1059.22V389.164H1065.54V374.104Z" stroke="black" stroke-width="2.5648" stroke-miterlimit="10"/>
<path d="M1094.83 374.104H1088.51V389.164H1094.83V374.104Z" stroke="black" stroke-width="2.5648" stroke-miterlimit="10"/>
<path d="M1124.08 374.104H1117.76V389.164H1124.08V374.104Z" stroke="black" stroke-width="2.5648" stroke-miterlimit="10"/>
<path d="M908.555 425.811V365.567" stroke="#9BAFB8" stroke-width="2.5648" stroke-miterlimit="10"/>
<path d="M989.914 425.958V365.567H983.694" stroke="#9BAFB8" stroke-width="2.5648" stroke-miterlimit="10"/>
<path d="M976.15 365.567H915.07V375.379H976.15V365.567Z" stroke="#9BAFB8" stroke-width="2.5648" stroke-miterlimit="10"/>
<path d="M877.697 425.221V356.736C877.697 341.381 890.187 328.871 905.518 328.871H977.326C986.828 328.871 994.567 321.12 994.567 311.603V266.175H1002.45V311.603C1002.45 325.486 991.188 336.819 977.277 336.819H905.47C894.498 336.819 885.534 345.747 885.534 356.785V425.27" stroke="black" stroke-width="2.5648" stroke-miterlimit="10"/>
<path d="M890.187 399.858H873.533V404.274H890.187V399.858Z" fill="#F16408"/>
<path d="M890.187 357.08H873.533V361.495H890.187V357.08Z" fill="#F16408"/>
<path d="M1007.2 282.021H990.551V286.436H1007.2V282.021Z" fill="#F16408"/>
<path d="M923.907 341.68V325H919.499V341.68H923.907Z" fill="#F16408"/>
<path d="M966.629 341.67V324.99H962.22V341.67H966.629Z" fill="#F16408"/>
<path d="M492.063 206.127V188.81" stroke="black" stroke-width="2.5648" stroke-miterlimit="10"/>
<path d="M480.65 188.711V206.127" stroke="black" stroke-width="2.5648" stroke-miterlimit="10"/>
<path d="M492.063 180.42V158.54H480.65V180.616" stroke="black" stroke-width="2.5648" stroke-miterlimit="10"/>
<path d="M480.552 158.54H492.161C494.022 158.54 495.541 157.02 495.541 155.155V138.083C495.541 136.219 494.022 134.698 492.161 134.698H480.552C478.691 134.698 477.173 136.219 477.173 138.083V155.155C477.173 157.069 478.691 158.54 480.552 158.54Z" stroke="black" stroke-width="2.5648" stroke-miterlimit="10"/>
<path d="M495.982 180.911H476.732V187.877H495.982V180.911Z" stroke="black" stroke-width="2.5648" stroke-miterlimit="10"/>
<path d="M495.982 206.373H476.732V213.339H495.982V206.373Z" stroke="black" stroke-width="2.5648" stroke-miterlimit="10"/>
<path d="M444.453 206.372V189.055" stroke="black" stroke-width="2.5648" stroke-miterlimit="10"/>
<path d="M433.04 188.956V206.372" stroke="black" stroke-width="2.5648" stroke-miterlimit="10"/>
<path d="M444.453 180.666V158.786H433.04V180.862" stroke="black" stroke-width="2.5648" stroke-miterlimit="10"/>
<path d="M432.942 158.787H444.551C446.412 158.787 447.93 157.266 447.93 155.402V138.329C447.93 136.465 446.412 134.944 444.551 134.944H432.942C431.081 134.944 429.562 136.465 429.562 138.329V155.402C429.562 157.266 431.081 158.787 432.942 158.787Z" stroke="black" stroke-width="2.5648" stroke-miterlimit="10"/>
<path d="M448.371 181.155H429.121V188.122H448.371V181.155Z" stroke="black" stroke-width="2.5648" stroke-miterlimit="10"/>
<path d="M448.371 206.568H429.121V213.535H448.371V206.568Z" stroke="black" stroke-width="2.5648" stroke-miterlimit="10"/>
<path d="M396.842 206.569V189.301" stroke="black" stroke-width="2.5648" stroke-miterlimit="10"/>
<path d="M385.43 189.202V206.569" stroke="black" stroke-width="2.5648" stroke-miterlimit="10"/>
<path d="M396.842 180.911V159.031H385.43V181.107" stroke="black" stroke-width="2.5648" stroke-miterlimit="10"/>
<path d="M385.283 159.032H396.891C398.753 159.032 400.271 157.511 400.271 155.647V138.574C400.271 136.71 398.753 135.189 396.891 135.189H385.283C383.421 135.189 381.903 136.71 381.903 138.574V155.647C381.952 157.511 383.47 159.032 385.283 159.032Z" stroke="black" stroke-width="2.5648" stroke-miterlimit="10"/>
<path d="M400.761 181.354H381.511V188.32H400.761V181.354Z" stroke="black" stroke-width="2.5648" stroke-miterlimit="10"/>
<path d="M400.761 206.814H381.511V213.781H400.761V206.814Z" stroke="black" stroke-width="2.5648" stroke-miterlimit="10"/>
<path d="M418.15 357.815H340.17V425.957H418.15V357.815Z" stroke="black" stroke-width="2.5648" stroke-miterlimit="10"/>
<path d="M413.349 365.567H345.51V425.958H413.349V365.567Z" fill="#F16408"/>
<path d="M347.714 371.602H410.606" stroke="black" stroke-width="2.5648" stroke-miterlimit="10"/>
<path d="M347.714 391.077H410.606" stroke="black" stroke-width="2.5648" stroke-miterlimit="10"/>
<path d="M347.714 410.602H410.606" stroke="black" stroke-width="2.5648" stroke-miterlimit="10"/>
<path d="M553.388 357.815H475.409V425.957H553.388V357.815Z" stroke="black" stroke-width="2.5648" stroke-miterlimit="10"/>
<path d="M548.588 365.567H480.748V425.958H548.588V365.567Z" fill="#F16408"/>
<path d="M482.953 371.602H545.845" stroke="black" stroke-width="2.5648" stroke-miterlimit="10"/>
<path d="M482.953 391.077H545.845" stroke="black" stroke-width="2.5648" stroke-miterlimit="10"/>
<path d="M482.953 410.602H545.845" stroke="black" stroke-width="2.5648" stroke-miterlimit="10"/>
<path d="M688.627 357.815H610.648V425.957H688.627V357.815Z" stroke="black" stroke-width="2.5648" stroke-miterlimit="10"/>
<path d="M683.827 365.567H615.987V425.958H683.827V365.567Z" fill="#F16408"/>
<path d="M618.191 371.602H681.084" stroke="black" stroke-width="2.5648" stroke-miterlimit="10"/>
<path d="M618.191 391.077H681.084" stroke="black" stroke-width="2.5648" stroke-miterlimit="10"/>
<path d="M618.191 410.602H681.084" stroke="black" stroke-width="2.5648" stroke-miterlimit="10"/>
<path d="M823.866 357.815H745.887V425.957H823.866V357.815Z" stroke="black" stroke-width="2.5648" stroke-miterlimit="10"/>
<path d="M819.066 365.567H751.226V425.958H819.066V365.567Z" fill="#F16408"/>
<path d="M753.43 371.602H816.323" stroke="black" stroke-width="2.5648" stroke-miterlimit="10"/>
<path d="M753.43 391.077H816.323" stroke="black" stroke-width="2.5648" stroke-miterlimit="10"/>
<path d="M753.43 410.602H816.323" stroke="black" stroke-width="2.5648" stroke-miterlimit="10"/>
<path d="M235.202 425.957H1320.64" stroke="black" stroke-width="2.5648" stroke-miterlimit="10"/>
<path d="M876.13 237.132H891.951V280.107" stroke="black" stroke-width="2.5648" stroke-miterlimit="10"/>
<path d="M552.97 237.415H879.553" stroke="black" stroke-width="2.5648" stroke-miterlimit="10"/>
<path d="M256.461 414.771V237.132H287.662" stroke="black" stroke-width="2.5648" stroke-miterlimit="10"/>
<path d="M553.388 213.437H288.25V257.736H553.388V213.437Z" stroke="black" stroke-width="2.5648" stroke-miterlimit="10"/>
<path d="M299.124 280.107H288.25V290.998H299.124V280.107Z" fill="#9BAFB8"/>
<path d="M335.468 280.106H324.594V290.997H335.468V280.106Z" fill="#9BAFB8"/>
<path d="M371.764 280.106H360.89V290.997H371.764V280.106Z" fill="#9BAFB8"/>
<path d="M408.108 280.106H397.234V290.997H408.108V280.106Z" fill="#9BAFB8"/>
<path d="M444.404 280.106H433.53V290.997H444.404V280.106Z" fill="#9BAFB8"/>
<path d="M480.748 280.106H469.874V290.997H480.748V280.106Z" fill="#9BAFB8"/>
<path d="M517.044 280.106H506.17V290.997H517.044V280.106Z" fill="#9BAFB8"/>
<path d="M553.388 280.106H542.514V290.997H553.388V280.106Z" fill="#9BAFB8"/>
<path d="M621.522 280.107H610.648V290.998H621.522V280.107Z" fill="#9BAFB8"/>
<path d="M657.867 280.106H646.993V290.997H657.867V280.106Z" fill="#9BAFB8"/>
<path d="M694.162 280.106H683.288V290.997H694.162V280.106Z" fill="#9BAFB8"/>
<path d="M730.507 280.106H719.633V290.997H730.507V280.106Z" fill="#9BAFB8"/>
<path d="M766.802 280.106H755.928V290.997H766.802V280.106Z" fill="#9BAFB8"/>
<path d="M803.147 280.106H792.273V290.997H803.147V280.106Z" fill="#9BAFB8"/>
<path d="M839.442 280.106H828.568V290.997H839.442V280.106Z" fill="#9BAFB8"/>
<path d="M875.787 280.106H864.913V290.997H875.787V280.106Z" fill="#9BAFB8"/>
<path d="M335.468 313.367H324.594V324.258H335.468V313.367Z" fill="#9BAFB8"/>
<path d="M371.764 313.367H360.89V324.258H371.764V313.367Z" fill="#9BAFB8"/>
<path d="M480.748 313.367H469.874V324.258H480.748V313.367Z" fill="#9BAFB8"/>
<path d="M517.044 313.367H506.17V324.258H517.044V313.367Z" fill="#9BAFB8"/>
<path d="M657.867 313.367H646.993V324.258H657.867V313.367Z" fill="#9BAFB8"/>
<path d="M694.162 313.367H683.288V324.258H694.162V313.367Z" fill="#9BAFB8"/>
<path d="M803.147 313.367H792.273V324.258H803.147V313.367Z" fill="#9BAFB8"/>
<path d="M839.442 313.367H828.568V324.258H839.442V313.367Z" fill="#9BAFB8"/>
<path d="M640.037 187.731V177.625H799.718V187.731" stroke="black" stroke-width="2.5648" stroke-miterlimit="10"/>
<path d="M1226.55 148.287L1254.61 176.397" stroke="black" stroke-width="2.5648" stroke-miterlimit="10"/>
<path d="M1254.61 148.287L1226.55 176.397" stroke="black" stroke-width="2.5648" stroke-miterlimit="10"/>
<path d="M1226.55 176.397L1254.61 204.508" stroke="black" stroke-width="2.5648" stroke-miterlimit="10"/>
<path d="M1254.61 176.397L1226.55 204.508" stroke="black" stroke-width="2.5648" stroke-miterlimit="10"/>
<path d="M1226.55 204.508L1254.61 232.618" stroke="black" stroke-width="2.5648" stroke-miterlimit="10"/>
<path d="M1254.61 204.508L1226.55 232.618" stroke="black" stroke-width="2.5648" stroke-miterlimit="10"/>
<path d="M1226.54 232.618H1254.6V148.238H1226.54V232.618Z" stroke="black" stroke-width="2.5648" stroke-miterlimit="10"/>
<path d="M1226.55 244.933L1254.61 273.043" stroke="black" stroke-width="2.5648" stroke-miterlimit="10"/>
<path d="M1254.61 244.933L1226.55 273.043" stroke="black" stroke-width="2.5648" stroke-miterlimit="10"/>
<path d="M1226.55 273.042L1254.61 301.152" stroke="black" stroke-width="2.5648" stroke-miterlimit="10"/>
<path d="M1254.61 273.042L1226.55 301.152" stroke="black" stroke-width="2.5648" stroke-miterlimit="10"/>
<path d="M1226.55 301.153L1254.61 329.313" stroke="black" stroke-width="2.5648" stroke-miterlimit="10"/>
<path d="M1254.61 301.153L1226.55 329.313" stroke="black" stroke-width="2.5648" stroke-miterlimit="10"/>
<path d="M1226.54 329.289H1254.6V244.909H1226.54V329.289Z" stroke="black" stroke-width="2.5648" stroke-miterlimit="10"/>
<path d="M1226.55 341.576L1254.61 369.687" stroke="black" stroke-width="2.5648" stroke-miterlimit="10"/>
<path d="M1254.61 341.576L1226.55 369.687" stroke="black" stroke-width="2.5648" stroke-miterlimit="10"/>
<path d="M1226.55 369.687L1254.61 397.846" stroke="black" stroke-width="2.5648" stroke-miterlimit="10"/>
<path d="M1254.61 369.687L1226.55 397.846" stroke="black" stroke-width="2.5648" stroke-miterlimit="10"/>
<path d="M1226.55 397.846L1254.61 425.956" stroke="black" stroke-width="2.5648" stroke-miterlimit="10"/>
<path d="M1254.61 397.846L1226.55 425.956" stroke="black" stroke-width="2.5648" stroke-miterlimit="10"/>
<path d="M1226.54 425.962H1254.6V341.582H1226.54V425.962Z" stroke="black" stroke-width="2.5648" stroke-miterlimit="10"/>
<path d="M1218.27 148.287H1141.27V136.12H1265.93V148.287H1260.59" stroke="black" stroke-width="2.5648" stroke-miterlimit="10"/>
<path d="M1220.47 232.619H1212.93V244.933H1220.47" stroke="black" stroke-width="2.5648" stroke-miterlimit="10"/>
<path d="M1260.59 244.933H1268.08V232.619H1260.59" stroke="black" stroke-width="2.5648" stroke-miterlimit="10"/>
<path d="M1220.52 329.312H1212.98V341.576H1220.52" stroke="black" stroke-width="2.5648" stroke-miterlimit="10"/>
<path d="M1260.64 341.576H1268.18V329.312H1260.64" stroke="black" stroke-width="2.5648" stroke-miterlimit="10"/>
<path d="M1033.07 172.326H942.108C929.471 172.326 919.184 182.628 919.184 195.285V273.975" stroke="black" stroke-width="2.5648" stroke-miterlimit="10"/>
<path d="M912.425 276.231V195.334C912.425 178.949 925.748 165.556 942.157 165.556H1033.12" stroke="black" stroke-width="2.5648" stroke-miterlimit="10"/>
<path d="M1027.53 189.447H953.276C943.039 189.447 934.663 197.787 934.663 208.089V270.197" stroke="black" stroke-width="2.5648" stroke-miterlimit="10"/>
<path d="M927.903 273.141V208.09C927.903 194.059 939.267 182.678 953.276 182.678H1027.53" stroke="black" stroke-width="2.5648" stroke-miterlimit="10"/>
<path d="M1021.36 206.078H963.415C957.243 206.078 952.198 211.131 952.198 217.312V270.197" stroke="black" stroke-width="2.5648" stroke-miterlimit="10"/>
<path d="M945.439 270.197V217.312C945.439 207.402 953.521 199.308 963.415 199.308H1021.36" stroke="black" stroke-width="2.5648" stroke-miterlimit="10"/>
<path d="M1015.24 222.365H971.301C969.881 222.365 968.705 223.543 968.705 224.965V270.246" stroke="black" stroke-width="2.5648" stroke-miterlimit="10"/>
<path d="M961.946 270.198V224.917C961.946 219.766 966.158 215.547 971.301 215.547H1015.24" stroke="black" stroke-width="2.5648" stroke-miterlimit="10"/>
<path d="M1033.7 177.968V161.387H1056.33" stroke="black" stroke-width="2.5648" stroke-miterlimit="10"/>
<path d="M1027.53 194.549V177.968H1044.53" stroke="black" stroke-width="2.5648" stroke-miterlimit="10"/>
<path d="M1021.36 211.18V194.55H1038.01" stroke="black" stroke-width="2.5648" stroke-miterlimit="10"/>
<path d="M1035.37 227.762H1015.24V211.181H1035.37" stroke="black" stroke-width="2.5648" stroke-miterlimit="10"/>
<path d="M1178.35 215.595C1178.35 179.537 1149.2 150.348 1113.2 150.348C1077.2 150.348 1048.06 179.537 1048.06 215.595" stroke="#9BAFB8" stroke-width="2.5648" stroke-miterlimit="10" stroke-dasharray="12.82 12.82"/>
<path d="M514.399 213.779V187.729H847.965V236.917" stroke="black" stroke-width="2.5648" stroke-miterlimit="10"/>
<path d="M465.52 225.1C459.894 225.1 457.229 227.408 456.045 230.618H460.585C461.276 228.812 462.46 228.11 463.842 228.11C466.112 228.11 467.395 229.916 467.79 233.729H461.177V236.738H467.79C467.691 241.655 466.309 243.862 463.743 243.862C462.263 243.862 460.979 243.059 460.289 240.952H455.749C456.834 244.363 459.598 246.872 465.421 246.872C472.231 246.872 475.784 241.554 475.784 235.936C475.784 230.317 472.428 225.1 465.52 225.1Z" fill="#F16408"/>
<path d="M443.51 225.702H437.786L429.1 246.571H432.259L439.365 229.515L445.879 244.464C446.57 245.868 448.346 246.671 450.518 246.671H454.959L446.274 227.107C446.076 226.304 445.089 225.702 443.51 225.702Z" fill="#F16408"/>
<path d="M391.003 225.1C383.108 225.1 379.258 230.418 379.258 236.036C379.258 241.655 383.206 246.972 391.003 246.972C398.8 246.972 402.847 241.655 402.847 236.036C402.748 230.518 398.8 225.1 391.003 225.1ZM391.003 243.962C388.24 243.962 386.858 241.454 386.858 236.036C386.858 230.618 388.24 228.11 391.003 228.11C393.767 228.11 395.149 230.618 395.149 236.036C395.149 241.554 393.767 243.962 391.003 243.962Z" fill="#F16408"/>
<path d="M368.008 233.829H362.678V225.702H355.375V246.571H362.678V236.839H368.008V246.571H375.41V225.702H368.008V233.829Z" fill="#F16408"/>
<path d="M308 225.702V246.571H315.304V228.712H320.633V246.571H328.035V225.702H308Z" fill="#F16408"/>
<path d="M333.364 241.755C333.364 244.765 335.832 246.47 339.286 246.47H350.834V243.46H340.767V236.839H348.366V233.829H340.767V228.612H350.932V225.602H333.364V241.755Z" fill="#F16408"/>
<path d="M406.597 225.702V246.571H413.999V228.712H419.329V246.571H426.632V225.702H406.597Z" fill="#F16408"/>
<path d="M516.249 243.962C513.584 243.962 512.202 241.454 512.202 236.036C512.202 230.618 513.584 228.11 516.249 228.11C517.927 228.11 519.111 229.013 519.703 231.521H524.441C523.454 227.809 520.789 225 514.67 225C507.761 225 504.307 230.317 504.307 235.936C504.307 241.554 507.761 246.872 514.67 246.872C520.789 246.872 523.454 244.062 524.441 240.35H519.703C519.111 243.159 517.927 243.962 516.249 243.962Z" fill="#F16408"/>
<path d="M530.857 232.625C528.981 232.625 527.402 231.12 527.402 229.113C527.402 227.207 528.981 225.602 530.857 225.602C532.732 225.602 534.311 227.107 534.311 229.113C534.212 231.12 532.732 232.625 530.857 232.625ZM530.857 226.304C529.277 226.304 527.994 227.609 527.994 229.214C527.994 230.819 529.277 232.123 530.857 232.123C532.436 232.123 533.719 230.819 533.719 229.214C533.62 227.508 532.436 226.304 530.857 226.304ZM531.745 231.12L530.758 229.515H530.166V231.12H529.573V227.107H531.153C531.843 227.107 532.436 227.609 532.436 228.311C532.436 229.214 531.646 229.515 531.449 229.515L532.534 231.12H531.745ZM531.054 227.709H530.067V229.113H531.054C531.35 229.113 531.745 228.812 531.745 228.411C531.844 227.91 531.449 227.709 531.054 227.709Z" fill="#F16408"/>
<path d="M493.155 232.123L498.682 225.702H494.735L487.036 234.732V225.702H479.733V246.571H487.036V236.036L493.55 243.862C495.228 245.768 497.399 246.47 500.163 246.47H505.098L493.155 232.123Z" fill="#F16408"/>
</svg>
