<svg width="227" height="23" viewBox="0 0 227 23" fill="none" xmlns="http://www.w3.org/2000/svg">
<path d="M157.52 0.614335C151.894 0.614335 149.229 2.92189 148.045 6.13241H152.585C153.276 4.32649 154.46 3.62419 155.842 3.62419C158.112 3.62419 159.395 5.43011 159.79 9.2426H153.177V12.2525H159.79C159.691 17.1686 158.309 19.3758 155.743 19.3758C154.263 19.3758 152.979 18.5732 152.289 16.4663H147.749C148.834 19.8774 151.598 22.3856 157.421 22.3856C164.231 22.3856 167.784 17.0682 167.784 11.4498C167.784 5.83142 164.428 0.614335 157.52 0.614335Z" fill="#F16408"/>
<path d="M135.51 1.21634H129.786L121.1 22.0847H124.259L131.365 5.02883L137.879 19.9778C138.57 21.3824 140.346 22.185 142.518 22.185H146.959L138.274 2.62094C138.076 1.81831 137.089 1.21634 135.51 1.21634Z" fill="#F16408"/>
<path d="M83.0033 0.614335C75.1076 0.614335 71.2584 5.93175 71.2584 11.5502C71.2584 17.1686 75.2063 22.486 83.0033 22.486C90.8004 22.486 94.847 17.1686 94.847 11.5502C94.7483 6.03208 90.8004 0.614335 83.0033 0.614335ZM83.0033 19.4761C80.2398 19.4761 78.8581 16.9679 78.8581 11.5502C78.8581 6.13241 80.2398 3.62419 83.0033 3.62419C85.7669 3.62419 87.1486 6.13241 87.1486 11.5502C87.1486 17.0682 85.7669 19.4761 83.0033 19.4761Z" fill="#F16408"/>
<path d="M60.0077 9.34296H54.6781V1.21634H47.3745V22.0847H54.6781V12.3528H60.0077V22.0847H67.41V1.21634H60.0077V9.34296Z" fill="#F16408"/>
<path d="M0 1.21634V22.0847H7.30357V4.2262H12.6332V22.0847H20.0355V1.21634H0Z" fill="#F16408"/>
<path d="M25.3643 17.2689C25.3643 20.2787 27.8318 21.9843 31.2862 21.9843H42.8337V18.9745H32.7666V12.3528H40.3663V9.34292H32.7666V4.12584H42.9324V1.11598H25.3643V17.2689Z" fill="#F16408"/>
<path d="M98.5967 1.21634V22.0847H105.999V4.2262H111.329V22.0847H118.632V1.21634H98.5967Z" fill="#F16408"/>
<path d="M208.249 19.4761C205.584 19.4761 204.202 16.9679 204.202 11.5502C204.202 6.13243 205.584 3.62422 208.249 3.62422C209.927 3.62422 211.111 4.52717 211.703 7.03539H216.441C215.454 3.32323 212.789 0.51403 206.67 0.51403C199.761 0.51403 196.307 5.83144 196.307 11.4498C196.307 17.0682 199.761 22.3857 206.67 22.3857C212.789 22.3857 215.454 19.5765 216.441 15.8643H211.703C211.111 18.6735 209.927 19.4761 208.249 19.4761Z" fill="#F16408"/>
<path d="M222.857 8.13898C220.981 8.13898 219.402 6.63405 219.402 4.62748C219.402 2.72124 220.981 1.11598 222.857 1.11598C224.732 1.11598 226.311 2.62091 226.311 4.62748C226.212 6.63405 224.732 8.13898 222.857 8.13898ZM222.857 1.81828C221.277 1.81828 219.994 3.12255 219.994 4.72781C219.994 6.33307 221.277 7.63734 222.857 7.63734C224.436 7.63734 225.719 6.33307 225.719 4.72781C225.62 3.02222 224.436 1.81828 222.857 1.81828ZM223.745 6.63405L222.758 5.02879H222.166V6.63405H221.573V2.62091H223.153C223.843 2.62091 224.436 3.12255 224.436 3.82485C224.436 4.72781 223.646 5.02879 223.449 5.02879L224.534 6.63405H223.745ZM223.054 3.22288H222.067V4.62748H223.054C223.35 4.62748 223.745 4.32649 223.745 3.92518C223.844 3.42353 223.449 3.22288 223.054 3.22288Z" fill="#F16408"/>
<path d="M185.155 7.63737L190.682 1.21634H186.735L179.036 10.2459V1.21634H171.733V22.0847H179.036V11.5502L185.55 19.3758C187.228 21.2821 189.399 21.9844 192.163 21.9844H197.098L185.155 7.63737Z" fill="#F16408"/>
</svg>
