<svg width="120" height="120" viewBox="0 0 120 120" fill="none" xmlns="http://www.w3.org/2000/svg">
<rect x="0.5" y="0.5" width="119" height="119" fill="#EEF2F5"/>
<rect x="0.5" y="0.5" width="119" height="119" stroke="#E9E9E9"/>
<path d="M59.6934 84.9441C59.9976 85.042 60.3305 84.9887 60.5889 84.8005C60.8472 84.6123 61 84.3116 61 83.9919V36.8747C60.9999 36.4406 60.7198 36.0557 60.3066 35.9226L26.1973 24.9382C25.893 24.8402 25.5601 24.8945 25.3018 25.0827C25.0436 25.2709 24.8907 25.5709 24.8906 25.8903V73.0075C24.8906 73.4417 25.1707 73.8266 25.584 73.9597L59.6934 84.9441ZM26.8906 72.279V27.2634L59 37.6042V82.6198L26.8906 72.279Z" fill="#9BAFB8"/>
<path d="M59.6933 95.061C60.219 95.2302 60.7829 94.9412 60.9521 94.4155C61.1214 93.8898 60.8323 93.326 60.3066 93.1567L26.1973 82.1723C25.6716 82.003 25.1078 82.2922 24.9385 82.8178C24.7692 83.3435 25.0583 83.9073 25.584 84.0766L59.6933 95.061Z" fill="#F16408"/>
<path d="M59.0478 94.4155C59.2065 94.9084 59.7121 95.1933 60.2079 95.0873L60.3065 95.061L94.4159 84.0766L94.5116 84.0405C94.9759 83.8371 95.2201 83.3106 95.0614 82.8178C94.9027 82.3249 94.397 82.04 93.9013 82.1459L93.8026 82.1723L59.6933 93.1567L59.5976 93.1928C59.1332 93.3961 58.889 93.9226 59.0478 94.4155Z" fill="#F16408"/>
<path d="M59.411 84.8005C59.6693 84.9886 60.0023 85.042 60.3065 84.9441L94.4159 73.9597C94.8291 73.8266 95.1093 73.4417 95.1093 73.0075V25.8903C95.1092 25.5709 94.9562 25.2709 94.6981 25.0827C94.4398 24.8945 94.1068 24.8403 93.8026 24.9382L59.6932 35.9226C59.28 36.0556 58.9999 36.4406 58.9999 36.8747V83.9919C58.9999 84.3115 59.1527 84.6123 59.411 84.8005ZM60.9999 37.6042L93.1093 27.2634V72.279L60.9999 82.6198V37.6042Z" fill="#9BAFB8"/>
</svg>
