<svg width="120" height="120" viewBox="0 0 120 120" fill="none" xmlns="http://www.w3.org/2000/svg">
<rect x="0.5" y="0.5" width="119" height="119" fill="#EEF2F5"/>
<rect x="0.5" y="0.5" width="119" height="119" stroke="#E9E9E9"/>
<path d="M86.4219 62.292V72.7109H82.3896C81.9145 72.7109 81.5043 73.0452 81.4092 73.5107C80.8425 76.29 79.7323 78.8744 78.2109 81.1699C77.9484 81.5664 78.0017 82.0925 78.3379 82.4287L81.208 85.2988L76.1582 90.3486L73.2881 87.4785C72.9517 87.1422 72.4248 87.0888 72.0283 87.3516C69.733 88.873 67.1493 89.9841 64.3701 90.5508C63.9046 90.6459 63.5703 91.0551 63.5703 91.5303V95.7148H56.4297V91.5303C56.4297 91.0552 56.0953 90.6459 55.6299 90.5508C52.8506 89.9841 50.267 88.873 47.9717 87.3516C47.5752 87.0888 47.0483 87.1422 46.7119 87.4785L43.8418 90.3486L38.792 85.2988L41.6621 82.4287C41.9982 82.0925 42.0515 81.5663 41.7891 81.1699C40.2677 78.8744 39.1565 76.29 38.5898 73.5107C38.4947 73.0453 38.0854 72.7109 37.6104 72.7109H33.5781V62.292C33.578 61.7398 33.1303 61.292 32.5781 61.292C32.0259 61.292 31.5783 61.7398 31.5781 62.292V73.7109C31.5781 74.2632 32.0258 74.7109 32.5781 74.7109H36.8105C37.4049 77.1759 38.3892 79.4846 39.6807 81.582L36.6709 84.5918C36.2804 84.9823 36.2806 85.6153 36.6709 86.0059L43.1348 92.4697L43.21 92.5381C43.6027 92.8587 44.1826 92.8359 44.5488 92.4697L47.5586 89.46C49.6561 90.7516 51.9647 91.7367 54.4297 92.3311V96.7148C54.4297 97.2671 54.8774 97.7148 55.4297 97.7148H64.5703C65.1226 97.7148 65.5703 97.2671 65.5703 96.7148V92.3311C68.0349 91.7368 70.3431 90.7514 72.4404 89.46L75.4512 92.4697L75.5273 92.5381C75.9201 92.8584 76.4991 92.8358 76.8652 92.4697L83.3291 86.0059C83.5165 85.8184 83.6221 85.5639 83.6221 85.2988C83.622 85.0337 83.5166 84.7793 83.3291 84.5918L80.3184 81.582C81.6099 79.4845 82.5951 77.176 83.1895 74.7109H87.4219C87.9741 74.7108 88.4219 74.2632 88.4219 73.7109V62.292C88.4217 61.7399 87.974 61.2921 87.4219 61.292C86.8697 61.292 86.422 61.7398 86.4219 62.292Z" fill="#F16408"/>
<path d="M73.5322 63.3613C73.3151 62.8536 72.7275 62.6181 72.2197 62.835C71.7119 63.0521 71.4762 63.6396 71.6934 64.1475L73.5322 63.3613ZM72.7109 69.1406C72.7109 76.1607 67.0201 81.8515 60 81.8516C52.9801 81.8516 47.2891 76.1607 47.2891 69.1406C47.2891 67.3663 47.6518 65.679 48.3066 64.1475C48.5237 63.6398 48.2888 63.0522 47.7812 62.835C47.2734 62.6178 46.6849 62.8535 46.4678 63.3613C45.7087 65.1367 45.2891 67.091 45.2891 69.1406C45.2891 77.2653 51.8755 83.8516 60 83.8516C68.1246 83.8515 74.7109 77.2653 74.7109 69.1406C74.7109 67.091 74.2914 65.1368 73.5322 63.3613L71.6934 64.1475C72.3482 65.679 72.7109 67.3662 72.7109 69.1406Z" fill="#F16408"/>
<path d="M60 65.5703C68.0844 65.5703 76.1501 64.4165 82.1816 63.2676C85.2005 62.6926 87.717 62.1174 89.4805 61.6855C90.3623 61.4696 91.0565 61.2897 91.5312 61.1631C91.7686 61.0998 91.9513 61.0499 92.0752 61.0156C92.1371 60.9985 92.1847 60.9846 92.2168 60.9756C92.2325 60.9712 92.2446 60.9682 92.2529 60.9658C92.257 60.9647 92.2604 60.9635 92.2627 60.9629C92.2638 60.9626 92.265 60.9621 92.2656 60.9619H92.2666L92.4209 60.9033C92.7653 60.74 92.9922 60.3907 92.9922 60V53.1445C92.9922 52.5923 92.5444 52.1446 91.9922 52.1445H28.0078C27.4555 52.1445 27.0078 52.5923 27.0078 53.1445V60C27.0078 60.4465 27.3041 60.8393 27.7334 60.9619H27.7344C27.735 60.9621 27.7362 60.9626 27.7373 60.9629C27.7396 60.9635 27.7431 60.9647 27.7471 60.9658C27.7554 60.9682 27.7676 60.9712 27.7832 60.9756C27.8153 60.9846 27.8629 60.9985 27.9248 61.0156C28.0487 61.0499 28.2314 61.0998 28.4688 61.1631C28.9435 61.2897 29.6377 61.4696 30.5195 61.6855C32.283 62.1174 34.7996 62.6926 37.8184 63.2676C43.8499 64.4164 51.9156 65.5703 60 65.5703ZM60 63.5703C52.0884 63.5703 44.1578 62.439 38.1924 61.3027C35.213 60.7352 32.7307 60.1682 30.9951 59.7432C30.1423 59.5343 29.4698 59.3603 29.0078 59.2373V54.1445H90.9922V59.2373C90.5302 59.3603 89.8578 59.5343 89.0049 59.7432C87.2693 60.1682 84.787 60.7352 81.8076 61.3027C75.8422 62.439 67.9116 63.5703 60 63.5703Z" fill="#9BAFB8"/>
<path d="M32.59 54.1431C33.1059 54.1855 33.563 53.8279 33.6554 53.3296L33.6691 53.228L33.7111 52.7661C34.6651 43.2318 40.6827 35.0559 49.0245 31.2368L49.4308 31.0552L49.5216 31.0103C49.9635 30.7615 50.1538 30.2134 49.9464 29.7388C49.7391 29.2644 49.2082 29.0322 48.7257 29.187L48.63 29.2231L48.1935 29.4185C39.2109 33.5304 32.7463 42.3187 31.7208 52.5669L31.6749 53.064L31.672 53.1665C31.6818 53.6731 32.0741 54.1005 32.59 54.1431Z" fill="#9BAFB8"/>
<path d="M87.4102 54.143C87.9605 54.0976 88.3696 53.6142 88.3243 53.0639C87.4477 42.4376 80.7254 33.3112 71.3702 29.2231C70.8642 29.002 70.275 29.2328 70.0538 29.7388C69.8327 30.2448 70.0634 30.834 70.5694 31.0552C79.257 34.8515 85.5155 43.3417 86.3311 53.228C86.3765 53.7784 86.8598 54.1885 87.4102 54.143Z" fill="#9BAFB8"/>
<path d="M64.1619 44.9186C64.6346 45.13 65.1838 44.9441 65.4363 44.5045L65.4832 44.4137L73.574 26.319C73.683 26.0751 73.6904 25.7975 73.5936 25.5485C73.4967 25.2994 73.3036 25.1 73.0584 24.9938C69.0509 23.2593 64.6379 22.2868 59.9998 22.2868C55.3617 22.2868 50.9487 23.2593 46.9412 24.9938C46.6962 25.0999 46.5039 25.2996 46.407 25.5485C46.3102 25.7974 46.3167 26.0751 46.4256 26.319L54.5164 44.4137C54.7418 44.9178 55.3336 45.1439 55.8377 44.9186C56.3419 44.6931 56.568 44.1015 56.3426 43.5973L48.6717 26.444C52.1835 25.0575 56.0016 24.2868 59.9998 24.2868C63.9976 24.2868 67.8154 25.0578 71.327 26.444L63.657 43.5973C63.4317 44.1014 63.6578 44.6932 64.1619 44.9186Z" fill="#9BAFB8"/>
</svg>
