<svg width="120" height="120" viewBox="0 0 120 120" fill="none" xmlns="http://www.w3.org/2000/svg">
<rect x="0.5" y="0.5" width="119" height="119" fill="#EEF2F5"/>
<rect x="0.5" y="0.5" width="119" height="119" stroke="#E9E9E9"/>
<path d="M98.3983 92.9922C98.3983 95.9779 95.9778 98.3984 92.9921 98.3984H58.3983C55.4126 98.3984 52.9921 95.9779 52.9921 92.9922V46.8672C52.9922 43.8815 55.4127 41.4609 58.3983 41.4609H92.9921C95.9777 41.461 98.3983 43.8816 98.3983 46.8672V92.9922ZM100.398 46.8672C100.398 42.777 97.0823 39.461 92.9921 39.4609H58.3983C54.3081 39.4609 50.9922 42.777 50.9921 46.8672V92.9922C50.9921 97.0825 54.3081 100.398 58.3983 100.398H92.9921C97.0823 100.398 100.398 97.0824 100.398 92.9922V46.8672Z" fill="#9BAFB8"/>
<path d="M91.7108 61.9609C92.2631 61.9609 92.7108 61.5132 92.7108 60.9609V48.1484C92.7108 47.5962 92.263 47.1485 91.7108 47.1484H59.6796C59.1273 47.1484 58.6796 47.5962 58.6796 48.1484V60.9609C58.6796 61.5132 59.1273 61.9609 59.6796 61.9609H91.7108ZM60.6796 49.1484H90.7108V59.9609H60.6796V49.1484Z" fill="#F16408"/>
<path d="M63.0329 70.9297L63.1355 70.9248C63.6396 70.8735 64.0329 70.4474 64.0329 69.9297C64.0329 69.412 63.6396 68.9859 63.1355 68.9346L63.0329 68.9297H60.0202C59.4679 68.9297 59.0202 69.3774 59.0202 69.9297C59.0202 70.482 59.4679 70.9297 60.0202 70.9297H63.0329Z" fill="#F16408"/>
<path d="M72.5921 70.9297L72.6947 70.9248C73.1988 70.8735 73.5921 70.4474 73.5921 69.9297C73.5921 69.412 73.1988 68.9859 72.6947 68.9346L72.5921 68.9297H69.5794C69.0272 68.9297 68.5794 69.3774 68.5794 69.9297C68.5794 70.482 69.0272 70.9297 69.5794 70.9297H72.5921Z" fill="#F16408"/>
<path d="M82.1515 70.9297L82.2541 70.9248C82.7582 70.8735 83.1515 70.4474 83.1515 69.9297C83.1515 69.412 82.7582 68.9859 82.2541 68.9346L82.1515 68.9297H79.1388C78.5865 68.9297 78.1388 69.3774 78.1388 69.9297C78.1388 70.482 78.5865 70.9297 79.1388 70.9297H82.1515Z" fill="#F16408"/>
<path d="M91.7109 70.9297L91.8134 70.9248C92.3175 70.8735 92.7109 70.4474 92.7109 69.9297C92.7109 69.412 92.3175 68.9859 91.8134 68.9346L91.7109 68.9297H88.6982C88.1459 68.9297 87.6982 69.3774 87.6982 69.9297C87.6982 70.482 88.1459 70.9297 88.6982 70.9297H91.7109Z" fill="#F16408"/>
<path d="M63.0329 79.8984L63.1355 79.8936C63.6396 79.8422 64.0329 79.4161 64.0329 78.8984C64.0329 78.3808 63.6396 77.9547 63.1355 77.9033L63.0329 77.8984H60.0202C59.4679 77.8984 59.0202 78.3462 59.0202 78.8984C59.0202 79.4507 59.4679 79.8984 60.0202 79.8984H63.0329Z" fill="#F16408"/>
<path d="M72.5921 79.8984L72.6947 79.8936C73.1988 79.8422 73.5921 79.4161 73.5921 78.8984C73.5921 78.3808 73.1988 77.9547 72.6947 77.9033L72.5921 77.8984H69.5794C69.0272 77.8984 68.5794 78.3462 68.5794 78.8984C68.5794 79.4507 69.0272 79.8984 69.5794 79.8984H72.5921Z" fill="#F16408"/>
<path d="M82.1515 79.8984L82.2541 79.8936C82.7582 79.8422 83.1515 79.4161 83.1515 78.8984C83.1515 78.3808 82.7582 77.9547 82.2541 77.9033L82.1515 77.8984H79.1388C78.5865 77.8984 78.1388 78.3462 78.1388 78.8984C78.1388 79.4507 78.5865 79.8984 79.1388 79.8984H82.1515Z" fill="#F16408"/>
<path d="M91.7109 79.8984L91.8134 79.8936C92.3175 79.8422 92.7109 79.4161 92.7109 78.8984C92.7109 78.3808 92.3175 77.9547 91.8134 77.9033L91.7109 77.8984H88.6982C88.1459 77.8984 87.6982 78.3462 87.6982 78.8984C87.6982 79.4507 88.1459 79.8984 88.6982 79.8984H91.7109Z" fill="#F16408"/>
<path d="M63.0329 88.8672L63.1355 88.8623C63.6396 88.811 64.0329 88.3849 64.0329 87.8672C64.0329 87.3495 63.6396 86.9234 63.1355 86.8721L63.0329 86.8672H60.0202C59.4679 86.8672 59.0202 87.3149 59.0202 87.8672C59.0202 88.4195 59.4679 88.8672 60.0202 88.8672H63.0329Z" fill="#F16408"/>
<path d="M72.5921 88.8672L72.6947 88.8623C73.1988 88.811 73.5921 88.3849 73.5921 87.8672C73.5921 87.3495 73.1988 86.9234 72.6947 86.8721L72.5921 86.8672H69.5794C69.0272 86.8672 68.5794 87.3149 68.5794 87.8672C68.5794 88.4195 69.0272 88.8672 69.5794 88.8672H72.5921Z" fill="#F16408"/>
<path d="M82.1515 88.8672L82.2541 88.8623C82.7582 88.811 83.1515 88.3849 83.1515 87.8672C83.1515 87.3495 82.7582 86.9234 82.2541 86.8721L82.1515 86.8672H79.1388C78.5865 86.8672 78.1388 87.3149 78.1388 87.8672C78.1388 88.4195 78.5865 88.8672 79.1388 88.8672H82.1515Z" fill="#F16408"/>
<path d="M91.7109 88.8672L91.8134 88.8623C92.3175 88.811 92.7109 88.3849 92.7109 87.8672C92.7109 87.3495 92.3175 86.9234 91.8134 86.8721L91.7109 86.8672H88.6982C88.1459 86.8672 87.6982 87.3149 87.6982 87.8672C87.6982 88.4195 88.1459 88.8672 88.6982 88.8672H91.7109Z" fill="#F16408"/>
<path d="M23.6045 79.7383L23.707 79.7334C24.2112 79.6821 24.6045 79.256 24.6045 78.7383C24.6045 78.2206 24.2112 77.7945 23.707 77.7432L23.6045 77.7383H20.6016C20.0493 77.7383 19.6016 78.186 19.6016 78.7383C19.6016 79.2906 20.0493 79.7383 20.6016 79.7383H23.6045Z" fill="#9BAFB8"/>
<path d="M25.7266 72.0508L25.8291 72.0459C26.3332 71.9946 26.7266 71.5685 26.7266 71.0508C26.7266 70.5331 26.3332 70.107 25.8291 70.0557L25.7266 70.0508H20.6016C20.0493 70.0508 19.6016 70.4985 19.6016 71.0508C19.6016 71.6031 20.0493 72.0508 20.6016 72.0508H25.7266Z" fill="#9BAFB8"/>
<path d="M23.6045 64.3633L23.707 64.3584C24.2112 64.3071 24.6045 63.881 24.6045 63.3633C24.6045 62.8456 24.2112 62.4195 23.707 62.3682L23.6045 62.3633H20.6016C20.0493 62.3633 19.6016 62.811 19.6016 63.3633C19.6016 63.9156 20.0493 64.3633 20.6016 64.3633H23.6045Z" fill="#9BAFB8"/>
<path d="M25.7266 56.6758L25.8291 56.6709C26.3332 56.6196 26.7266 56.1935 26.7266 55.6758C26.7266 55.1581 26.3332 54.732 25.8291 54.6807L25.7266 54.6758H20.6016C20.0493 54.6758 19.6016 55.1235 19.6016 55.6758C19.6016 56.2281 20.0493 56.6758 20.6016 56.6758H25.7266Z" fill="#9BAFB8"/>
<path d="M23.6045 48.9883L23.707 48.9834C24.2112 48.9321 24.6045 48.506 24.6045 47.9883C24.6045 47.4706 24.2112 47.0445 23.707 46.9932L23.6045 46.9883H20.6016C20.0493 46.9883 19.6016 47.436 19.6016 47.9883C19.6016 48.5406 20.0493 48.9883 20.6016 48.9883H23.6045Z" fill="#9BAFB8"/>
<path d="M25.7266 41.3008L25.8291 41.2959C26.3332 41.2446 26.7266 40.8185 26.7266 40.3008C26.7266 39.7831 26.3332 39.357 25.8291 39.3057L25.7266 39.3008H20.6016C20.0493 39.3008 19.6016 39.7485 19.6016 40.3008C19.6016 40.8531 20.0493 41.3008 20.6016 41.3008H25.7266Z" fill="#9BAFB8"/>
<path d="M23.6045 33.6133L23.707 33.6084C24.2112 33.5571 24.6045 33.131 24.6045 32.6133C24.6045 32.0956 24.2112 31.6695 23.707 31.6182L23.6045 31.6133H20.6016C20.0493 31.6133 19.6016 32.061 19.6016 32.6133C19.6016 33.1656 20.0493 33.6133 20.6016 33.6133H23.6045Z" fill="#9BAFB8"/>
<path d="M51.2979 91.75C51.8501 91.75 52.2979 91.3023 52.2979 90.75C52.2979 90.1977 51.8501 89.75 51.2979 89.75H21.6016V23.0156L50.9922 52.4062V65.8857L32.8398 47.7334C32.5538 47.4474 32.1237 47.3618 31.75 47.5166C31.3764 47.6714 31.1329 48.036 31.1328 48.4404V79.2188C31.1328 79.771 31.5805 80.2188 32.1328 80.2188H51.9922L52.0947 80.2139C52.5988 80.1625 52.9922 79.7364 52.9922 79.2188C52.9922 78.7011 52.5988 78.275 52.0947 78.2236L51.9922 78.2188H33.1328V50.8545L51.2852 69.0068C51.5712 69.2928 52.0013 69.3784 52.375 69.2236C52.7485 69.0688 52.9922 68.7042 52.9922 68.2998V51.9922C52.9922 51.727 52.8867 51.4727 52.6992 51.2852L21.3086 19.8945C21.0226 19.6086 20.5924 19.523 20.2188 19.6777C19.8452 19.8325 19.6016 20.1972 19.6016 20.6016V90.75C19.6016 91.3023 20.0493 91.75 20.6016 91.75H51.2979Z" fill="#9BAFB8"/>
</svg>
