<svg width="120" height="120" viewBox="0 0 120 120" fill="none" xmlns="http://www.w3.org/2000/svg">
<rect x="0.5" y="0.5" width="119" height="119" fill="#EEF2F5"/>
<rect x="0.5" y="0.5" width="119" height="119" stroke="#E9E9E9"/>
<path d="M100.32 59.1562C100.32 57.8458 99.2578 56.7833 97.9473 56.7832H52.4102C52.1451 56.7831 51.8906 56.6777 51.7031 56.4902L46.9365 51.7236H28.1123V97.1035C28.1123 98.3191 27.6967 99.4349 27.002 100.32H97.9473C99.2578 100.32 100.32 99.2578 100.32 97.9473V59.1562ZM102.32 97.9473C102.32 100.362 100.362 102.32 97.9473 102.32H22.8965C22.8858 102.32 22.8748 102.319 22.8643 102.318C22.8396 102.318 22.8148 102.32 22.79 102.319C19.9056 102.261 17.6797 99.8335 17.6797 97.0078V45.6641C17.6797 43.2489 19.6376 41.2911 22.0527 41.291H35.5449C36.0972 41.291 36.5449 41.7387 36.5449 42.291C36.5449 42.8433 36.0972 43.291 35.5449 43.291H22.0527C20.7422 43.2911 19.6797 44.3535 19.6797 45.6641V97.0078C19.6797 98.8042 21.093 100.284 22.8301 100.319C24.6341 100.355 26.1123 98.906 26.1123 97.1035V50.7236C26.1124 50.1715 26.5601 49.7237 27.1123 49.7236H47.3506C47.6157 49.7236 47.8701 49.8293 48.0576 50.0166L52.8242 54.7832H97.9473C100.362 54.7833 102.32 56.7412 102.32 59.1562V97.9473Z" fill="#9BAFB8"/>
<path d="M42.9777 49V26.4258H36.545V49C36.545 49.5523 36.0973 50 35.545 50C34.9928 50 34.545 49.5523 34.545 49V25.4258C34.5451 25.1606 34.6505 24.9063 34.838 24.7188C35.0255 24.5312 35.2798 24.4258 35.545 24.4258H42.9777V18.6797C42.9777 18.1274 43.4254 17.6797 43.9777 17.6797H74.3361L74.4347 17.6846C74.6635 17.7074 74.8791 17.8086 75.0431 17.9727L86.8488 29.7783C87.0362 29.9658 87.1417 30.2202 87.1417 30.4854V54C87.1417 54.5522 86.6939 54.9998 86.1417 55C85.5894 55 85.1417 54.5523 85.1417 54V30.8994L73.921 19.6797H44.9777V49C44.9777 49.5523 44.5299 50 43.9777 50C43.4254 50 42.9777 49.5523 42.9777 49Z" fill="#F16408"/>
<path d="M95.2607 55.7832V45.6641C95.2607 44.3528 94.199 43.2911 92.8877 43.291H88C87.4477 43.291 87 42.8433 87 42.291C87 41.7387 87.4477 41.291 88 41.291H92.8877C95.3035 41.2911 97.2607 43.2482 97.2607 45.6641V55.7832C97.2607 56.3355 96.813 56.7832 96.2607 56.7832C95.7085 56.7832 95.2607 56.3355 95.2607 55.7832Z" fill="#9BAFB8"/>
<path d="M54.0968 63.2167C54.6491 63.2167 55.0968 63.6644 55.0968 64.2167V72.6493C55.0966 73.2014 54.649 73.6493 54.0968 73.6493H35.545C34.9929 73.6493 34.5452 73.2014 34.545 72.6493V64.2167C34.545 63.6644 34.9928 63.2167 35.545 63.2167H54.0968ZM36.545 71.6493H53.0968V65.2167H36.545V71.6493ZM73.9532 17.7557C74.3269 17.6011 74.7572 17.6866 75.0431 17.9725L86.8488 29.7782C87.1347 30.0642 87.2202 30.4944 87.0656 30.868C86.9108 31.2416 86.5461 31.4851 86.1417 31.4852H74.3361C73.7838 31.4852 73.3361 31.0375 73.3361 30.4852V18.6796C73.3361 18.2751 73.5796 17.9105 73.9532 17.7557ZM75.3361 29.4852H83.7277L75.3361 21.0936V29.4852Z" fill="#F16408"/>
</svg>
