<svg width="120" height="120" viewBox="0 0 120 120" fill="none" xmlns="http://www.w3.org/2000/svg">
<rect x="0.5" y="0.5" width="119" height="119" fill="#EEF2F5"/>
<rect x="0.5" y="0.5" width="119" height="119" stroke="#E9E9E9"/>
<path d="M78.8993 54.5928V65.8692C71.9155 68.098 65.4425 71.8334 59.999 76.7393C55.0104 72.2436 49.1584 68.7299 42.8408 66.459C42.3211 66.2724 41.7483 66.542 41.5615 67.0616C41.3746 67.5813 41.6452 68.1541 42.165 68.3409C48.5156 70.6236 54.3814 74.2129 59.3173 78.8243L59.3915 78.8877C59.7752 79.1823 60.3223 79.1609 60.6825 78.8243C66.2234 73.6479 72.9355 69.7597 80.1894 67.5616C80.6109 67.4337 80.8993 67.0451 80.8993 66.6045V54.5928C80.8992 54.0407 80.4515 53.5929 79.8993 53.5928C79.3471 53.5928 78.8995 54.0406 78.8993 54.5928Z" fill="#9BAFB8"/>
<path d="M59.6191 67.0067C59.9036 67.1239 60.2293 67.1044 60.5 66.9481L100.299 43.9696C100.608 43.791 100.799 43.4614 100.799 43.1044C100.799 42.7472 100.608 42.4168 100.299 42.2382L60.5 19.2606C60.1906 19.082 59.8094 19.082 59.5 19.2606L19.7012 42.2382C19.3918 42.4168 19.2012 42.7471 19.2012 43.1044C19.2013 43.4614 19.392 43.791 19.7012 43.9696L33.6846 52.0438C34.1628 52.3198 34.7747 52.1557 35.0508 51.6776C35.3269 51.1993 35.1628 50.5876 34.6846 50.3114L22.2002 43.1044L60 21.2811L97.7988 43.1044L59.999 64.9276L43.0029 55.1141C42.5246 54.838 41.9129 55.0021 41.6367 55.4803C41.3609 55.9585 41.5248 56.5695 42.0029 56.8456L59.5 66.9481L59.6191 67.0067Z" fill="#9BAFB8"/>
<path d="M41.5029 78.0957C41.5029 78.648 41.9506 79.0957 42.5029 79.0957C43.0551 79.0957 43.5029 78.648 43.5029 78.0957V56.5576L61.7011 46.0508C63.9693 44.7411 63.9693 41.4669 61.7011 40.1572C61.1839 39.8587 60.5971 39.7022 59.9999 39.7021C59.4775 39.7021 58.9629 39.8217 58.496 40.0518L58.2988 40.1572L39.6005 50.9531C38.7182 51.4626 37.985 52.1948 37.4755 53.0771C36.9661 53.9594 36.6983 54.9607 36.6982 55.9795V78.0957C36.6982 78.648 37.1459 79.0957 37.6982 79.0957C38.2505 79.0957 38.6982 78.648 38.6982 78.0957V55.9795C38.6983 55.3118 38.8741 54.6554 39.2079 54.0771C39.5419 53.4989 40.0223 53.0184 40.6005 52.6846L59.2988 41.8896C59.512 41.7666 59.7538 41.7021 59.9999 41.7021C60.2461 41.7022 60.4879 41.7666 60.7011 41.8896C61.6359 42.4295 61.6359 43.7785 60.7011 44.3184L42.0029 55.1133C41.6936 55.2919 41.503 55.6223 41.5029 55.9795V78.0957Z" fill="#F16408"/>
<path d="M43.9052 98.873H36.2958V82.2559C36.2959 80.1547 37.9994 78.4512 40.1005 78.4512C42.2018 78.4512 43.9052 80.1547 43.9052 82.2559V98.873ZM45.9052 82.2559C45.9052 79.0502 43.3064 76.4512 40.1005 76.4512C36.8948 76.4512 34.2959 79.0501 34.2958 82.2559V99.873C34.2958 100.425 34.7436 100.873 35.2958 100.873H44.9052C45.4575 100.873 45.9052 100.425 45.9052 99.873V82.2559Z" fill="#F16408"/>
<path d="M39.1005 85.3096V99.873C39.1005 100.425 39.5482 100.873 40.1005 100.873C40.6528 100.873 41.1005 100.425 41.1005 99.873V85.3096C41.1005 84.7573 40.6528 84.3096 40.1005 84.3096C39.5482 84.3096 39.1005 84.7573 39.1005 85.3096Z" fill="#F16408"/>
<path d="M44.9052 86.3086L45.0078 86.3037C45.5119 86.2524 45.9052 85.8263 45.9052 85.3086C45.9052 84.7909 45.5119 84.3648 45.0078 84.3135L44.9052 84.3086H35.2958C34.7436 84.3086 34.2958 84.7563 34.2958 85.3086C34.2958 85.8609 34.7436 86.3086 35.2958 86.3086H44.9052Z" fill="#F16408"/>
<path d="M58.9999 66.082V78.0938C58.9999 78.646 59.4476 79.0938 59.9999 79.0938C60.5522 79.0938 60.9999 78.646 60.9999 78.0938V66.082C60.9999 65.5298 60.5522 65.082 59.9999 65.082C59.4476 65.082 58.9999 65.5298 58.9999 66.082Z" fill="#9BAFB8"/>
</svg>
