<svg width="120" height="120" viewBox="0 0 120 120" fill="none" xmlns="http://www.w3.org/2000/svg">
<rect x="0.5" y="0.5" width="119" height="119" fill="#EEF2F5"/>
<rect x="0.5" y="0.5" width="119" height="119" stroke="#E9E9E9"/>
<path d="M81.2656 60.1475C81.2656 64.5139 77.7258 68.0536 73.3594 68.0537H46.3633L34.2812 75.3271V68.0537H25.2266V33.1318C25.2268 28.7655 28.7665 25.2256 33.1328 25.2256H81.2656V60.1475ZM83.2656 23.2256H33.1328C27.6619 23.2256 23.2268 27.661 23.2266 33.1318V70.0537H32.2812V78.8652L46.9189 70.0537H73.3594C78.8304 70.0536 83.2656 65.6185 83.2656 60.1475V23.2256Z" fill="#9BAFB8"/>
<path d="M84.492 78.9609V76.9609H80.0389V78.9609H84.492Z" fill="#F16408"/>
<path d="M75.5858 78.9609V76.9609H71.1327V78.9609H75.5858Z" fill="#F16408"/>
<path d="M66.6796 78.9609V76.9609H62.2264V78.9609H66.6796Z" fill="#F16408"/>
<path d="M47.6406 61.1484V41.3359H39.0781L36.6015 61.1484H47.6406ZM40.8437 43.3359H45.6406V59.1484H38.8671L40.8437 43.3359Z" fill="#F16408"/>
<path d="M50.0937 37.8828C50.0937 39.7898 48.5476 41.3359 46.6406 41.3359V43.3359C49.6522 43.3359 52.0937 40.8944 52.0937 37.8828V34.4297H55.5468C57.4538 34.4297 58.9999 35.9758 58.9999 37.8828V43.3359H67.9062V55.6953C67.9062 57.6023 66.3601 59.1484 64.4531 59.1484H46.6406V61.1484H64.4531C67.4646 61.1484 69.9062 58.7069 69.9062 55.6953V41.3359H60.9999V37.8828C60.9999 34.8713 58.5584 32.4297 55.5468 32.4297H50.0937V37.8828Z" fill="#F16408"/>
<path d="M50.0937 82.415C50.0939 85.4265 52.5353 87.8682 55.5468 87.8682H75.2968L87.7187 95.7461V87.8682H96.7733V60.1494C96.7733 57.1379 94.3318 54.6964 91.3202 54.6963H82.2655V56.6963H91.3202C93.2272 56.6964 94.7733 58.2424 94.7733 60.1494V85.8682H85.7187V92.1104L75.8759 85.8682H55.5468C53.6399 85.8682 52.0939 84.3219 52.0937 82.415V69.0557H50.0937V82.415Z" fill="#9BAFB8"/>
</svg>
