<svg width="120" height="120" viewBox="0 0 120 120" fill="none" xmlns="http://www.w3.org/2000/svg">
<rect x="0.5" y="0.5" width="119" height="119" fill="#EEF2F5"/>
<rect x="0.5" y="0.5" width="119" height="119" stroke="#E9E9E9"/>
<path d="M82.2117 25.0234L94.6228 37.4346V94.8242H44.2683V83.1465H46.2683V92.8242H92.6228V38.2627L81.3835 27.0234H46.2683V50.8457H44.2683V25.0234H82.2117Z" fill="#9BAFB8"/>
<path d="M83.792 49.8467V84.1475H25.3779V49.8467H83.792ZM27.3779 82.1475H81.792V51.8467H27.3779V82.1475ZM80.5566 26V39.0908H93.623V41.0908H78.5566V26H80.5566Z" fill="#9BAFB8"/>
<path d="M42.2131 65.6143C42.2131 62.5181 39.7029 60.0078 36.6067 60.0078H35.4319V74.4229H36.6067C39.7027 74.4229 42.2129 71.9133 42.2131 68.8174V65.6143ZM51.6731 57.4062V72.5703L54.9905 66L58.3079 72.5703V57.4062H60.3079V76.2822H57.9417L54.9905 70.4365L52.0393 76.2822H49.6731V57.4062H51.6731ZM75.4973 67.7314V75.708H71.9573C68.5824 75.708 65.846 72.9725 65.8459 69.5977V64.4004C65.8459 61.0255 68.5824 58.2891 71.9573 58.2891H76.2708V60.2891H71.9573C69.687 60.2891 67.8459 62.1301 67.8459 64.4004V69.5977C67.846 71.8679 69.687 73.708 71.9573 73.708H73.4973V67.7314H75.4973ZM44.2131 68.8174C44.2129 73.0179 40.8073 76.4229 36.6067 76.4229H33.4319V58.0078H36.6067C40.8074 58.0078 44.2131 61.4135 44.2131 65.6143V68.8174Z" fill="#F16408"/>
</svg>
