<svg width="120" height="121" viewBox="0 0 120 121" fill="none" xmlns="http://www.w3.org/2000/svg">
<rect x="0.5" y="1" width="119" height="119" fill="#EEF2F5"/>
<rect x="0.5" y="1" width="119" height="119" stroke="#E9E9E9"/>
<path d="M73.8528 67.8535C74.4216 67.8535 74.9799 68.0067 75.4691 68.2969L88.2161 75.8623L88.347 75.9551C88.4696 76.0576 88.5671 76.188 88.6292 76.3369L96.8343 96.0205C96.9999 96.4183 96.8921 96.8776 96.5667 97.1602C96.2413 97.4427 95.7714 97.4846 95.4007 97.2646L78.8587 87.4473C78.6784 87.3402 78.4717 87.2842 78.262 87.2842C78.0524 87.2843 77.8466 87.3403 77.6663 87.4473L61.6165 96.9727C61.1274 97.2629 60.5691 97.416 60.0003 97.416C59.4314 97.416 58.8724 97.263 58.3831 96.9727L42.3333 87.4473C42.153 87.3404 41.9472 87.2842 41.7376 87.2842C41.528 87.2842 41.3222 87.3403 41.1419 87.4473L24.5999 97.2646C24.2294 97.4846 23.7593 97.4425 23.4339 97.1602C23.1085 96.8776 23.0006 96.4183 23.1663 96.0205L31.3714 76.3369L31.4446 76.1943C31.5289 76.0587 31.6449 75.9446 31.7835 75.8623L44.5306 68.2969C45.0197 68.0066 45.578 67.8536 46.1468 67.8535C46.7157 67.8535 47.2747 68.0065 47.764 68.2969L55.2767 72.7559C55.7513 73.0378 55.9079 73.6512 55.6263 74.126C55.3444 74.6009 54.7301 74.7575 54.2552 74.4756L46.7425 70.0166C46.5623 69.9098 46.3563 69.8535 46.1468 69.8535C45.9372 69.8536 45.7313 69.9097 45.5511 70.0166L33.0882 77.4131L26.1722 94.0049L40.1214 85.7275C40.6106 85.4373 41.1688 85.2842 41.7376 85.2842C42.3066 85.2842 42.8655 85.4372 43.3548 85.7275L59.0003 95.0127V79.9863C59.0005 79.4342 59.4481 78.9863 60.0003 78.9863C60.5523 78.9865 61.0001 79.4343 61.0003 79.9863V95.0127L76.6458 85.7275C77.135 85.4373 77.6932 85.2843 78.262 85.2842C78.831 85.2842 79.3899 85.4372 79.8792 85.7275L93.8265 94.0049L86.9095 77.4121L74.4486 70.0166C74.2683 69.9097 74.0624 69.8535 73.8528 69.8535C73.6433 69.8535 73.4374 69.9097 73.2571 70.0166L65.7444 74.4756L65.6536 74.5234C65.1939 74.7366 64.6386 74.5711 64.3743 74.126C64.0925 73.651 64.249 73.0377 64.7239 72.7559L72.2366 68.2969C72.7258 68.0067 73.2841 67.8535 73.8528 67.8535Z" fill="#9BAFB8"/>
<path d="M73 44.5C73 37.3203 67.1797 31.5 60 31.5C52.8203 31.5 47 37.3203 47 44.5C47 51.6797 52.8203 57.5 60 57.5C67.1797 57.5 73 51.6797 73 44.5ZM75 44.5C75 52.7843 68.2843 59.5 60 59.5C51.7157 59.5 45 52.7843 45 44.5C45 36.2157 51.7157 29.5 60 29.5C68.2843 29.5 75 36.2157 75 44.5Z" fill="#F16408"/>
<path d="M42.3517 79.4272C42.4873 78.8921 43.0304 78.5684 43.5656 78.7036C44.1009 78.839 44.4254 79.3822 44.2902 79.9175L42.6174 86.5317C42.4819 87.0671 41.9379 87.3916 41.4025 87.2563C40.8672 87.1209 40.5426 86.5768 40.6779 86.0415L42.3517 79.4272ZM73.6974 67.8862C74.2329 67.7508 74.7768 68.0754 74.9123 68.6108L79.3215 86.0415L79.342 86.1421C79.4157 86.6433 79.0996 87.1294 78.5978 87.2563C78.0958 87.3833 77.5865 87.1058 77.4133 86.6294L77.383 86.5317L72.9738 69.1011L72.9533 69.0005C72.8795 68.4992 73.1957 68.0132 73.6974 67.8862ZM45.0881 68.6108C45.2235 68.0756 45.7666 67.7511 46.3019 67.8862C46.8373 68.0217 47.1619 68.5657 47.0265 69.1011L45.3791 75.6118C45.2435 76.147 44.7005 76.4707 44.1652 76.3354C43.6299 76.2 43.3054 75.6569 43.4406 75.1216L45.0881 68.6108Z" fill="#9BAFB8"/>
<path d="M59.9997 23.584C76.5439 23.584 86.5806 41.8381 77.7175 55.8076L62.6746 79.5156C61.4304 81.4763 58.569 81.4765 57.3249 79.5156L42.283 55.8076C37.1072 47.6502 38.3842 38.0314 43.6169 31.4512L43.6843 31.374C44.0383 31.0113 44.617 30.9688 45.0222 31.291C45.4542 31.6348 45.526 32.2641 45.1824 32.6963L44.7478 33.2637C40.3663 39.2115 39.4388 47.5912 43.9714 54.7354L59.0144 78.4443C59.4729 79.167 60.5274 79.1672 60.9861 78.4443L76.029 54.7354C84.0468 42.0974 74.9668 25.584 59.9997 25.584C55.3334 25.584 51.2519 27.185 48.0769 29.7656C47.6483 30.1139 47.018 30.0487 46.6697 29.6201C46.3214 29.1915 46.3866 28.5612 46.8152 28.2129C50.3347 25.3523 54.8588 23.584 59.9997 23.584Z" fill="#F16408"/>
</svg>
