<svg width="65" height="65" viewBox="0 0 65 65" fill="none" xmlns="http://www.w3.org/2000/svg">
<rect width="65" height="65" rx="32.5" fill="#F16408"/>
<path d="M29.4302 29.354H31.7715C32.3639 29.354 32.8538 29.2173 33.2412 28.9438C33.6286 28.659 33.9134 28.2603 34.0957 27.7476C34.278 27.2235 34.3691 26.6139 34.3691 25.9189C34.3691 25.3037 34.2837 24.7625 34.1128 24.2954C33.9419 23.8169 33.6799 23.4409 33.3267 23.1675C32.9735 22.8826 32.5291 22.7402 31.9937 22.7402C31.5835 22.7402 31.1961 22.8542 30.8315 23.082C30.4784 23.2985 30.1992 23.6175 29.9941 24.0391C29.7891 24.4606 29.6865 24.9619 29.6865 25.543H24.8843C24.8843 24.1758 25.1919 22.9852 25.8071 21.9712C26.4338 20.9572 27.2769 20.1711 28.3364 19.6128C29.396 19.0431 30.5695 18.7583 31.8569 18.7583C33.3039 18.7583 34.5742 19.026 35.668 19.5615C36.7617 20.097 37.6162 20.8945 38.2314 21.9541C38.8467 23.0023 39.1543 24.3011 39.1543 25.8506C39.1543 26.6481 39.0062 27.4172 38.71 28.1577C38.4137 28.8869 37.9808 29.5477 37.4111 30.1401C36.8415 30.7326 36.1465 31.1997 35.3262 31.5415C34.5059 31.8833 33.5773 32.0542 32.5405 32.0542H29.4302V29.354ZM29.4302 33.2334V30.6187H32.5405C33.714 30.6187 34.7337 30.7725 35.5996 31.0801C36.4655 31.3763 37.1833 31.8092 37.7529 32.3789C38.334 32.9486 38.7669 33.6265 39.0518 34.4126C39.3366 35.1873 39.479 36.0532 39.479 37.0103C39.479 38.1724 39.2853 39.2091 38.8979 40.1206C38.5106 41.0321 37.9694 41.8011 37.2744 42.4277C36.5794 43.0544 35.7705 43.5329 34.8477 43.8633C33.9248 44.1823 32.9222 44.3418 31.8398 44.3418C30.9398 44.3418 30.0568 44.1994 29.1909 43.9146C28.3364 43.6297 27.5674 43.1911 26.8838 42.5986C26.2002 42.0062 25.659 41.2599 25.2603 40.3599C24.8615 39.4598 24.6621 38.3945 24.6621 37.1641H29.4473C29.4473 37.7793 29.5555 38.3319 29.772 38.8218C29.9998 39.3003 30.3018 39.6763 30.6777 39.9497C31.0537 40.2231 31.481 40.3599 31.9595 40.3599C32.5177 40.3599 33.002 40.2174 33.4121 39.9326C33.8223 39.6478 34.1356 39.249 34.3521 38.7363C34.5685 38.2236 34.6768 37.6312 34.6768 36.959C34.6768 36.0703 34.5628 35.3582 34.335 34.8228C34.1071 34.2759 33.7767 33.8771 33.3438 33.6265C32.9108 33.3644 32.3867 33.2334 31.7715 33.2334H29.4302Z" fill="white"/>
</svg>
