<svg width="65" height="65" viewBox="0 0 65 65" fill="none" xmlns="http://www.w3.org/2000/svg">
<rect width="65" height="65" rx="32.5" fill="white"/>
<path d="M39.7866 40.0181V44H25.1235V40.5991L31.8569 32.0371C32.5063 31.1484 33.0133 30.3623 33.3779 29.6787C33.7425 28.9951 34.0046 28.3856 34.1641 27.8501C34.3236 27.3032 34.4033 26.7848 34.4033 26.2949C34.4033 25.5658 34.3179 24.9391 34.147 24.415C33.9761 23.8796 33.7197 23.4694 33.3779 23.1846C33.0475 22.8883 32.6374 22.7402 32.1475 22.7402C31.555 22.7402 31.0651 22.9225 30.6777 23.2871C30.2904 23.6517 29.9998 24.153 29.8062 24.791C29.6239 25.4176 29.5327 26.1297 29.5327 26.9272H24.7305C24.7305 25.4461 25.0324 24.0846 25.6362 22.8428C26.2515 21.5895 27.1117 20.5983 28.2168 19.8691C29.3333 19.1286 30.672 18.7583 32.2329 18.7583C33.7482 18.7583 35.0243 19.0431 36.061 19.6128C37.0978 20.1825 37.8783 20.9971 38.4023 22.0566C38.9378 23.1048 39.2056 24.3638 39.2056 25.8335C39.2056 26.6538 39.0973 27.457 38.8809 28.2432C38.6644 29.0179 38.3568 29.7926 37.958 30.5674C37.5592 31.3307 37.0636 32.1112 36.4712 32.9087C35.8901 33.7062 35.2407 34.5322 34.5229 35.3867L31.2759 40.0181H39.7866Z" fill="black"/>
</svg>
