<svg width="40" height="40" viewBox="0 0 40 40" fill="none" xmlns="http://www.w3.org/2000/svg">
<path d="M20.1524 6.42999C20.303 6.45665 20.4451 6.52245 20.5645 6.6214L34.5762 18.262C34.669 18.3375 34.7456 18.4311 34.8028 18.5364C34.8603 18.6424 34.8965 18.7592 34.9102 18.8792C34.9238 18.9994 34.914 19.122 34.8819 19.2386C34.8497 19.3551 34.7954 19.4643 34.7217 19.5599C34.648 19.6555 34.5561 19.7358 34.4512 19.7952C34.3465 19.8545 34.231 19.8917 34.1114 19.9046C33.9918 19.9174 33.8708 19.9054 33.7559 19.8694C33.6411 19.8334 33.534 19.775 33.4424 19.6966L32.1075 18.5872L32.1065 34.7435C32.0682 35.5288 31.733 36.2689 31.17 36.8011C30.6091 37.3312 29.8677 37.6109 29.1065 37.5794L22.5948 37.5804C22.3534 37.5803 22.1228 37.4811 21.9551 37.3069C21.7879 37.1331 21.6954 36.8984 21.6954 36.6566C21.6955 36.4149 21.788 36.1809 21.9551 36.0071C22.1228 35.833 22.3534 35.7328 22.5948 35.7327H29.1172L29.128 35.7337C29.4115 35.7581 29.6946 35.6667 29.9161 35.4759C30.1362 35.2861 30.2781 35.0128 30.3096 34.7132V17.0931L19.9991 8.52765L9.68952 17.0941V34.7112C9.7207 35.0112 9.86282 35.2849 10.0831 35.4749C10.3046 35.6658 10.5877 35.7581 10.8712 35.7337L10.8819 35.7327H17.4053C17.6466 35.7328 17.8763 35.8322 18.044 36.0062C18.2114 36.18 18.3037 36.4147 18.3038 36.6566C18.3037 36.8984 18.2113 37.1322 18.044 37.306C17.8763 37.4801 17.6467 37.5793 17.4053 37.5794H10.8926C10.1316 37.6107 9.39084 37.33 8.83014 36.8001C8.33752 36.3344 8.01852 35.7095 7.92096 35.0345L7.89264 34.7425L7.89166 34.7298L7.89264 18.5853L6.55573 19.6946L6.5567 19.6956C6.46511 19.774 6.35901 19.8334 6.2442 19.8694C6.12929 19.9054 6.00745 19.9175 5.88776 19.9046C5.76826 19.8917 5.65261 19.8536 5.54791 19.7943C5.44333 19.7349 5.35103 19.6553 5.27741 19.5599C5.20378 19.4643 5.1494 19.3541 5.11725 19.2376C5.0852 19.1212 5.07537 18.9992 5.08893 18.8792C5.10259 18.759 5.1397 18.6416 5.19733 18.5355C5.25489 18.4296 5.33236 18.3357 5.42584 18.2601L19.4346 6.6214L19.5606 6.53351C19.6935 6.45715 19.8451 6.41637 20.0001 6.41632L20.1524 6.42999Z" fill="#F16408"/>
<path d="M19.9988 1.08331C20.2105 1.08335 20.4163 1.15526 20.5818 1.28741L39.0329 16.0482L39.0349 16.0501L39.1032 16.1126C39.2532 16.2633 39.3478 16.4618 39.3699 16.6751C39.395 16.919 39.3239 17.1634 39.1706 17.3548C39.0173 17.5461 38.794 17.6689 38.5505 17.6976C38.3071 17.7261 38.0623 17.6577 37.8689 17.5071L37.8659 17.5052L19.9988 3.21124L2.13352 17.5023L2.1345 17.5032C2.03916 17.5818 1.92851 17.6404 1.81028 17.6761C1.69195 17.7118 1.56701 17.724 1.44407 17.7112C1.32123 17.6985 1.2019 17.661 1.09348 17.6019C0.985176 17.5427 0.889412 17.4628 0.812234 17.3665C0.735063 17.2701 0.67735 17.159 0.643289 17.0403C0.609275 16.9216 0.599599 16.7968 0.613992 16.6741C0.62844 16.5514 0.666606 16.4322 0.727273 16.3245C0.787431 16.2178 0.868208 16.1237 0.964578 16.0482L19.4158 1.28741L19.5466 1.19952C19.6841 1.12353 19.8399 1.08335 19.9988 1.08331Z" fill="#9BAFB8"/>
<path fill-rule="evenodd" clip-rule="evenodd" d="M26.1534 19.7503C26.3588 19.7503 26.5541 19.835 26.6964 19.9827C26.8383 20.1301 26.9161 20.3281 26.9161 20.5325V29.0521C26.916 29.2564 26.8382 29.4546 26.6964 29.6019C26.5542 29.7494 26.3587 29.8343 26.1534 29.8343H20.7697V36.8011C20.7696 37.0055 20.6908 37.2036 20.549 37.3509C20.4067 37.4984 20.2113 37.5833 20.006 37.5833C19.8009 37.5831 19.6061 37.4984 19.464 37.3509C19.3575 37.2403 19.2866 37.1013 19.2579 36.9525L19.2433 36.8011V29.8343H13.8458C13.6406 29.8342 13.445 29.7495 13.3029 29.6019C13.1611 29.4546 13.0832 29.2564 13.0831 29.0521V20.5325C13.0832 20.3283 13.1612 20.13 13.3029 19.9827C13.445 19.8351 13.6405 19.7504 13.8458 19.7503H26.1534ZM14.6085 28.2698H17.1857V25.5745H14.6085V28.2698ZM18.7111 28.2698H21.2882V25.5745H18.7111V28.2698ZM22.8136 28.2698H25.3907V25.5745H22.8136V28.2698ZM14.6085 24.0101H17.1857V21.3148H14.6085V24.0101ZM18.7111 24.0101H21.2882V21.3148H18.7111V24.0101ZM22.8136 24.0101H25.3907V21.3148H22.8136V24.0101Z" fill="#9BAFB8"/>
</svg>
