<svg width="60" height="60" viewBox="0 0 60 60" fill="none" xmlns="http://www.w3.org/2000/svg">
<rect width="60" height="60" rx="30" fill="#F16408"/>
<path fill-rule="evenodd" clip-rule="evenodd" d="M27.6975 17.0825C28.3558 16.5704 29.166 16.2924 30 16.2924C30.834 16.2924 31.6442 16.5704 32.3025 17.0825L41.0525 23.8875C41.5032 24.2381 41.8679 24.687 42.1188 25.2C42.3696 25.7129 42.5 26.2764 42.5 26.8475V39.375C42.5 40.3695 42.1049 41.3234 41.4017 42.0266C40.6984 42.7299 39.7446 43.125 38.75 43.125H21.25C20.2554 43.125 19.3016 42.7299 18.5983 42.0266C17.8951 41.3234 17.5 40.3695 17.5 39.375V26.8475C17.5 26.2764 17.6304 25.7129 17.8812 25.2C18.1321 24.687 18.4968 24.2381 18.9475 23.8875L27.6975 17.0825ZM26.25 36.25H33.75V33.75H26.25V36.25Z" fill="white"/>
</svg>
