<svg width="40" height="40" viewBox="0 0 40 40" fill="none" xmlns="http://www.w3.org/2000/svg">
<rect width="40" height="40" rx="10" fill="#505050"/>
<path d="M10.1649 18.968C10.1649 18.968 18.5681 15.4557 21.4825 14.219C22.5997 13.7243 26.3884 12.1412 26.3884 12.1412C26.3884 12.1412 28.1371 11.4487 27.9914 13.1306C27.9428 13.8232 27.5542 16.2472 27.1656 18.8691C26.5827 22.5793 25.9513 26.6358 25.9513 26.6358C25.9513 26.6358 25.8541 27.7736 25.0284 27.9715C24.2026 28.1694 22.8425 27.279 22.5997 27.081C22.4054 26.9327 18.9567 24.7065 17.6938 23.6182C17.3537 23.3214 16.9652 22.7278 17.7423 22.0352C19.491 20.4027 21.5796 18.3744 22.8425 17.0882C23.4255 16.4946 24.0083 15.1094 21.5796 16.7914C18.1309 19.2154 14.7308 21.491 14.7308 21.491C14.7308 21.491 13.9536 21.9857 12.4964 21.5404C11.0391 21.0953 9.33905 20.5016 9.33905 20.5016C9.33905 20.5016 8.17336 19.7596 10.1649 18.968Z" fill="white"/>
</svg>
