<svg width="60" height="60" viewBox="0 0 60 60" fill="none" xmlns="http://www.w3.org/2000/svg">
<rect width="60" height="60" rx="30" fill="#F16408"/>
<rect width="60" height="60" rx="30" fill="#F16408"/>
<path d="M44.2713 28.2321L42.2252 26.1864C41.7396 25.7008 41.3417 24.7412 41.3417 24.053V21.1599C41.3417 19.7836 40.2174 18.6593 38.8415 18.6586H35.9472C35.2598 18.6586 34.2991 18.2599 33.8134 17.7747L31.7677 15.729C30.7957 14.757 29.2042 14.757 28.2322 15.729L26.1865 17.7762C25.7005 18.2618 24.7386 18.6593 24.0527 18.6593H21.1596C19.7852 18.6593 18.6594 19.7836 18.6594 21.1599V24.0531C18.6594 24.7386 18.2615 25.7012 17.7759 26.1865L15.7298 28.2322C14.7571 29.2042 14.7571 30.7957 15.7298 31.7693L17.7759 33.815C18.2618 34.3006 18.6594 35.2629 18.6594 35.9484V38.8416C18.6594 40.2164 19.7852 41.3422 21.1596 41.3422H24.0528C24.7402 41.3422 25.7009 41.74 26.1866 42.2253L28.2323 44.2718C29.2043 45.243 30.7958 45.243 31.7678 44.2718L33.8135 42.2253C34.2996 41.7397 35.2599 41.3422 35.9473 41.3422H38.8416C40.2175 41.3422 41.3418 40.2164 41.3418 38.8416V35.9484C41.3418 35.2599 41.74 34.3003 42.2253 33.815L44.2714 31.7693C45.2426 30.7957 45.2426 29.2042 44.2713 28.2321ZM28.0155 35.6254L22.4995 30.1087L24.2673 28.3413L28.0159 32.0899L35.7324 24.3752L37.4998 26.1426L28.0155 35.6254Z" fill="white"/>
</svg>
