<svg width="65" height="65" viewBox="0 0 65 65" fill="none" xmlns="http://www.w3.org/2000/svg">
<rect width="65" height="65" rx="32.5" fill="#F16408"/>
<g clip-path="url(#clip0_270_473)">
<path d="M38.4113 39.7887C38.5903 39.9617 38.7332 40.1686 38.8314 40.3974C38.9297 40.6261 38.9814 40.8722 38.9836 41.1211C38.9858 41.3701 38.9383 41.617 38.844 41.8474C38.7498 42.0778 38.6105 42.2872 38.4345 42.4632C38.2584 42.6393 38.0491 42.7785 37.8187 42.8728C37.5882 42.9671 37.3413 43.0145 37.0924 43.0123C36.8434 43.0102 36.5974 42.9585 36.3686 42.8602C36.1399 42.7619 35.933 42.6191 35.76 42.44L29.9675 36.6475C29.8514 36.5314 29.7137 36.4394 29.562 36.3766C29.4104 36.3138 29.2479 36.2814 29.0837 36.2814C28.9196 36.2814 28.7571 36.3138 28.6055 36.3766C28.4538 36.4394 28.3161 36.5314 28.2 36.6475C28.0839 36.7636 27.9919 36.9013 27.9291 37.053C27.8663 37.2046 27.8339 37.3671 27.8339 37.5312C27.8339 37.6954 27.8663 37.8579 27.9291 38.0095C27.9919 38.1612 28.0839 38.2989 28.2 38.415L33.4637 43.6788C33.6428 43.8517 33.7857 44.0586 33.8839 44.2874C33.9822 44.5161 34.0339 44.7622 34.0361 45.0111C34.0383 45.2601 33.9908 45.507 33.8965 45.7374C33.8023 45.9678 33.663 46.1772 33.487 46.3532C33.3109 46.5293 33.1016 46.6685 32.8712 46.7628C32.6407 46.8571 32.3938 46.9045 32.1449 46.9023C31.8959 46.9002 31.6499 46.8485 31.4211 46.7502C31.1924 46.6519 30.9855 46.5091 30.8125 46.33L24.9713 40.4888C21.2763 36.8838 17.5 32.0775 17.5 27.5C17.5 22.675 21.145 18.75 25.625 18.75C27.8413 18.75 29.5387 19.5775 30.8313 20.4963L26.2825 25.0063C25.455 25.8325 25 26.9325 25 28.1012C25 29.27 25.455 30.3687 26.28 31.1938C26.6853 31.6018 27.1676 31.9252 27.6989 32.1454C28.2302 32.3655 28.7999 32.478 29.375 32.4762C29.9075 32.4762 30.4213 32.37 30.9062 32.19L38.4125 39.79L38.4113 39.7887ZM35.5262 28.1562L32.9113 30.7537L40.5487 38.2763C40.9004 38.6278 41.3772 38.8252 41.8744 38.8252C42.3716 38.8252 42.8484 38.6278 43.2 38.2763C44.32 37.1562 43.3612 35.9163 43.3612 35.9163L35.5262 28.1562ZM39.3213 18.8225C37.2788 18.835 35.3387 19.7225 33.8438 21.115L28.0475 26.8725C27.8684 27.0455 27.7256 27.2524 27.6273 27.4811C27.529 27.7099 27.4773 27.9559 27.4752 28.2049C27.473 28.4538 27.5204 28.7007 27.6147 28.9312C27.709 29.1616 27.8482 29.3709 28.0243 29.547C28.2003 29.723 28.4097 29.8623 28.6401 29.9565C28.8705 30.0508 29.1174 30.0983 29.3664 30.0961C29.6153 30.0939 29.8614 30.0422 30.0901 29.9439C30.3189 29.8457 30.5258 29.7028 30.6987 29.5238L33.82 26.4237C34.2884 25.9585 34.9217 25.6974 35.5819 25.6974C36.242 25.6974 36.8754 25.9585 37.3438 26.4237L45.2487 34.2712C46.7375 31.8687 47.4975 29.6187 47.4975 27.5725C47.4975 22.7475 43.8 18.8225 39.32 18.8225H39.3213Z" fill="white"/>
</g>
<defs>
<clipPath id="clip0_270_473">
<rect width="30" height="30" fill="white" transform="translate(17.5 17.5)"/>
</clipPath>
</defs>
</svg>
