<svg width="65" height="65" viewBox="0 0 65 65" fill="none" xmlns="http://www.w3.org/2000/svg">
<rect width="65" height="65" rx="32.5" fill="#F16408"/>
<g clip-path="url(#clip0_270_471)">
<path d="M46.7675 37.6125L35.925 32.6825C35.8875 32.665 35.85 32.6513 35.8125 32.6375C34.9025 32.3275 33.915 32.5563 33.235 33.2363C32.555 33.9163 32.3263 34.9038 32.6825 35.925L37.6125 46.7688C37.7101 46.9838 37.8666 47.1667 38.064 47.2964C38.2613 47.426 38.4914 47.4971 38.7275 47.5013H38.7512C39.2237 47.5013 39.6575 47.2338 39.87 46.81L42.1838 42.1825L46.8112 39.8688C47.0225 39.7633 47.1995 39.6001 47.3219 39.3981C47.4442 39.1962 47.5069 38.9637 47.5025 38.7276C47.4982 38.4915 47.4271 38.2615 47.2975 38.0641C47.1678 37.8668 46.985 37.7102 46.77 37.6125H46.7675ZM33.64 44.9488C33.425 44.9675 33.2087 44.9813 32.99 44.99C32.155 44.1638 29.9775 41.8425 28.46 38.75H29.375C29.7065 38.75 30.0245 38.6183 30.2589 38.3839C30.4933 38.1495 30.625 37.8315 30.625 37.5C30.625 37.1685 30.4933 36.8505 30.2589 36.6161C30.0245 36.3817 29.7065 36.25 29.375 36.25H27.4625C27.0988 35.06 26.875 33.8 26.875 32.5C26.875 31.2 27.1 29.9413 27.465 28.75H37.5362C37.6837 29.2338 37.8088 29.7288 37.905 30.2338C37.967 30.5593 38.1558 30.8469 38.4298 31.0333C38.7039 31.2196 39.0407 31.2895 39.3662 31.2275C39.6918 31.1655 39.9794 30.9767 40.1658 30.7027C40.3521 30.4287 40.422 30.0918 40.36 29.7663C40.295 29.4251 40.2187 29.0861 40.1312 28.75H44.4225C44.9203 30.3286 45.0984 31.9906 44.9463 33.6388C44.9315 33.8022 44.9491 33.9671 44.998 34.1238C45.0469 34.2805 45.1262 34.426 45.2314 34.552C45.3365 34.6781 45.4655 34.7822 45.6109 34.8584C45.7563 34.9346 45.9153 34.9815 46.0788 34.9963C46.2422 35.011 46.407 34.9935 46.5638 34.9445C46.7205 34.8956 46.866 34.8163 46.9921 34.7111C47.2466 34.4988 47.4064 34.1939 47.4362 33.8638C47.4762 33.415 47.4975 32.96 47.4975 32.5013C47.5 24.2288 40.7712 17.5 32.5 17.5C24.2287 17.5 17.5 24.2288 17.5 32.5C17.5 40.7713 24.2287 47.5 32.4987 47.5C32.9575 47.5 33.4113 47.4788 33.8587 47.4388C34.1852 47.4048 34.4851 47.2439 34.6939 46.9907C34.9027 46.7375 35.0035 46.4123 34.9746 46.0854C34.9457 45.7586 34.7895 45.4561 34.5395 45.2435C34.2896 45.0308 33.9673 44.9249 33.64 44.9488ZM24.865 36.25H20.575C20.2013 35.065 20 33.805 20 32.4988C20 31.1925 20.2013 29.9325 20.575 28.7475H24.865C24.5588 29.9413 24.375 31.1963 24.375 32.4975C24.375 33.7988 24.5575 35.0538 24.865 36.2475V36.25ZM28.4662 26.25C29.7425 23.6538 31.485 21.595 32.5025 20.515C33.5212 21.5938 35.2638 23.6488 36.54 26.25H28.4662ZM43.3225 26.25H39.2875C38.2987 23.8925 36.9275 21.89 35.7475 20.4288C38.9408 21.2955 41.6629 23.3875 43.3225 26.25ZM29.25 20.43C28.07 21.8913 26.6975 23.8938 25.71 26.25H21.6775C23.3355 23.3874 26.0571 21.2956 29.25 20.43ZM21.6775 38.75H25.71C26.6975 41.1075 28.07 43.1088 29.25 44.57C26.0579 43.7028 23.3368 41.6115 21.6775 38.75Z" fill="white"/>
</g>
<defs>
<clipPath id="clip0_270_471">
<rect width="30" height="30" fill="white" transform="translate(17.5 17.5)"/>
</clipPath>
</defs>
</svg>
