<svg width="40" height="40" viewBox="0 0 40 40" fill="none" xmlns="http://www.w3.org/2000/svg">
<rect width="40" height="40" rx="10" fill="#505050"/>
<path d="M19.5001 12.8738C20.6192 12.8738 21.5293 13.7844 21.5293 14.9041C21.5293 16.0227 20.6192 16.9335 19.5001 16.9335C18.382 16.9335 17.4708 16.0227 17.4708 14.9041C17.4708 13.7844 18.382 12.8738 19.5001 12.8738ZM19.5001 19.8062C22.2035 19.8062 24.401 17.6075 24.401 14.9041C24.401 12.1996 22.2035 10 19.5001 10C16.7973 10 14.5991 12.1996 14.5991 14.9041C14.5991 17.6074 16.7973 19.8062 19.5001 19.8062ZM21.4829 23.8064C22.4807 23.579 23.4429 23.1841 24.329 22.627C24.9996 22.2042 25.2018 21.3171 24.7791 20.6461C24.357 19.9735 23.471 19.7713 22.7992 20.1942C20.7917 21.4576 18.2069 21.457 16.2006 20.1942C15.5287 19.7713 14.6427 19.9736 14.2211 20.6461C13.7984 21.3177 14 22.2042 14.6708 22.627C15.5567 23.1834 16.519 23.579 17.5167 23.8064L14.7766 26.5478C14.2164 27.1089 14.2164 28.0183 14.7772 28.5792C15.0578 28.8595 15.425 28.9999 15.7921 28.9999C16.1598 28.9999 16.5275 28.8596 16.8081 28.5792L19.4994 25.8853L22.1931 28.5792C22.7533 29.1403 23.6623 29.1403 24.2229 28.5792C24.7842 28.0183 24.7842 27.1082 24.2229 26.5478C24.223 26.5478 21.4829 23.8064 21.4829 23.8064Z" fill="white"/>
</svg>
