<svg width="30" height="30" viewBox="0 0 30 30" fill="none" xmlns="http://www.w3.org/2000/svg">
<path d="M25.8981 12.3292C25.6667 12.3641 25.4587 12.4894 25.3197 12.6776C25.1807 12.8658 25.1221 13.1016 25.1569 13.333C26.2133 20.0773 20.7997 26.3745 13.9624 26.3152C-1.04735 25.6942 -1.04611 4.30475 13.9624 3.68463C16.4873 3.68463 18.8753 4.49798 20.8682 6.03663C21.0534 6.17966 21.2879 6.24324 21.52 6.21339C21.7522 6.18354 21.9629 6.0627 22.1059 5.87745C22.249 5.69221 22.3126 5.45773 22.2827 5.2256C22.2529 4.99348 22.132 4.78272 21.9468 4.63969C19.6421 2.86033 16.8812 1.91992 13.9624 1.91992C-3.38753 2.63692 -3.38735 27.3633 13.9624 28.0799C21.8661 28.1479 28.1257 20.8679 26.9017 13.0702C26.8846 12.9556 26.845 12.8455 26.7853 12.7461C26.7256 12.6468 26.6468 12.5603 26.5536 12.4914C26.4603 12.4226 26.3544 12.3728 26.2419 12.3449C26.1294 12.3171 26.0125 12.3117 25.8979 12.329L25.8981 12.3292Z" fill="#9BAFB8"/>
<path d="M28.8579 4.10726C28.7758 4.02548 28.6784 3.96067 28.5712 3.91654C28.4641 3.87241 28.3493 3.84984 28.2334 3.8501C28.1175 3.85036 28.0028 3.87346 27.8958 3.91807C27.7889 3.96268 27.6918 4.02793 27.6101 4.11009L14.0234 17.7559L9.53929 13.2513C9.37308 13.0909 9.15063 13.0021 8.91969 13.0039C8.68874 13.0057 8.4677 13.0979 8.304 13.2609C8.14029 13.4238 8.04698 13.6444 8.04408 13.8753C8.04117 14.1062 8.12891 14.3291 8.28847 14.4961L13.398 19.6289C13.48 19.7113 13.5774 19.7767 13.6847 19.8213C13.792 19.8659 13.9071 19.8888 14.0233 19.8888C14.1395 19.8888 14.2546 19.8659 14.3619 19.8213C14.4692 19.7767 14.5667 19.7113 14.6486 19.6289L28.8605 5.35509C29.0256 5.18927 29.118 4.96468 29.1175 4.73072C29.117 4.49675 29.0236 4.27238 28.8579 4.10726Z" fill="#F16408"/>
</svg>
