<svg width="40" height="40" viewBox="0 0 40 40" fill="none" xmlns="http://www.w3.org/2000/svg">
<rect width="40" height="40" rx="10" fill="#505050"/>
<path d="M26.7461 24.1348C28.0512 24.1349 28.8183 25.0535 28.8184 26.1006V26.915H26.0117V27.0723C26.0118 27.5242 26.2838 27.7573 26.7422 27.793C27.4666 27.8496 27.8837 27.3534 27.8965 27.3379L28.8506 27.9717C28.8469 27.9777 28.215 29 26.7442 29C25.4392 28.9999 24.6719 28.0811 24.6719 27.0332V26.0547C24.6719 25.0074 25.4412 24.1348 26.7461 24.1348ZM13.96 24.1934H15.0137V25.4639H13.96V28.9258H12.5059V25.4639H11.9395V24.1934H12.5059V22.8457L13.96 22.6582V24.1934ZM16.8067 26.9033C16.8068 27.3491 16.9729 27.6503 17.4268 27.6504H17.4492C17.9037 27.6504 18.0692 27.3492 18.0694 26.9033V24.1953H19.5078V27.0059C19.5078 28.0659 19.0649 28.9258 17.5528 28.9258H17.2774C15.8416 28.9258 15.3692 28.0659 15.3692 27.0059V24.1953H16.8067V26.9033ZM21.6377 24.1914H22.4073C23.4836 24.1914 24.3555 25.0586 24.3555 26.1279V27.0352C24.3555 28.1044 23.4836 28.9258 22.4073 28.9258H20.2168V22.8457L21.6377 22.6582V24.1914ZM21.6426 27.6318H22.2041C22.6571 27.6318 22.9629 27.3644 22.9629 26.9141V26.2041C22.9629 25.7539 22.6571 25.4863 22.2041 25.4863H21.6426V27.6318ZM26.7119 25.1133C26.2933 25.1256 26.0117 25.3917 26.0117 25.833V25.874H27.4785V25.834C27.4785 25.382 27.184 25.1133 26.7481 25.1133H26.7119ZM17.6758 11.0205C19.554 11.0206 21.0771 12.411 21.0772 14.3027V14.7715C21.0772 15.8489 20.5811 16.7076 19.8086 17.335L22.1221 21.6357H19.1524L17.4522 18.0332H14.8438V21.6357L12.3067 21.6162L12.3037 11L17.6758 11.0205ZM24.3955 18.1357C24.3955 18.9075 24.6576 19.4297 25.376 19.4297H25.4112C26.13 19.4297 26.3916 18.9075 26.3916 18.1357V13.4531H28.666V18.3145C28.666 20.1479 27.966 21.6347 25.5752 21.6348H25.1387C22.8681 21.6348 22.1211 20.148 22.1211 18.3145V13.4531H24.3955V18.1357ZM14.8448 15.8242H17.1299C17.878 15.824 18.4844 15.3958 18.4844 14.6426V14.5576C18.4844 13.8042 17.878 13.2746 17.1299 13.2744H14.8448V15.8242Z" fill="white"/>
</svg>
