<svg width="60" height="60" viewBox="0 0 60 60" fill="none" xmlns="http://www.w3.org/2000/svg">
<rect width="60" height="60" rx="30" fill="#F16408"/>
<path d="M38.7501 22.5001C38.7501 22.8316 38.6184 23.1495 38.3839 23.3839C38.1495 23.6184 37.8316 23.7501 37.5001 23.7501H22.5001C22.1685 23.7501 21.8506 23.6184 21.6162 23.3839C21.3818 23.1495 21.2501 22.8316 21.2501 22.5001C21.2501 22.1685 21.3818 21.8506 21.6162 21.6162C21.8506 21.3818 22.1685 21.2501 22.5001 21.2501H22.5288C22.6771 19.6502 23.3802 18.1525 24.5163 17.0163C25.6525 15.8802 27.1502 15.1771 28.7501 15.0288V18.7501C28.7501 19.0816 28.8818 19.3995 29.1162 19.6339C29.3506 19.8684 29.6685 20.0001 30.0001 20.0001C30.3316 20.0001 30.6495 19.8684 30.8839 19.6339C31.1184 19.3995 31.2501 19.0816 31.2501 18.7501V15.0288C32.8499 15.1773 34.3474 15.8805 35.4835 17.0166C36.6196 18.1527 37.3228 19.6503 37.4713 21.2501H37.5001C37.8316 21.2501 38.1495 21.3818 38.3839 21.6162C38.6184 21.8506 38.7501 22.1685 38.7501 22.5001ZM22.5026 26.4326C22.6001 30.4838 25.9251 33.7501 30.0001 33.7501C34.0751 33.7501 37.4001 30.4838 37.4976 26.4326L37.5001 26.2501H22.5001L22.5026 26.4326ZM41.2401 43.5951C40.7213 39.0388 35.8938 35.0001 30.0001 35.0001C24.1063 35.0001 19.2788 39.0388 18.7601 43.5951C18.7379 43.771 18.7534 43.9497 18.8057 44.1192C18.8579 44.2887 18.9457 44.4452 19.0631 44.5781C19.1806 44.711 19.325 44.8174 19.4868 44.8902C19.6485 44.9629 19.8239 45.0004 20.0013 45.0001H40.0013C40.1786 45.0002 40.3539 44.9626 40.5156 44.8898C40.6773 44.8169 40.8216 44.7105 40.939 44.5777C41.0564 44.4448 41.1442 44.2884 41.1965 44.119C41.2488 43.9496 41.2645 43.771 41.2426 43.5951H41.2401Z" fill="white"/>
</svg>
