<svg width="40" height="40" viewBox="0 0 40 40" fill="none" xmlns="http://www.w3.org/2000/svg">
<rect width="40" height="40" rx="10" fill="#505050"/>
<path fill-rule="evenodd" clip-rule="evenodd" d="M27.8142 13.4168C28.6764 13.6491 29.3541 14.3268 29.5832 15.1859C30 16.745 30 20 30 20C30 20 30 23.255 29.5832 24.8141C29.3509 25.6764 28.6732 26.3541 27.8142 26.5832C26.2552 27 20 27 20 27C20 27 13.748 27 12.1858 26.5832C11.3236 26.3509 10.6459 25.6732 10.4168 24.8141C10 23.255 10 20 10 20C10 20 10 16.745 10.4168 15.1859C10.6491 14.3236 11.3268 13.6459 12.1858 13.4168C13.748 13 20 13 20 13C20 13 26.2552 13 27.8142 13.4168ZM23.1976 20L18.0019 23.0005V16.9995L23.1976 20Z" fill="white"/>
</svg>
