<svg width="40" height="40" viewBox="0 0 40 40" fill="none" xmlns="http://www.w3.org/2000/svg">
<path d="M37.417 16.9795L37.501 16.9883C37.6942 17.0173 37.8733 17.11 38.0088 17.2529C38.1637 17.4164 38.25 17.6332 38.25 17.8584V23.2998L38.2461 23.3838C38.2276 23.5787 38.1447 23.763 38.0088 23.9062C37.8777 24.0444 37.7054 24.1341 37.5195 24.166L37.5117 24.1748L37.415 24.1797L34.1816 24.3467C33.8722 25.4603 33.428 26.5314 32.8584 27.5371L35.0244 29.9346L35.0781 30C35.1949 30.1571 35.256 30.3496 35.251 30.5469C35.2452 30.7723 35.1526 30.9861 34.9932 31.1455L34.9941 31.1465L31.1455 34.9941C30.986 35.1536 30.7713 35.2462 30.5459 35.252C30.3487 35.257 30.1561 35.1957 29.999 35.0791L29.9336 35.0254L27.5361 32.8594C26.5304 33.4289 25.4593 33.8732 24.3457 34.1826L24.1787 37.416C24.167 37.6412 24.0688 37.8536 23.9053 38.0088C23.7623 38.1444 23.5784 38.2274 23.3838 38.2461L23.2998 38.25H17.8584C17.6332 38.2501 17.4164 38.1636 17.2529 38.0088C17.1099 37.8732 17.0163 37.6942 16.9873 37.501L16.9795 37.417L16.834 34.6768L16.8213 34.4297L17.0684 34.4141L17.6973 34.375H18.5801L18.6924 36.4912H22.4648L22.623 33.4453L22.6416 33.3047C22.6718 33.1656 22.7356 33.0348 22.8281 32.9248C22.9513 32.7784 23.1191 32.6764 23.3057 32.6338L23.8174 32.5059C25.0031 32.1827 26.1348 31.6842 27.1758 31.0273L27.3027 30.9619C27.4341 30.9063 27.5781 30.8831 27.7217 30.8955C27.9127 30.9121 28.0931 30.9906 28.2354 31.1191L30.4932 33.1582L33.1572 30.4941L31.1182 28.2363C30.8546 27.9438 30.8169 27.5105 31.0273 27.1768L31.2988 26.7256C31.91 25.6593 32.3598 24.5069 32.6328 23.3066L32.6758 23.1709C32.7293 23.0392 32.814 22.9215 32.9238 22.8291C33.0703 22.706 33.2533 22.634 33.4443 22.624L36.4902 22.4648V18.6934L34.5898 18.5928C34.116 18.5673 33.7418 18.1697 33.7539 17.6914L33.7598 17.6064C33.7836 17.4092 33.8744 17.2252 34.0176 17.085C34.1812 16.9248 34.4009 16.8344 34.6299 16.834H34.6504L37.417 16.9795Z" fill="#9BAFB8"/>
<path d="M22.2256 1.75391C22.4203 1.77242 22.6039 1.85565 22.7471 1.99121C22.9106 2.14619 23.0085 2.35806 23.0205 2.58301L23.166 5.32324L23.1787 5.57031L22.9316 5.58594L22.3027 5.625H21.4199L21.3076 3.50879H17.5352L17.377 6.55469C17.367 6.74578 17.295 6.92872 17.1719 7.0752C17.0794 7.18507 16.9618 7.26964 16.8301 7.32324L16.6943 7.36621C15.3226 7.67817 14.0139 8.22191 12.8242 8.97266L12.8232 8.97168C12.661 9.07423 12.4696 9.12101 12.2783 9.10449C12.135 9.09204 11.9976 9.04502 11.8779 8.96777L11.7646 8.88086L9.50586 6.84082L6.8418 9.50488L8.88184 11.7637L8.96875 11.877C9.0458 11.9967 9.09303 12.1341 9.10547 12.2773C9.12197 12.4683 9.07567 12.66 8.97363 12.8223L8.97266 12.8232C8.31586 13.8641 7.81827 14.9961 7.49512 16.1816L7.36719 16.6934C7.32465 16.8799 7.2226 17.0477 7.07617 17.1709C6.92955 17.2942 6.746 17.3652 6.55469 17.375L6.55566 17.376L3.50977 17.5342V21.3057L5.41016 21.4072L5.49512 21.416C5.69185 21.4457 5.8742 21.5415 6.01074 21.6885C6.16658 21.8565 6.25092 22.0785 6.24609 22.3076V22.3096C6.23288 22.7842 5.84783 23.166 5.36914 23.166H5.34961L2.58301 23.0205C2.3581 23.0085 2.14619 22.9105 1.99121 22.7471C1.85566 22.6041 1.77257 22.4201 1.75391 22.2256L1.75 22.1416V16.7002C1.74972 16.4746 1.83594 16.2574 1.99121 16.0938C2.1226 15.9553 2.2951 15.8648 2.48145 15.833L2.48926 15.8252L5.81738 15.6523C6.12681 14.5388 6.57109 13.4676 7.14063 12.4619L4.97559 10.0654C4.82422 9.89808 4.74329 9.6787 4.74902 9.45312C4.75477 9.22772 4.8464 9.01291 5.00586 8.85352L8.85449 5.00586L8.91699 4.94922C9.06802 4.8247 9.25682 4.75306 9.4541 4.74805C9.67954 4.74232 9.89901 4.8235 10.0664 4.97461L12.4629 7.13965C13.4685 6.57016 14.5398 6.12581 15.6533 5.81641L15.8213 2.58398L15.8301 2.5C15.8589 2.30656 15.9517 2.12694 16.0947 1.99121C16.2582 1.83625 16.475 1.75 16.7002 1.75H22.1416L22.2256 1.75391Z" fill="#9BAFB8"/>
<path fill-rule="evenodd" clip-rule="evenodd" d="M27.5784 3.90432C28.9441 3.61719 30.3644 3.73241 31.6653 4.23732C31.7909 4.28601 31.9024 4.36605 31.9896 4.46877C32.0763 4.57122 32.1368 4.69381 32.1644 4.82522L32.179 4.92482C32.1875 5.02503 32.1765 5.12669 32.1478 5.22365C32.119 5.32043 32.0727 5.41102 32.011 5.49025L31.9446 5.56545L28.1448 9.36525L30.6351 11.8555L34.4349 8.05568L34.5101 7.98928C34.5893 7.92764 34.6798 7.88035 34.7767 7.85158C34.9056 7.81336 35.0425 7.80825 35.1741 7.83596C35.3058 7.86374 35.429 7.9237 35.5315 8.01076C35.6341 8.09788 35.7133 8.20955 35.762 8.33498L35.8519 8.5801C36.2799 9.81317 36.3653 11.1414 36.096 12.4219C35.8088 13.7874 35.131 15.0402 34.1448 16.0274L34.1439 16.0283C33.2838 16.8864 32.2203 17.5127 31.053 17.8496C29.9304 18.1736 28.7469 18.2167 27.6038 17.9815L17.9837 27.6016C18.2382 28.8331 18.1665 30.1107 17.7728 31.3067C17.3646 32.5464 16.6264 33.6515 15.638 34.5039C14.6496 35.3563 13.4477 35.924 12.1614 36.1455C10.8751 36.367 9.55192 36.2345 8.33526 35.7617C8.20998 35.7131 8.09811 35.6336 8.01104 35.5313C7.92383 35.4287 7.86402 35.3056 7.83623 35.1738C7.80847 35.0419 7.81336 34.9046 7.85186 34.7754C7.8807 34.6788 7.92796 34.5889 7.98955 34.5098L8.05596 34.4336L11.8558 30.6348L9.36553 28.1446L5.56573 31.9444C5.47059 32.0393 5.35279 32.1091 5.22393 32.1475C5.09496 32.1858 4.95812 32.1917 4.82647 32.1641C4.69475 32.1364 4.57169 32.0754 4.46905 31.9883C4.39219 31.923 4.32821 31.8441 4.28057 31.7559L4.23858 31.6641C3.73346 30.3632 3.61748 28.9438 3.90459 27.5781C4.19181 26.2124 4.86941 24.959 5.85577 23.9717L6.18877 23.6602C6.98547 22.9604 7.92899 22.4432 8.95147 22.1485C10.0745 21.8249 11.2583 21.7824 12.4017 22.0176L22.0179 12.4014C21.7824 11.2577 21.8259 10.0736 22.1497 8.95022C22.4866 7.78167 23.1133 6.71667 23.972 5.85549L24.1605 5.67385C25.1167 4.78585 26.2982 4.17355 27.5784 3.90432ZM29.7981 5.41994C29.0292 5.31737 28.2454 5.37469 27.4974 5.59279C26.5985 5.85495 25.7793 6.33863 25.1165 7.00002L25.1175 7.001C24.4202 7.70052 23.92 8.57203 23.6692 9.52736C23.4185 10.4825 23.4262 11.4869 23.6897 12.4385L23.7112 12.544C23.7261 12.6498 23.72 12.7583 23.6927 12.8623C23.6653 12.9664 23.617 13.0636 23.5521 13.1485L23.4817 13.2285L13.2298 23.4815C13.1284 23.5828 13.0012 23.656 12.8626 23.6924C12.7586 23.7197 12.6501 23.7258 12.5442 23.711L12.4397 23.6885C11.4881 23.4249 10.4828 23.4183 9.52764 23.669C8.69203 23.8884 7.9202 24.2984 7.27178 24.8643L7.00127 25.1162C6.33942 25.7788 5.85529 26.598 5.59307 27.4971C5.37501 28.245 5.31849 29.0282 5.42119 29.7969L8.79327 26.4258L8.85186 26.3721C8.91321 26.3217 8.98238 26.2805 9.05596 26.25C9.15405 26.2094 9.25938 26.1885 9.36553 26.1885C9.47183 26.1885 9.57788 26.2093 9.67608 26.25C9.77415 26.2908 9.86374 26.3506 9.93877 26.4258L13.5735 30.0615L13.6272 30.1211C13.7452 30.2652 13.8108 30.446 13.8108 30.6338C13.8108 30.8218 13.7454 31.0033 13.6272 31.1475L13.5735 31.2061L10.2005 34.5781C10.9699 34.6814 11.7546 34.6256 12.5032 34.4072C13.4022 34.145 14.2208 33.66 14.8831 32.9981L15.1351 32.7285C15.7008 32.0809 16.11 31.3095 16.3294 30.4746C16.5488 29.6397 16.572 28.7669 16.3978 27.9248L16.3108 27.5664C16.2723 27.4283 16.2715 27.2823 16.3079 27.1436C16.3444 27.0049 16.4164 26.8778 16.5179 26.7764L26.7767 16.5176L26.8577 16.4473C26.9425 16.3822 27.0398 16.334 27.1439 16.3067C27.2821 16.2704 27.428 16.2712 27.5657 16.3096C28.5164 16.5725 29.521 16.5798 30.4749 16.3291C31.3098 16.1097 32.0811 15.6994 32.7288 15.1338L32.9983 14.8819C33.66 14.2193 34.1444 13.4009 34.4065 12.502C34.6247 11.7538 34.6813 10.9702 34.5784 10.2012L31.2073 13.5733L31.2015 13.5781C31.0864 13.6867 30.9435 13.7596 30.7903 13.7891L30.6341 13.8037C30.4233 13.8037 30.2201 13.7228 30.0667 13.5781L26.4261 9.93752C26.351 9.86244 26.291 9.77293 26.2503 9.67482C26.2097 9.5767 26.1888 9.47147 26.1888 9.36525C26.1888 9.25885 26.2095 9.15299 26.2503 9.05471C26.291 8.95654 26.3509 8.86711 26.4261 8.79201L29.7981 5.41994Z" fill="#F16408"/>
<path d="M24.5254 14.7539C24.6038 14.7616 24.6808 14.7812 24.7539 14.8115C24.8514 14.8519 24.9401 14.9108 25.0146 14.9854C25.0892 15.0599 25.1481 15.1486 25.1885 15.2461C25.2289 15.3436 25.25 15.4482 25.25 15.5537L25.2461 15.6328C25.2383 15.7111 25.2187 15.7884 25.1885 15.8613C25.1481 15.9587 25.0892 16.0476 25.0146 16.1221L16.1221 25.0146C16.0476 25.0892 15.9587 25.1481 15.8613 25.1885C15.7884 25.2187 15.7111 25.2383 15.6328 25.2461L15.5537 25.25C15.4482 25.25 15.3436 25.2289 15.2461 25.1885C15.1486 25.1481 15.0599 25.0892 14.9854 25.0146C14.9108 24.9401 14.8519 24.8514 14.8115 24.7539C14.7812 24.6808 14.7616 24.6038 14.7539 24.5254L14.75 24.4463C14.75 24.3408 14.7712 24.2361 14.8115 24.1387C14.8519 24.0413 14.9108 23.9524 14.9854 23.8779L23.8779 14.9854L23.9365 14.9326C23.9975 14.8826 24.0656 14.8418 24.1387 14.8115C24.2361 14.7712 24.3408 14.75 24.4463 14.75L24.5254 14.7539Z" fill="#F16408"/>
</svg>
