<svg width="40" height="40" viewBox="0 0 40 40" fill="none" xmlns="http://www.w3.org/2000/svg">
<rect width="40" height="40" rx="10" fill="#505050"/>
<path fill-rule="evenodd" clip-rule="evenodd" d="M29.5411 15.8126C29.6801 15.3442 29.5411 15 28.8794 15H26.6914C26.135 15 25.8786 15.2973 25.7395 15.6252C25.7395 15.6252 24.6268 18.3652 23.0505 20.145C22.5406 20.6602 22.3087 20.8242 22.0306 20.8242C21.8915 20.8242 21.6902 20.6602 21.6902 20.1919V15.8126C21.6902 15.2505 21.5287 15 21.0651 15H17.6268C17.2791 15 17.07 15.2609 17.07 15.5081C17.07 16.0409 17.8581 16.1638 17.9393 17.6626V20.9179C17.9393 21.6316 17.8118 21.761 17.5336 21.761C16.7919 21.761 14.9876 19.0087 13.9174 15.8594C13.7077 15.2473 13.4974 15 12.9382 15H10.7502C10.125 15 10 15.2973 10 15.6252C10 16.2107 10.7418 19.1146 13.4539 22.9553C15.2619 25.5782 17.8093 27 20.1274 27C21.5182 27 21.6902 26.6842 21.6902 26.1403V24.1579C21.6902 23.5263 21.822 23.4003 22.2624 23.4003C22.5869 23.4003 23.1433 23.5642 24.4414 24.8288C25.9249 26.3276 26.1695 27 27.004 27H29.192C29.8171 27 30.1297 26.6842 29.9494 26.061C29.752 25.4399 29.0437 24.5388 28.1039 23.4705C27.5939 22.8616 26.8289 22.2059 26.5971 21.878C26.2726 21.4565 26.3653 21.2691 26.5971 20.8945C26.5971 20.8945 29.2629 17.1006 29.5411 15.8126Z" fill="white"/>
</svg>
