<svg width="65" height="65" viewBox="0 0 65 65" fill="none" xmlns="http://www.w3.org/2000/svg">
<rect width="65" height="65" rx="32.5" fill="#F16408"/>
<g clip-path="url(#clip0_281_1146)">
<path d="M28.75 22.5C28.75 23.8261 28.2232 25.0979 27.2855 26.0355C26.3479 26.9732 25.0761 27.5 23.75 27.5C22.4239 27.5 21.1521 26.9732 20.2145 26.0355C19.2768 25.0979 18.75 23.8261 18.75 22.5C18.75 21.1739 19.2768 19.9021 20.2145 18.9645C21.1521 18.0268 22.4239 17.5 23.75 17.5C25.0761 17.5 26.3479 18.0268 27.2855 18.9645C28.2232 19.9021 28.75 21.1739 28.75 22.5ZM35 17.5C33.6739 17.5 32.4021 18.0268 31.4645 18.9645C30.5268 19.9021 30 21.1739 30 22.5C30 23.8261 30.5268 25.0979 31.4645 26.0355C32.4021 26.9732 33.6739 27.5 35 27.5C36.3261 27.5 37.5979 26.9732 38.5355 26.0355C39.4732 25.0979 40 23.8261 40 22.5C40 21.1739 39.4732 19.9021 38.5355 18.9645C37.5979 18.0268 36.3261 17.5 35 17.5ZM41.25 35V42.5C41.25 43.8261 40.7232 45.0979 39.7855 46.0355C38.8479 46.9732 37.5761 47.5 36.25 47.5H22.5C21.1739 47.5 19.9021 46.9732 18.9645 46.0355C18.0268 45.0979 17.5 43.8261 17.5 42.5V35C17.5 33.6739 18.0268 32.4021 18.9645 31.4645C19.9021 30.5268 21.1739 30 22.5 30H36.25C37.5761 30 38.8479 30.5268 39.7855 31.4645C40.7232 32.4021 41.25 33.6739 41.25 35ZM44.7062 32.3575L43.75 33.3138V43.0012L44.7062 43.9575C45.7375 44.9888 47.5 44.2587 47.5 42.8V33.5138C47.5 32.0562 45.7375 31.3275 44.7062 32.3575Z" fill="white"/>
</g>
<defs>
<clipPath id="clip0_281_1146">
<rect width="30" height="30" fill="white" transform="translate(17.5 17.5)"/>
</clipPath>
</defs>
</svg>
