<svg width="60" height="60" viewBox="0 0 60 60" fill="none" xmlns="http://www.w3.org/2000/svg">
<rect width="60" height="60" rx="30" fill="#F16408"/>
<path d="M22.4591 34.1739L19.8383 31.5528C19.1984 30.9129 18.1781 30.7731 17.4368 31.2918C17.2357 31.4309 17.0642 31.6086 16.9323 31.8145C16.8005 32.0205 16.7108 32.2505 16.6686 32.4914C16.6264 32.7322 16.6324 32.9791 16.6864 33.2176C16.7403 33.4561 16.8411 33.6815 16.9829 33.8808L21.6653 40.4595C22.5642 41.6379 23.723 42.5931 25.0514 43.2505C26.3798 43.9079 27.8421 44.25 29.3243 44.25H31.3313C35.765 44.25 39.3593 40.6557 39.3593 36.222V21.771C39.3592 21.5602 39.3177 21.3514 39.2369 21.1567C39.1562 20.9619 39.038 20.785 38.8889 20.6359C38.7398 20.4869 38.5628 20.3687 38.368 20.2881C38.1732 20.2074 37.9645 20.1659 37.7537 20.166V20.1654C37.5428 20.1653 37.334 20.2068 37.1392 20.2875C36.9444 20.3682 36.7673 20.4864 36.6182 20.6356C36.4691 20.7847 36.3509 20.9617 36.2702 21.1565C36.1895 21.3513 36.148 21.5601 36.1481 21.771V27.9927C36.1481 28.1524 36.0846 28.3055 35.9717 28.4184C35.8588 28.5313 35.7056 28.5948 35.546 28.5948C35.3863 28.5948 35.2331 28.5313 35.1202 28.4184C35.0073 28.3055 34.9439 28.1524 34.9439 27.9927V18.9612C34.9439 18.5354 34.7747 18.127 34.4737 17.8259C34.1727 17.5248 33.7643 17.3556 33.3386 17.3556C32.9127 17.3556 32.504 17.5247 32.2029 17.8258C31.9018 18.1269 31.7327 18.5353 31.7327 18.9612V27.9927C31.7327 28.1524 31.6692 28.3055 31.5563 28.4184C31.4434 28.5313 31.2902 28.5948 31.1306 28.5948C30.9709 28.5948 30.8177 28.5313 30.7048 28.4184C30.5919 28.3055 30.5285 28.1524 30.5285 27.9927V17.4243C30.5285 16.5858 29.9153 15.8373 29.0804 15.7575C28.8573 15.7355 28.6321 15.7605 28.4193 15.8309C28.2065 15.9012 28.0108 16.0153 27.8448 16.1658C27.6787 16.3163 27.546 16.5 27.4552 16.7049C27.3644 16.9098 27.3175 17.1314 27.3176 17.3556V27.9927C27.3176 28.1524 27.2541 28.3055 27.1412 28.4184C27.0283 28.5313 26.8751 28.5948 26.7155 28.5948C26.5558 28.5948 26.4026 28.5313 26.2897 28.4184C26.1768 28.3055 26.1134 28.1524 26.1134 27.9927V19.3626C26.1134 18.9367 25.9442 18.5283 25.6431 18.2272C25.342 17.9261 24.9336 17.757 24.5078 17.757C24.0819 17.757 23.6732 17.9261 23.3721 18.2272C23.071 18.5283 22.9019 18.9367 22.9019 19.3626V33.9906C22.9019 34.2216 22.6229 34.3371 22.4594 34.1736L22.4591 34.1739Z" fill="white"/>
</svg>
