<svg width="40" height="40" viewBox="0 0 40 40" fill="none" xmlns="http://www.w3.org/2000/svg">
<rect width="40" height="40" rx="10" fill="#505050"/>
<g clip-path="url(#clip0_270_741)">
<path d="M21.7357 21.7357C20.3214 23.195 20.2186 25.0143 20.0964 29C23.8121 29 26.3771 28.9871 27.7014 27.7014C28.9871 26.3771 29 23.69 29 20.0964C25.0143 20.225 23.195 20.3214 21.7357 21.7357ZM11 20.0964C11 23.69 11.0129 26.3771 12.2986 27.7014C13.6229 28.9871 16.1879 29 19.9036 29C19.775 25.0143 19.6786 23.195 18.2643 21.7357C16.805 20.3214 14.9857 20.2186 11 20.0964ZM19.9036 11C16.1943 11 13.6229 11.0129 12.2986 12.2986C11.0129 13.6229 11 16.31 11 19.9036C14.9857 19.775 16.805 19.6786 18.2643 18.2643C19.6786 16.805 19.7814 14.9857 19.9036 11ZM21.7357 18.2643C20.3214 16.805 20.2186 14.9857 20.0964 11C23.8121 11 26.3771 11.0129 27.7014 12.2986C28.9871 13.6229 29 16.31 29 19.9036C25.0143 19.775 23.195 19.6786 21.7357 18.2643Z" fill="white"/>
</g>
<defs>
<clipPath id="clip0_270_741">
<rect width="18" height="18" fill="white" transform="translate(11 11)"/>
</clipPath>
</defs>
</svg>
