<svg width="40" height="40" viewBox="0 0 40 40" fill="none" xmlns="http://www.w3.org/2000/svg">
<path fill-rule="evenodd" clip-rule="evenodd" d="M9.98255 20.7273C10.0933 20.7321 10.2024 20.7586 10.3029 20.8054C10.4034 20.8523 10.4945 20.9189 10.5695 21.0007C10.6442 21.0823 10.7025 21.178 10.7404 21.2819L10.7648 21.362C10.7853 21.4421 10.7937 21.5252 10.7902 21.6081C10.7854 21.7189 10.7588 21.8288 10.712 21.9294C10.6652 22.0298 10.5984 22.1201 10.5167 22.195C10.435 22.2699 10.3387 22.329 10.2345 22.3669L10.2335 22.3659L3.61829 24.7741L15.4904 32.6276L32.2677 26.6696L28.547 24.2243C28.4542 24.1633 28.374 24.0838 28.3116 23.9919C28.2494 23.9001 28.2052 23.7968 28.1827 23.6882C28.1604 23.5796 28.16 23.467 28.1808 23.3581C28.2017 23.2494 28.244 23.145 28.3048 23.0524C28.3657 22.96 28.4447 22.8803 28.5363 22.8181C28.628 22.7559 28.7314 22.7116 28.84 22.6892C28.9486 22.6668 29.0611 22.6664 29.17 22.6872C29.2789 22.7081 29.3831 22.7494 29.4757 22.8103L34.4572 26.0837C34.6258 26.1286 34.7784 26.2222 34.8908 26.3571C35.0169 26.5087 35.0857 26.7 35.0861 26.8972V30.5534C35.0861 30.6656 35.0624 30.7717 35.0236 30.8679C34.9801 31.1185 34.8271 31.3462 34.5909 31.4714L34.4786 31.5212L15.8087 38.1501C15.6815 38.2272 15.5338 38.2769 15.3751 38.2771C15.2512 38.2769 15.1281 38.25 15.0167 38.198L14.9083 38.1374L1.34095 29.1608C1.11214 29.0094 0.984035 28.7652 0.966923 28.5124C0.944634 28.44 0.926906 28.3596 0.926884 28.2712V24.7653C0.876725 24.5701 0.897642 24.3629 0.987431 24.1814C1.08357 23.9873 1.25079 23.8367 1.45423 23.7624L9.65638 20.7771L9.73548 20.7526C9.8158 20.732 9.8994 20.7236 9.98255 20.7273ZM16.2208 34.1628V36.2097L33.3956 30.1101V28.0642L16.2208 34.1628ZM2.61731 27.9773L14.5294 35.8581V34.0202L2.61731 26.1384V27.9773Z" fill="#9BAFB8"/>
<path fill-rule="evenodd" clip-rule="evenodd" d="M23.0727 1.43307L23.0717 1.43405C23.1266 1.43982 23.1805 1.45179 23.2329 1.46921L23.2339 1.46823L23.2368 1.47018H23.2397L23.2387 1.47116C23.2631 1.47904 23.2874 1.4875 23.311 1.49753L23.3881 1.53659L23.3901 1.53757L23.393 1.53854C23.3994 1.54156 23.4179 1.552 23.4389 1.56589L23.4399 1.56491L36.8432 10.437C37.2041 10.533 37.4711 10.8585 37.4712 11.2505V14.9067C37.4708 15.0148 37.4484 15.1213 37.4077 15.2212C37.3642 15.472 37.2111 15.7004 36.9741 15.8257L36.8618 15.8745L18.1919 22.5005C18.0638 22.5787 17.9153 22.6284 17.7563 22.6284C17.5955 22.6283 17.4334 22.5829 17.2905 22.4887L3.72506 13.5083C3.61041 13.4322 3.51557 13.3292 3.44967 13.2085C3.38937 13.0978 3.3559 12.9746 3.34908 12.8491C3.32846 12.7794 3.31202 12.703 3.31197 12.6196V9.11667C3.26066 8.91998 3.28069 8.71078 3.37155 8.5278C3.46925 8.33108 3.64002 8.18003 3.84713 8.1069L22.6928 1.47311L22.6997 1.47116L22.7456 1.45944C22.7475 1.45904 22.7495 1.45846 22.7495 1.45846C22.7495 1.45846 22.7475 1.45929 22.7436 1.46042C22.7723 1.45185 22.8011 1.44432 22.8305 1.43893L22.8383 1.43796L22.9077 1.43112C22.9362 1.42864 22.965 1.42694 22.9936 1.42721H22.9965L23.0727 1.43307ZM18.603 18.5132V20.559L35.7807 14.4624V12.4165L18.603 18.5132ZM5.00338 12.3257L16.9116 20.2085V18.3696L5.00338 10.4878V12.3257ZM6.02194 9.13425L17.8715 16.978L34.6596 11.02L22.8579 3.20749L6.02194 9.13425Z" fill="#F16408"/>
</svg>
