<svg width="65" height="65" viewBox="0 0 65 65" fill="none" xmlns="http://www.w3.org/2000/svg">
<rect width="65" height="65" rx="32.5" fill="#F16408"/>
<g clip-path="url(#clip0_270_469)">
<path d="M46.25 37.5C46.0565 37.5 45.8657 37.4551 45.6925 37.3688L43.1925 36.1188C42.8958 35.9706 42.6701 35.7106 42.5651 35.396C42.4601 35.0814 42.4843 34.738 42.6325 34.4412C42.7807 34.1445 43.0407 33.9188 43.3553 33.8138C43.6699 33.7088 44.0133 33.7331 44.31 33.8812L46.81 35.1312C47.0623 35.257 47.2647 35.4644 47.3843 35.7197C47.504 35.975 47.5338 36.2632 47.4689 36.5376C47.404 36.812 47.2483 37.0563 47.027 37.2311C46.8058 37.4058 46.5319 37.5005 46.25 37.5ZM44.3088 26.125L46.8088 24.875C47.1055 24.7268 47.3312 24.4668 47.4362 24.1522C47.5412 23.8376 47.5169 23.4942 47.3688 23.1975C47.2206 22.9008 46.9606 22.6751 46.646 22.5701C46.3314 22.4651 45.988 22.4893 45.6913 22.6375L43.1913 23.8875C42.8945 24.0357 42.6689 24.2957 42.5638 24.6103C42.4588 24.9249 42.4831 25.2683 42.6313 25.565C42.7794 25.8617 43.0394 26.0874 43.354 26.1924C43.6686 26.2974 44.012 26.2732 44.3088 26.125ZM47.5 30C47.5 29.6685 47.3683 29.3505 47.1339 29.1161C46.8995 28.8817 46.5815 28.75 46.25 28.75H43.75C43.4185 28.75 43.1005 28.8817 42.8661 29.1161C42.6317 29.3505 42.5 29.6685 42.5 30C42.5 30.3315 42.6317 30.6495 42.8661 30.8839C43.1005 31.1183 43.4185 31.25 43.75 31.25H46.25C46.5815 31.25 46.8995 31.1183 47.1339 30.8839C47.3683 30.6495 47.5 30.3315 47.5 30ZM40 41.25V18.75C40 18.4185 39.8683 18.1005 39.6339 17.8661C39.3995 17.6317 39.0815 17.5 38.75 17.5C38.4185 17.5 38.1005 17.6317 37.8661 17.8661C37.6317 18.1005 37.5 18.4185 37.5 18.75C37.5 22.4362 34.2713 23.75 31.25 23.75H22.5C21.1739 23.75 19.9021 24.2768 18.9645 25.2145C18.0268 26.1521 17.5 27.4239 17.5 28.75V31.25C17.5 32.5761 18.0268 33.8479 18.9645 34.7855C19.9021 35.7232 21.1739 36.25 22.5 36.25H31.25C34.2713 36.25 37.5 37.5637 37.5 41.25C37.5 41.5815 37.6317 41.8995 37.8661 42.1339C38.1005 42.3683 38.4185 42.5 38.75 42.5C39.0815 42.5 39.3995 42.3683 39.6339 42.1339C39.8683 41.8995 40 41.5815 40 41.25ZM27.7325 38.75H22.5C21.918 38.7477 21.3383 38.6776 20.7725 38.5413L23.8975 45.5188C24.16 46.1085 24.5877 46.6095 25.129 46.9611C25.6704 47.3128 26.302 47.4999 26.9475 47.5C27.4611 47.4993 27.9663 47.3701 28.4171 47.1242C28.868 46.8782 29.2501 46.5234 29.5287 46.0919C29.8073 45.6605 29.9735 45.1662 30.0122 44.6541C30.0508 44.142 29.9607 43.6284 29.75 43.16L27.7325 38.75Z" fill="white"/>
</g>
<defs>
<clipPath id="clip0_270_469">
<rect width="30" height="30" fill="white" transform="translate(17.5 17.5)"/>
</clipPath>
</defs>
</svg>
