<svg xmlns="http://www.w3.org/2000/svg">
    <symbol id="logo-header" width="227" height="23" viewBox="0 0 227 23" fill="none"
        xmlns="http://www.w3.org/2000/svg">
        <path
            d="M157.52 0.614335C151.894 0.614335 149.229 2.92189 148.045 6.13241H152.585C153.276 4.32649 154.46 3.62419 155.842 3.62419C158.112 3.62419 159.395 5.43011 159.79 9.2426H153.177V12.2525H159.79C159.691 17.1686 158.309 19.3758 155.743 19.3758C154.263 19.3758 152.979 18.5732 152.289 16.4663H147.749C148.834 19.8774 151.598 22.3856 157.421 22.3856C164.231 22.3856 167.784 17.0682 167.784 11.4498C167.784 5.83142 164.428 0.614335 157.52 0.614335Z"
            fill="#F16408" />
        <path
            d="M135.51 1.21634H129.786L121.1 22.0847H124.259L131.365 5.02883L137.879 19.9778C138.57 21.3824 140.346 22.185 142.518 22.185H146.959L138.274 2.62094C138.076 1.81831 137.089 1.21634 135.51 1.21634Z"
            fill="#F16408" />
        <path
            d="M83.0033 0.614335C75.1076 0.614335 71.2584 5.93175 71.2584 11.5502C71.2584 17.1686 75.2063 22.486 83.0033 22.486C90.8004 22.486 94.847 17.1686 94.847 11.5502C94.7483 6.03208 90.8004 0.614335 83.0033 0.614335ZM83.0033 19.4761C80.2398 19.4761 78.8581 16.9679 78.8581 11.5502C78.8581 6.13241 80.2398 3.62419 83.0033 3.62419C85.7669 3.62419 87.1486 6.13241 87.1486 11.5502C87.1486 17.0682 85.7669 19.4761 83.0033 19.4761Z"
            fill="#F16408" />
        <path
            d="M60.0077 9.34296H54.6781V1.21634H47.3745V22.0847H54.6781V12.3528H60.0077V22.0847H67.41V1.21634H60.0077V9.34296Z"
            fill="#F16408" />
        <path d="M0 1.21634V22.0847H7.30357V4.2262H12.6332V22.0847H20.0355V1.21634H0Z"
            fill="#F16408" />
        <path
            d="M25.3643 17.2689C25.3643 20.2787 27.8318 21.9843 31.2862 21.9843H42.8337V18.9745H32.7666V12.3528H40.3663V9.34292H32.7666V4.12584H42.9324V1.11598H25.3643V17.2689Z"
            fill="#F16408" />
        <path d="M98.5967 1.21634V22.0847H105.999V4.2262H111.329V22.0847H118.632V1.21634H98.5967Z"
            fill="#F16408" />
        <path
            d="M208.249 19.4761C205.584 19.4761 204.202 16.9679 204.202 11.5502C204.202 6.13243 205.584 3.62422 208.249 3.62422C209.927 3.62422 211.111 4.52717 211.703 7.03539H216.441C215.454 3.32323 212.789 0.51403 206.67 0.51403C199.761 0.51403 196.307 5.83144 196.307 11.4498C196.307 17.0682 199.761 22.3857 206.67 22.3857C212.789 22.3857 215.454 19.5765 216.441 15.8643H211.703C211.111 18.6735 209.927 19.4761 208.249 19.4761Z"
            fill="#F16408" />
        <path
            d="M222.857 8.13898C220.981 8.13898 219.402 6.63405 219.402 4.62748C219.402 2.72124 220.981 1.11598 222.857 1.11598C224.732 1.11598 226.311 2.62091 226.311 4.62748C226.212 6.63405 224.732 8.13898 222.857 8.13898ZM222.857 1.81828C221.277 1.81828 219.994 3.12255 219.994 4.72781C219.994 6.33307 221.277 7.63734 222.857 7.63734C224.436 7.63734 225.719 6.33307 225.719 4.72781C225.62 3.02222 224.436 1.81828 222.857 1.81828ZM223.745 6.63405L222.758 5.02879H222.166V6.63405H221.573V2.62091H223.153C223.843 2.62091 224.436 3.12255 224.436 3.82485C224.436 4.72781 223.646 5.02879 223.449 5.02879L224.534 6.63405H223.745ZM223.054 3.22288H222.067V4.62748H223.054C223.35 4.62748 223.745 4.32649 223.745 3.92518C223.844 3.42353 223.449 3.22288 223.054 3.22288Z"
            fill="#F16408" />
        <path
            d="M185.155 7.63737L190.682 1.21634H186.735L179.036 10.2459V1.21634H171.733V22.0847H179.036V11.5502L185.55 19.3758C187.228 21.2821 189.399 21.9844 192.163 21.9844H197.098L185.155 7.63737Z"
            fill="#F16408" />
    </symbol>
    <symbol id="icon-house" width="40" height="40" viewBox="0 0 40 40" fill="none"
        xmlns="http://www.w3.org/2000/svg">
        <path
            d="M20.1524 6.42999C20.303 6.45665 20.4451 6.52245 20.5645 6.6214L34.5762 18.262C34.669 18.3375 34.7456 18.4311 34.8028 18.5364C34.8603 18.6424 34.8965 18.7592 34.9102 18.8792C34.9238 18.9994 34.914 19.122 34.8819 19.2386C34.8497 19.3551 34.7954 19.4643 34.7217 19.5599C34.648 19.6555 34.5561 19.7358 34.4512 19.7952C34.3465 19.8545 34.231 19.8917 34.1114 19.9046C33.9918 19.9174 33.8708 19.9054 33.7559 19.8694C33.6411 19.8334 33.534 19.775 33.4424 19.6966L32.1075 18.5872L32.1065 34.7435C32.0682 35.5288 31.733 36.2689 31.17 36.8011C30.6091 37.3312 29.8677 37.6109 29.1065 37.5794L22.5948 37.5804C22.3534 37.5803 22.1228 37.4811 21.9551 37.3069C21.7879 37.1331 21.6954 36.8984 21.6954 36.6566C21.6955 36.4149 21.788 36.1809 21.9551 36.0071C22.1228 35.833 22.3534 35.7328 22.5948 35.7327H29.1172L29.128 35.7337C29.4115 35.7581 29.6946 35.6667 29.9161 35.4759C30.1362 35.2861 30.2781 35.0128 30.3096 34.7132V17.0931L19.9991 8.52765L9.68952 17.0941V34.7112C9.7207 35.0112 9.86282 35.2849 10.0831 35.4749C10.3046 35.6658 10.5877 35.7581 10.8712 35.7337L10.8819 35.7327H17.4053C17.6466 35.7328 17.8763 35.8322 18.044 36.0062C18.2114 36.18 18.3037 36.4147 18.3038 36.6566C18.3037 36.8984 18.2113 37.1322 18.044 37.306C17.8763 37.4801 17.6467 37.5793 17.4053 37.5794H10.8926C10.1316 37.6107 9.39084 37.33 8.83014 36.8001C8.33752 36.3344 8.01852 35.7095 7.92096 35.0345L7.89264 34.7425L7.89166 34.7298L7.89264 18.5853L6.55573 19.6946L6.5567 19.6956C6.46511 19.774 6.35901 19.8334 6.2442 19.8694C6.12929 19.9054 6.00745 19.9175 5.88776 19.9046C5.76826 19.8917 5.65261 19.8536 5.54791 19.7943C5.44333 19.7349 5.35103 19.6553 5.27741 19.5599C5.20378 19.4643 5.1494 19.3541 5.11725 19.2376C5.0852 19.1212 5.07537 18.9992 5.08893 18.8792C5.10259 18.759 5.1397 18.6416 5.19733 18.5355C5.25489 18.4296 5.33236 18.3357 5.42584 18.2601L19.4346 6.6214L19.5606 6.53351C19.6935 6.45715 19.8451 6.41637 20.0001 6.41632L20.1524 6.42999Z"
            fill="#F16408" />
        <path
            d="M19.9988 1.08331C20.2105 1.08335 20.4163 1.15526 20.5818 1.28741L39.0329 16.0482L39.0349 16.0501L39.1032 16.1126C39.2532 16.2633 39.3478 16.4618 39.3699 16.6751C39.395 16.919 39.3239 17.1634 39.1706 17.3548C39.0173 17.5461 38.794 17.6689 38.5505 17.6976C38.3071 17.7261 38.0623 17.6577 37.8689 17.5071L37.8659 17.5052L19.9988 3.21124L2.13352 17.5023L2.1345 17.5032C2.03916 17.5818 1.92851 17.6404 1.81028 17.6761C1.69195 17.7118 1.56701 17.724 1.44407 17.7112C1.32123 17.6985 1.2019 17.661 1.09348 17.6019C0.985176 17.5427 0.889412 17.4628 0.812234 17.3665C0.735063 17.2701 0.67735 17.159 0.643289 17.0403C0.609275 16.9216 0.599599 16.7968 0.613992 16.6741C0.62844 16.5514 0.666606 16.4322 0.727273 16.3245C0.787431 16.2178 0.868208 16.1237 0.964578 16.0482L19.4158 1.28741L19.5466 1.19952C19.6841 1.12353 19.8399 1.08335 19.9988 1.08331Z"
            fill="#9BAFB8" />
        <path fill-rule="evenodd" clip-rule="evenodd"
            d="M26.1534 19.7503C26.3588 19.7503 26.5541 19.835 26.6964 19.9827C26.8383 20.1301 26.9161 20.3281 26.9161 20.5325V29.0521C26.916 29.2564 26.8382 29.4546 26.6964 29.6019C26.5542 29.7494 26.3587 29.8343 26.1534 29.8343H20.7697V36.8011C20.7696 37.0055 20.6908 37.2036 20.549 37.3509C20.4067 37.4984 20.2113 37.5833 20.006 37.5833C19.8009 37.5831 19.6061 37.4984 19.464 37.3509C19.3575 37.2403 19.2866 37.1013 19.2579 36.9525L19.2433 36.8011V29.8343H13.8458C13.6406 29.8342 13.445 29.7495 13.3029 29.6019C13.1611 29.4546 13.0832 29.2564 13.0831 29.0521V20.5325C13.0832 20.3283 13.1612 20.13 13.3029 19.9827C13.445 19.8351 13.6405 19.7504 13.8458 19.7503H26.1534ZM14.6085 28.2698H17.1857V25.5745H14.6085V28.2698ZM18.7111 28.2698H21.2882V25.5745H18.7111V28.2698ZM22.8136 28.2698H25.3907V25.5745H22.8136V28.2698ZM14.6085 24.0101H17.1857V21.3148H14.6085V24.0101ZM18.7111 24.0101H21.2882V21.3148H18.7111V24.0101ZM22.8136 24.0101H25.3907V21.3148H22.8136V24.0101Z"
            fill="#9BAFB8" />
    </symbol>
    <symbol id="icon-materials" width="40" height="40" viewBox="0 0 40 40" fill="none"
        xmlns="http://www.w3.org/2000/svg">
        <path fill-rule="evenodd" clip-rule="evenodd"
            d="M9.98255 20.7273C10.0933 20.7321 10.2024 20.7586 10.3029 20.8054C10.4034 20.8523 10.4945 20.9189 10.5695 21.0007C10.6442 21.0823 10.7025 21.178 10.7404 21.2819L10.7648 21.362C10.7853 21.4421 10.7937 21.5252 10.7902 21.6081C10.7854 21.7189 10.7588 21.8288 10.712 21.9294C10.6652 22.0298 10.5984 22.1201 10.5167 22.195C10.435 22.2699 10.3387 22.329 10.2345 22.3669L10.2335 22.3659L3.61829 24.7741L15.4904 32.6276L32.2677 26.6696L28.547 24.2243C28.4542 24.1633 28.374 24.0838 28.3116 23.9919C28.2494 23.9001 28.2052 23.7968 28.1827 23.6882C28.1604 23.5796 28.16 23.467 28.1808 23.3581C28.2017 23.2494 28.244 23.145 28.3048 23.0524C28.3657 22.96 28.4447 22.8803 28.5363 22.8181C28.628 22.7559 28.7314 22.7116 28.84 22.6892C28.9486 22.6668 29.0611 22.6664 29.17 22.6872C29.2789 22.7081 29.3831 22.7494 29.4757 22.8103L34.4572 26.0837C34.6258 26.1286 34.7784 26.2222 34.8908 26.3571C35.0169 26.5087 35.0857 26.7 35.0861 26.8972V30.5534C35.0861 30.6656 35.0624 30.7717 35.0236 30.8679C34.9801 31.1185 34.8271 31.3462 34.5909 31.4714L34.4786 31.5212L15.8087 38.1501C15.6815 38.2272 15.5338 38.2769 15.3751 38.2771C15.2512 38.2769 15.1281 38.25 15.0167 38.198L14.9083 38.1374L1.34095 29.1608C1.11214 29.0094 0.984035 28.7652 0.966923 28.5124C0.944634 28.44 0.926906 28.3596 0.926884 28.2712V24.7653C0.876725 24.5701 0.897642 24.3629 0.987431 24.1814C1.08357 23.9873 1.25079 23.8367 1.45423 23.7624L9.65638 20.7771L9.73548 20.7526C9.8158 20.732 9.8994 20.7236 9.98255 20.7273ZM16.2208 34.1628V36.2097L33.3956 30.1101V28.0642L16.2208 34.1628ZM2.61731 27.9773L14.5294 35.8581V34.0202L2.61731 26.1384V27.9773Z"
            fill="#9BAFB8" />
        <path fill-rule="evenodd" clip-rule="evenodd"
            d="M23.0727 1.43307L23.0717 1.43405C23.1266 1.43982 23.1805 1.45179 23.2329 1.46921L23.2339 1.46823L23.2368 1.47018H23.2397L23.2387 1.47116C23.2631 1.47904 23.2874 1.4875 23.311 1.49753L23.3881 1.53659L23.3901 1.53757L23.393 1.53854C23.3994 1.54156 23.4179 1.552 23.4389 1.56589L23.4399 1.56491L36.8432 10.437C37.2041 10.533 37.4711 10.8585 37.4712 11.2505V14.9067C37.4708 15.0148 37.4484 15.1213 37.4077 15.2212C37.3642 15.472 37.2111 15.7004 36.9741 15.8257L36.8618 15.8745L18.1919 22.5005C18.0638 22.5787 17.9153 22.6284 17.7563 22.6284C17.5955 22.6283 17.4334 22.5829 17.2905 22.4887L3.72506 13.5083C3.61041 13.4322 3.51557 13.3292 3.44967 13.2085C3.38937 13.0978 3.3559 12.9746 3.34908 12.8491C3.32846 12.7794 3.31202 12.703 3.31197 12.6196V9.11667C3.26066 8.91998 3.28069 8.71078 3.37155 8.5278C3.46925 8.33108 3.64002 8.18003 3.84713 8.1069L22.6928 1.47311L22.6997 1.47116L22.7456 1.45944C22.7475 1.45904 22.7495 1.45846 22.7495 1.45846C22.7495 1.45846 22.7475 1.45929 22.7436 1.46042C22.7723 1.45185 22.8011 1.44432 22.8305 1.43893L22.8383 1.43796L22.9077 1.43112C22.9362 1.42864 22.965 1.42694 22.9936 1.42721H22.9965L23.0727 1.43307ZM18.603 18.5132V20.559L35.7807 14.4624V12.4165L18.603 18.5132ZM5.00338 12.3257L16.9116 20.2085V18.3696L5.00338 10.4878V12.3257ZM6.02194 9.13425L17.8715 16.978L34.6596 11.02L22.8579 3.20749L6.02194 9.13425Z"
            fill="#F16408" />
    </symbol>
    <symbol id="icon-installation" width="40" height="40" viewBox="0 0 40 40" fill="none"
        xmlns="http://www.w3.org/2000/svg">
        <path
            d="M37.417 16.9795L37.501 16.9883C37.6942 17.0173 37.8733 17.11 38.0088 17.2529C38.1637 17.4164 38.25 17.6332 38.25 17.8584V23.2998L38.2461 23.3838C38.2276 23.5787 38.1447 23.763 38.0088 23.9062C37.8777 24.0444 37.7054 24.1341 37.5195 24.166L37.5117 24.1748L37.415 24.1797L34.1816 24.3467C33.8722 25.4603 33.428 26.5314 32.8584 27.5371L35.0244 29.9346L35.0781 30C35.1949 30.1571 35.256 30.3496 35.251 30.5469C35.2452 30.7723 35.1526 30.9861 34.9932 31.1455L34.9941 31.1465L31.1455 34.9941C30.986 35.1536 30.7713 35.2462 30.5459 35.252C30.3487 35.257 30.1561 35.1957 29.999 35.0791L29.9336 35.0254L27.5361 32.8594C26.5304 33.4289 25.4593 33.8732 24.3457 34.1826L24.1787 37.416C24.167 37.6412 24.0688 37.8536 23.9053 38.0088C23.7623 38.1444 23.5784 38.2274 23.3838 38.2461L23.2998 38.25H17.8584C17.6332 38.2501 17.4164 38.1636 17.2529 38.0088C17.1099 37.8732 17.0163 37.6942 16.9873 37.501L16.9795 37.417L16.834 34.6768L16.8213 34.4297L17.0684 34.4141L17.6973 34.375H18.5801L18.6924 36.4912H22.4648L22.623 33.4453L22.6416 33.3047C22.6718 33.1656 22.7356 33.0348 22.8281 32.9248C22.9513 32.7784 23.1191 32.6764 23.3057 32.6338L23.8174 32.5059C25.0031 32.1827 26.1348 31.6842 27.1758 31.0273L27.3027 30.9619C27.4341 30.9063 27.5781 30.8831 27.7217 30.8955C27.9127 30.9121 28.0931 30.9906 28.2354 31.1191L30.4932 33.1582L33.1572 30.4941L31.1182 28.2363C30.8546 27.9438 30.8169 27.5105 31.0273 27.1768L31.2988 26.7256C31.91 25.6593 32.3598 24.5069 32.6328 23.3066L32.6758 23.1709C32.7293 23.0392 32.814 22.9215 32.9238 22.8291C33.0703 22.706 33.2533 22.634 33.4443 22.624L36.4902 22.4648V18.6934L34.5898 18.5928C34.116 18.5673 33.7418 18.1697 33.7539 17.6914L33.7598 17.6064C33.7836 17.4092 33.8744 17.2252 34.0176 17.085C34.1812 16.9248 34.4009 16.8344 34.6299 16.834H34.6504L37.417 16.9795Z"
            fill="#9BAFB8" />
        <path
            d="M22.2256 1.75391C22.4203 1.77242 22.6039 1.85565 22.7471 1.99121C22.9106 2.14619 23.0085 2.35806 23.0205 2.58301L23.166 5.32324L23.1787 5.57031L22.9316 5.58594L22.3027 5.625H21.4199L21.3076 3.50879H17.5352L17.377 6.55469C17.367 6.74578 17.295 6.92872 17.1719 7.0752C17.0794 7.18507 16.9618 7.26964 16.8301 7.32324L16.6943 7.36621C15.3226 7.67817 14.0139 8.22191 12.8242 8.97266L12.8232 8.97168C12.661 9.07423 12.4696 9.12101 12.2783 9.10449C12.135 9.09204 11.9976 9.04502 11.8779 8.96777L11.7646 8.88086L9.50586 6.84082L6.8418 9.50488L8.88184 11.7637L8.96875 11.877C9.0458 11.9967 9.09303 12.1341 9.10547 12.2773C9.12197 12.4683 9.07567 12.66 8.97363 12.8223L8.97266 12.8232C8.31586 13.8641 7.81827 14.9961 7.49512 16.1816L7.36719 16.6934C7.32465 16.8799 7.2226 17.0477 7.07617 17.1709C6.92955 17.2942 6.746 17.3652 6.55469 17.375L6.55566 17.376L3.50977 17.5342V21.3057L5.41016 21.4072L5.49512 21.416C5.69185 21.4457 5.8742 21.5415 6.01074 21.6885C6.16658 21.8565 6.25092 22.0785 6.24609 22.3076V22.3096C6.23288 22.7842 5.84783 23.166 5.36914 23.166H5.34961L2.58301 23.0205C2.3581 23.0085 2.14619 22.9105 1.99121 22.7471C1.85566 22.6041 1.77257 22.4201 1.75391 22.2256L1.75 22.1416V16.7002C1.74972 16.4746 1.83594 16.2574 1.99121 16.0938C2.1226 15.9553 2.2951 15.8648 2.48145 15.833L2.48926 15.8252L5.81738 15.6523C6.12681 14.5388 6.57109 13.4676 7.14063 12.4619L4.97559 10.0654C4.82422 9.89808 4.74329 9.6787 4.74902 9.45312C4.75477 9.22772 4.8464 9.01291 5.00586 8.85352L8.85449 5.00586L8.91699 4.94922C9.06802 4.8247 9.25682 4.75306 9.4541 4.74805C9.67954 4.74232 9.89901 4.8235 10.0664 4.97461L12.4629 7.13965C13.4685 6.57016 14.5398 6.12581 15.6533 5.81641L15.8213 2.58398L15.8301 2.5C15.8589 2.30656 15.9517 2.12694 16.0947 1.99121C16.2582 1.83625 16.475 1.75 16.7002 1.75H22.1416L22.2256 1.75391Z"
            fill="#9BAFB8" />
        <path fill-rule="evenodd" clip-rule="evenodd"
            d="M27.5784 3.90432C28.9441 3.61719 30.3644 3.73241 31.6653 4.23732C31.7909 4.28601 31.9024 4.36605 31.9896 4.46877C32.0763 4.57122 32.1368 4.69381 32.1644 4.82522L32.179 4.92482C32.1875 5.02503 32.1765 5.12669 32.1478 5.22365C32.119 5.32043 32.0727 5.41102 32.011 5.49025L31.9446 5.56545L28.1448 9.36525L30.6351 11.8555L34.4349 8.05568L34.5101 7.98928C34.5893 7.92764 34.6798 7.88035 34.7767 7.85158C34.9056 7.81336 35.0425 7.80825 35.1741 7.83596C35.3058 7.86374 35.429 7.9237 35.5315 8.01076C35.6341 8.09788 35.7133 8.20955 35.762 8.33498L35.8519 8.5801C36.2799 9.81317 36.3653 11.1414 36.096 12.4219C35.8088 13.7874 35.131 15.0402 34.1448 16.0274L34.1439 16.0283C33.2838 16.8864 32.2203 17.5127 31.053 17.8496C29.9304 18.1736 28.7469 18.2167 27.6038 17.9815L17.9837 27.6016C18.2382 28.8331 18.1665 30.1107 17.7728 31.3067C17.3646 32.5464 16.6264 33.6515 15.638 34.5039C14.6496 35.3563 13.4477 35.924 12.1614 36.1455C10.8751 36.367 9.55192 36.2345 8.33526 35.7617C8.20998 35.7131 8.09811 35.6336 8.01104 35.5313C7.92383 35.4287 7.86402 35.3056 7.83623 35.1738C7.80847 35.0419 7.81336 34.9046 7.85186 34.7754C7.8807 34.6788 7.92796 34.5889 7.98955 34.5098L8.05596 34.4336L11.8558 30.6348L9.36553 28.1446L5.56573 31.9444C5.47059 32.0393 5.35279 32.1091 5.22393 32.1475C5.09496 32.1858 4.95812 32.1917 4.82647 32.1641C4.69475 32.1364 4.57169 32.0754 4.46905 31.9883C4.39219 31.923 4.32821 31.8441 4.28057 31.7559L4.23858 31.6641C3.73346 30.3632 3.61748 28.9438 3.90459 27.5781C4.19181 26.2124 4.86941 24.959 5.85577 23.9717L6.18877 23.6602C6.98547 22.9604 7.92899 22.4432 8.95147 22.1485C10.0745 21.8249 11.2583 21.7824 12.4017 22.0176L22.0179 12.4014C21.7824 11.2577 21.8259 10.0736 22.1497 8.95022C22.4866 7.78167 23.1133 6.71667 23.972 5.85549L24.1605 5.67385C25.1167 4.78585 26.2982 4.17355 27.5784 3.90432ZM29.7981 5.41994C29.0292 5.31737 28.2454 5.37469 27.4974 5.59279C26.5985 5.85495 25.7793 6.33863 25.1165 7.00002L25.1175 7.001C24.4202 7.70052 23.92 8.57203 23.6692 9.52736C23.4185 10.4825 23.4262 11.4869 23.6897 12.4385L23.7112 12.544C23.7261 12.6498 23.72 12.7583 23.6927 12.8623C23.6653 12.9664 23.617 13.0636 23.5521 13.1485L23.4817 13.2285L13.2298 23.4815C13.1284 23.5828 13.0012 23.656 12.8626 23.6924C12.7586 23.7197 12.6501 23.7258 12.5442 23.711L12.4397 23.6885C11.4881 23.4249 10.4828 23.4183 9.52764 23.669C8.69203 23.8884 7.9202 24.2984 7.27178 24.8643L7.00127 25.1162C6.33942 25.7788 5.85529 26.598 5.59307 27.4971C5.37501 28.245 5.31849 29.0282 5.42119 29.7969L8.79327 26.4258L8.85186 26.3721C8.91321 26.3217 8.98238 26.2805 9.05596 26.25C9.15405 26.2094 9.25938 26.1885 9.36553 26.1885C9.47183 26.1885 9.57788 26.2093 9.67608 26.25C9.77415 26.2908 9.86374 26.3506 9.93877 26.4258L13.5735 30.0615L13.6272 30.1211C13.7452 30.2652 13.8108 30.446 13.8108 30.6338C13.8108 30.8218 13.7454 31.0033 13.6272 31.1475L13.5735 31.2061L10.2005 34.5781C10.9699 34.6814 11.7546 34.6256 12.5032 34.4072C13.4022 34.145 14.2208 33.66 14.8831 32.9981L15.1351 32.7285C15.7008 32.0809 16.11 31.3095 16.3294 30.4746C16.5488 29.6397 16.572 28.7669 16.3978 27.9248L16.3108 27.5664C16.2723 27.4283 16.2715 27.2823 16.3079 27.1436C16.3444 27.0049 16.4164 26.8778 16.5179 26.7764L26.7767 16.5176L26.8577 16.4473C26.9425 16.3822 27.0398 16.334 27.1439 16.3067C27.2821 16.2704 27.428 16.2712 27.5657 16.3096C28.5164 16.5725 29.521 16.5798 30.4749 16.3291C31.3098 16.1097 32.0811 15.6994 32.7288 15.1338L32.9983 14.8819C33.66 14.2193 34.1444 13.4009 34.4065 12.502C34.6247 11.7538 34.6813 10.9702 34.5784 10.2012L31.2073 13.5733L31.2015 13.5781C31.0864 13.6867 30.9435 13.7596 30.7903 13.7891L30.6341 13.8037C30.4233 13.8037 30.2201 13.7228 30.0667 13.5781L26.4261 9.93752C26.351 9.86244 26.291 9.77293 26.2503 9.67482C26.2097 9.5767 26.1888 9.47147 26.1888 9.36525C26.1888 9.25885 26.2095 9.15299 26.2503 9.05471C26.291 8.95654 26.3509 8.86711 26.4261 8.79201L29.7981 5.41994Z"
            fill="#F16408" />
        <path
            d="M24.5254 14.7539C24.6038 14.7616 24.6808 14.7812 24.7539 14.8115C24.8514 14.8519 24.9401 14.9108 25.0146 14.9854C25.0892 15.0599 25.1481 15.1486 25.1885 15.2461C25.2289 15.3436 25.25 15.4482 25.25 15.5537L25.2461 15.6328C25.2383 15.7111 25.2187 15.7884 25.1885 15.8613C25.1481 15.9587 25.0892 16.0476 25.0146 16.1221L16.1221 25.0146C16.0476 25.0892 15.9587 25.1481 15.8613 25.1885C15.7884 25.2187 15.7111 25.2383 15.6328 25.2461L15.5537 25.25C15.4482 25.25 15.3436 25.2289 15.2461 25.1885C15.1486 25.1481 15.0599 25.0892 14.9854 25.0146C14.9108 24.9401 14.8519 24.8514 14.8115 24.7539C14.7812 24.6808 14.7616 24.6038 14.7539 24.5254L14.75 24.4463C14.75 24.3408 14.7712 24.2361 14.8115 24.1387C14.8519 24.0413 14.9108 23.9524 14.9854 23.8779L23.8779 14.9854L23.9365 14.9326C23.9975 14.8826 24.0656 14.8418 24.1387 14.8115C24.2361 14.7712 24.3408 14.75 24.4463 14.75L24.5254 14.7539Z"
            fill="#F16408" />
    </symbol>
    <symbol id="dot" width="48" height="48" viewBox="0 0 48 48" fill="none"
        xmlns="http://www.w3.org/2000/svg">
        <ellipse cx="24.2813" cy="23.8611" rx="17.5007" ry="17.1546" fill="white" />
        <path
            d="M24.2816 3.70648C35.5468 3.70665 44.7814 12.6737 44.7816 23.8608C44.7816 35.048 35.5469 44.0159 24.2816 44.0161C13.0162 44.0161 3.78064 35.0481 3.78064 23.8608C3.78081 12.6736 13.0163 3.70648 24.2816 3.70648Z"
            stroke="white" stroke-opacity="0.5" stroke-width="6" />
        <g filter="url(#filter0_di_229_82)">
            <ellipse cx="24.2813" cy="23.861" rx="9.72259" ry="9.53033"
                fill="url(#paint0_linear_229_82)" />
            <path
                d="M24.2814 14.8307C29.3843 14.8307 33.504 18.8831 33.504 23.861C33.504 28.8389 29.3843 32.8912 24.2814 32.8912C19.1784 32.8912 15.0587 28.8389 15.0587 23.861C15.0587 18.883 19.1784 14.8307 24.2814 14.8307Z"
                stroke="url(#paint1_linear_229_82)" />
        </g>
        <defs>
            <filter id="filter0_di_229_82" x="10.3587" y="11.1307" width="27.8452" height="28.2607"
                filterUnits="userSpaceOnUse" color-interpolation-filters="sRGB">
                <feFlood flood-opacity="0" result="BackgroundImageFix" />
                <feColorMatrix in="SourceAlpha" type="matrix"
                    values="0 0 0 0 0 0 0 0 0 0 0 0 0 0 0 0 0 0 127 0" result="hardAlpha" />
                <feOffset dy="1" />
                <feGaussianBlur stdDeviation="2.1" />
                <feComposite in2="hardAlpha" operator="out" />
                <feColorMatrix type="matrix"
                    values="0 0 0 0 0.956731 0 0 0 0 0.377765 0 0 0 0 0 0 0 0 0.9 0" />
                <feBlend mode="normal" in2="BackgroundImageFix" result="effect1_dropShadow_229_82" />
                <feBlend mode="normal" in="SourceGraphic" in2="effect1_dropShadow_229_82"
                    result="shape" />
                <feColorMatrix in="SourceAlpha" type="matrix"
                    values="0 0 0 0 0 0 0 0 0 0 0 0 0 0 0 0 0 0 127 0" result="hardAlpha" />
                <feOffset dx="3" dy="6" />
                <feGaussianBlur stdDeviation="3.9" />
                <feComposite in2="hardAlpha" operator="arithmetic" k2="-1" k3="1" />
                <feColorMatrix type="matrix" values="0 0 0 0 1 0 0 0 0 1 0 0 0 0 1 0 0 0 1 0" />
                <feBlend mode="overlay" in2="shape" result="effect2_innerShadow_229_82" />
            </filter>
            <linearGradient id="paint0_linear_229_82" x1="24.2813" y1="14.3307" x2="24.2813"
                y2="33.3914" gradientUnits="userSpaceOnUse">
                <stop stop-color="#FF5D41" />
                <stop offset="1" stop-color="#F16408" />
            </linearGradient>
            <linearGradient id="paint1_linear_229_82" x1="26.151" y1="33.3914" x2="26.5103"
                y2="14.3304" gradientUnits="userSpaceOnUse">
                <stop stop-color="#EE7522" />
                <stop offset="1" stop-color="white" />
            </linearGradient>
        </defs>
    </symbol>
    <symbol id="icon-tooltip" xmlns="http://www.w3.org/2000/svg" width="16.53" height="16.2"
        viewBox="0 0 16.53 16.2">
        <polygon points="8.265,0 16.53,16.2 0,16.2" fill="currentColor" />
    </symbol>
    <symbol id="problems-1" width="60" height="60" viewBox="0 0 60 60" fill="none"
        xmlns="http://www.w3.org/2000/svg">
        <rect width="60" height="60" rx="30" fill="#F16408" />
        <path fill-rule="evenodd" clip-rule="evenodd"
            d="M27.6975 17.0825C28.3558 16.5704 29.166 16.2924 30 16.2924C30.834 16.2924 31.6442 16.5704 32.3025 17.0825L41.0525 23.8875C41.5032 24.2381 41.8679 24.687 42.1188 25.2C42.3696 25.7129 42.5 26.2764 42.5 26.8475V39.375C42.5 40.3695 42.1049 41.3234 41.4017 42.0266C40.6984 42.7299 39.7446 43.125 38.75 43.125H21.25C20.2554 43.125 19.3016 42.7299 18.5983 42.0266C17.8951 41.3234 17.5 40.3695 17.5 39.375V26.8475C17.5 26.2764 17.6304 25.7129 17.8812 25.2C18.1321 24.687 18.4968 24.2381 18.9475 23.8875L27.6975 17.0825ZM26.25 36.25H33.75V33.75H26.25V36.25Z"
            fill="white" />
    </symbol>
    <symbol id="problems-2" width="60" height="60" viewBox="0 0 60 60" fill="none"
        xmlns="http://www.w3.org/2000/svg">
        <rect width="60" height="60" rx="30" fill="#F16408" />
        <path
            d="M38.7501 22.5001C38.7501 22.8316 38.6184 23.1495 38.3839 23.3839C38.1495 23.6184 37.8316 23.7501 37.5001 23.7501H22.5001C22.1685 23.7501 21.8506 23.6184 21.6162 23.3839C21.3818 23.1495 21.2501 22.8316 21.2501 22.5001C21.2501 22.1685 21.3818 21.8506 21.6162 21.6162C21.8506 21.3818 22.1685 21.2501 22.5001 21.2501H22.5288C22.6771 19.6502 23.3802 18.1525 24.5163 17.0163C25.6525 15.8802 27.1502 15.1771 28.7501 15.0288V18.7501C28.7501 19.0816 28.8818 19.3995 29.1162 19.6339C29.3506 19.8684 29.6685 20.0001 30.0001 20.0001C30.3316 20.0001 30.6495 19.8684 30.8839 19.6339C31.1184 19.3995 31.2501 19.0816 31.2501 18.7501V15.0288C32.8499 15.1773 34.3474 15.8805 35.4835 17.0166C36.6196 18.1527 37.3228 19.6503 37.4713 21.2501H37.5001C37.8316 21.2501 38.1495 21.3818 38.3839 21.6162C38.6184 21.8506 38.7501 22.1685 38.7501 22.5001ZM22.5026 26.4326C22.6001 30.4838 25.9251 33.7501 30.0001 33.7501C34.0751 33.7501 37.4001 30.4838 37.4976 26.4326L37.5001 26.2501H22.5001L22.5026 26.4326ZM41.2401 43.5951C40.7213 39.0388 35.8938 35.0001 30.0001 35.0001C24.1063 35.0001 19.2788 39.0388 18.7601 43.5951C18.7379 43.771 18.7534 43.9497 18.8057 44.1192C18.8579 44.2887 18.9457 44.4452 19.0631 44.5781C19.1806 44.711 19.325 44.8174 19.4868 44.8902C19.6485 44.9629 19.8239 45.0004 20.0013 45.0001H40.0013C40.1786 45.0002 40.3539 44.9626 40.5156 44.8898C40.6773 44.8169 40.8216 44.7105 40.939 44.5777C41.0564 44.4448 41.1442 44.2884 41.1965 44.119C41.2488 43.9496 41.2645 43.771 41.2426 43.5951H41.2401Z"
            fill="white" />
    </symbol>
    <symbol id="problems-3" width="60" height="60" viewBox="0 0 60 60" fill="none"
        xmlns="http://www.w3.org/2000/svg">
        <rect width="60" height="60" rx="30" fill="#F16408" />
        <rect width="60" height="60" rx="30" fill="#F16408" />
        <path
            d="M44.2713 28.2321L42.2252 26.1864C41.7396 25.7008 41.3417 24.7412 41.3417 24.053V21.1599C41.3417 19.7836 40.2174 18.6593 38.8415 18.6586H35.9472C35.2598 18.6586 34.2991 18.2599 33.8134 17.7747L31.7677 15.729C30.7957 14.757 29.2042 14.757 28.2322 15.729L26.1865 17.7762C25.7005 18.2618 24.7386 18.6593 24.0527 18.6593H21.1596C19.7852 18.6593 18.6594 19.7836 18.6594 21.1599V24.0531C18.6594 24.7386 18.2615 25.7012 17.7759 26.1865L15.7298 28.2322C14.7571 29.2042 14.7571 30.7957 15.7298 31.7693L17.7759 33.815C18.2618 34.3006 18.6594 35.2629 18.6594 35.9484V38.8416C18.6594 40.2164 19.7852 41.3422 21.1596 41.3422H24.0528C24.7402 41.3422 25.7009 41.74 26.1866 42.2253L28.2323 44.2718C29.2043 45.243 30.7958 45.243 31.7678 44.2718L33.8135 42.2253C34.2996 41.7397 35.2599 41.3422 35.9473 41.3422H38.8416C40.2175 41.3422 41.3418 40.2164 41.3418 38.8416V35.9484C41.3418 35.2599 41.74 34.3003 42.2253 33.815L44.2714 31.7693C45.2426 30.7957 45.2426 29.2042 44.2713 28.2321ZM28.0155 35.6254L22.4995 30.1087L24.2673 28.3413L28.0159 32.0899L35.7324 24.3752L37.4998 26.1426L28.0155 35.6254Z"
            fill="white" />
    </symbol>
    <symbol id="problems-4" width="60" height="60" viewBox="0 0 60 60" fill="none"
        xmlns="http://www.w3.org/2000/svg">
        <rect width="60" height="60" rx="30" fill="#F16408" />
        <path
            d="M22.4591 34.1739L19.8383 31.5528C19.1984 30.9129 18.1781 30.7731 17.4368 31.2918C17.2357 31.4309 17.0642 31.6086 16.9323 31.8145C16.8005 32.0205 16.7108 32.2505 16.6686 32.4914C16.6264 32.7322 16.6324 32.9791 16.6864 33.2176C16.7403 33.4561 16.8411 33.6815 16.9829 33.8808L21.6653 40.4595C22.5642 41.6379 23.723 42.5931 25.0514 43.2505C26.3798 43.9079 27.8421 44.25 29.3243 44.25H31.3313C35.765 44.25 39.3593 40.6557 39.3593 36.222V21.771C39.3592 21.5602 39.3177 21.3514 39.2369 21.1567C39.1562 20.9619 39.038 20.785 38.8889 20.6359C38.7398 20.4869 38.5628 20.3687 38.368 20.2881C38.1732 20.2074 37.9645 20.1659 37.7537 20.166V20.1654C37.5428 20.1653 37.334 20.2068 37.1392 20.2875C36.9444 20.3682 36.7673 20.4864 36.6182 20.6356C36.4691 20.7847 36.3509 20.9617 36.2702 21.1565C36.1895 21.3513 36.148 21.5601 36.1481 21.771V27.9927C36.1481 28.1524 36.0846 28.3055 35.9717 28.4184C35.8588 28.5313 35.7056 28.5948 35.546 28.5948C35.3863 28.5948 35.2331 28.5313 35.1202 28.4184C35.0073 28.3055 34.9439 28.1524 34.9439 27.9927V18.9612C34.9439 18.5354 34.7747 18.127 34.4737 17.8259C34.1727 17.5248 33.7643 17.3556 33.3386 17.3556C32.9127 17.3556 32.504 17.5247 32.2029 17.8258C31.9018 18.1269 31.7327 18.5353 31.7327 18.9612V27.9927C31.7327 28.1524 31.6692 28.3055 31.5563 28.4184C31.4434 28.5313 31.2902 28.5948 31.1306 28.5948C30.9709 28.5948 30.8177 28.5313 30.7048 28.4184C30.5919 28.3055 30.5285 28.1524 30.5285 27.9927V17.4243C30.5285 16.5858 29.9153 15.8373 29.0804 15.7575C28.8573 15.7355 28.6321 15.7605 28.4193 15.8309C28.2065 15.9012 28.0108 16.0153 27.8448 16.1658C27.6787 16.3163 27.546 16.5 27.4552 16.7049C27.3644 16.9098 27.3175 17.1314 27.3176 17.3556V27.9927C27.3176 28.1524 27.2541 28.3055 27.1412 28.4184C27.0283 28.5313 26.8751 28.5948 26.7155 28.5948C26.5558 28.5948 26.4026 28.5313 26.2897 28.4184C26.1768 28.3055 26.1134 28.1524 26.1134 27.9927V19.3626C26.1134 18.9367 25.9442 18.5283 25.6431 18.2272C25.342 17.9261 24.9336 17.757 24.5078 17.757C24.0819 17.757 23.6732 17.9261 23.3721 18.2272C23.071 18.5283 22.9019 18.9367 22.9019 19.3626V33.9906C22.9019 34.2216 22.6229 34.3371 22.4594 34.1736L22.4591 34.1739Z"
            fill="white" />
    </symbol>
    <symbol id="icon-check" width="30" height="30" viewBox="0 0 30 30" fill="none"
        xmlns="http://www.w3.org/2000/svg">
        <path
            d="M25.8981 12.3292C25.6667 12.3641 25.4587 12.4894 25.3197 12.6776C25.1807 12.8658 25.1221 13.1016 25.1569 13.333C26.2133 20.0773 20.7997 26.3745 13.9624 26.3152C-1.04735 25.6942 -1.04611 4.30475 13.9624 3.68463C16.4873 3.68463 18.8753 4.49798 20.8682 6.03663C21.0534 6.17966 21.2879 6.24324 21.52 6.21339C21.7522 6.18354 21.9629 6.0627 22.1059 5.87745C22.249 5.69221 22.3126 5.45773 22.2827 5.2256C22.2529 4.99348 22.132 4.78272 21.9468 4.63969C19.6421 2.86033 16.8812 1.91992 13.9624 1.91992C-3.38753 2.63692 -3.38735 27.3633 13.9624 28.0799C21.8661 28.1479 28.1257 20.8679 26.9017 13.0702C26.8846 12.9556 26.845 12.8455 26.7853 12.7461C26.7256 12.6468 26.6468 12.5603 26.5536 12.4914C26.4603 12.4226 26.3544 12.3728 26.2419 12.3449C26.1294 12.3171 26.0125 12.3117 25.8979 12.329L25.8981 12.3292Z"
            fill="#9BAFB8" />
        <path
            d="M28.8579 4.10726C28.7758 4.02548 28.6784 3.96067 28.5712 3.91654C28.4641 3.87241 28.3493 3.84984 28.2334 3.8501C28.1175 3.85036 28.0028 3.87346 27.8958 3.91807C27.7889 3.96268 27.6918 4.02793 27.6101 4.11009L14.0234 17.7559L9.53929 13.2513C9.37308 13.0909 9.15063 13.0021 8.91969 13.0039C8.68874 13.0057 8.4677 13.0979 8.304 13.2609C8.14029 13.4238 8.04698 13.6444 8.04408 13.8753C8.04117 14.1062 8.12891 14.3291 8.28847 14.4961L13.398 19.6289C13.48 19.7113 13.5774 19.7767 13.6847 19.8213C13.792 19.8659 13.9071 19.8888 14.0233 19.8888C14.1395 19.8888 14.2546 19.8659 14.3619 19.8213C14.4692 19.7767 14.5667 19.7113 14.6486 19.6289L28.8605 5.35509C29.0256 5.18927 29.118 4.96468 29.1175 4.73072C29.117 4.49675 29.0236 4.27238 28.8579 4.10726Z"
            fill="#F16408" />
    </symbol>
    <symbol id="icon-minus" width="16.63" height="2.45" viewBox="0 0 16.63 2.45"
        xmlns="http://www.w3.org/2000/svg">
        <rect x="0" y="0" width="16.63" height="2.45" fill="#F16408" />
    </symbol>
    <symbol id="icon-plus" width="16.63" height="15.7" viewBox="0 0 16.63 15.7"
        xmlns="http://www.w3.org/2000/svg">
        <line x1="0" y1="7.85" x2="16.63" y2="7.85" stroke="#F16408" stroke-width="2.45" />
        <line x1="7.815" y1="0" x2="7.815" y2="15.7" stroke="#F16408" stroke-width="2.45" />
    </symbol>
    <symbol id="icon-plus-big" width="25" height="25" viewBox="0 0 25 25" fill="none"
        xmlns="http://www.w3.org/2000/svg">
        <rect width="25" height="25" rx="12.5" fill="#F16408" />
        <path
            d="M13.4376 11.5624H20V13.4376L13.4376 13.4369V20H11.5624V13.4369L5 13.4376V11.5624H11.5624V5H13.4376V11.5624Z"
            fill="white" />
    </symbol>
    <symbol id="icon-left" width="11.83" height="19.92" viewBox="0 0 11.83 19.92"
        xmlns="http://www.w3.org/2000/svg">
        <polyline points="9.38,1.225 2,9.96 9.38,18.695"
            fill="none"
            stroke="#F16408"
            stroke-width="2.45"
            stroke-linecap="butt"
            stroke-linejoin="miter" />
    </symbol>
    <symbol id="profitably-1" width="112" height="112" viewBox="0 0 112 112" fill="none"
        xmlns="http://www.w3.org/2000/svg">
        <rect x="0.5" y="0.5" width="111" height="111" rx="55.5" fill="#EEF2F5" />
        <rect x="0.5" y="0.5" width="111" height="111" rx="55.5" stroke="#E9E9E9" />
        <path
            d="M56.9998 104.012V77.001L73.9295 63.457L90.8592 77.001V104.012H92.8592V76.0391L92.4842 75.7383L73.9295 60.8955L55.3748 75.7383L54.9998 76.0391V104.012H56.9998Z"
            fill="#F16408" />
        <path d="M68.9529 104.012V93.0586H78.9061V104.012H80.9061V91.0586H66.9529V104.012H68.9529Z"
            fill="#F16408" />
        <path
            d="M104.437 67.3711L73.9296 42.9658L43.4218 67.3711L44.6718 68.9336L73.9296 45.5273L103.187 68.9336L104.437 67.3711Z"
            fill="#F16408" />
        <path d="M86.8827 53.8086V41.2578H84.8827V53.8086H86.8827Z" fill="#F16408" />
        <path d="M21.1406 104.012V31.8945H19.1406V104.012H21.1406Z" fill="#9BAFB8" />
        <path d="M20.1406 26.918V24.918H8.98828V14.9648H20.1406V12.9648H6.98828V26.918H20.1406Z"
            fill="#9BAFB8" />
        <path d="M98.8358 26.918V12.9648H38.0702V14.9648H96.8358V24.918H38.0702V26.918H98.8358Z"
            fill="#9BAFB8" />
        <path d="M33.0937 104.012V31.8945H31.0937V104.012H33.0937Z" fill="#9BAFB8" />
        <path d="M74.9296 44.2461V25.918H72.9296V44.2461H74.9296Z" fill="#9BAFB8" />
        <path d="M107 105.012V103.012H5V105.012H107Z" fill="#9BAFB8" />
        <path
            d="M37.0703 30.8945H21.1406V8.98828H32.0937C34.8421 8.9883 37.0703 11.2163 37.0703 13.9648V30.8945ZM39.0703 13.9648C39.0703 10.1117 35.9466 6.9883 32.0937 6.98828H19.1406V32.8945H39.0703V13.9648Z"
            fill="#9BAFB8" />
    </symbol>
    <symbol id="profitably-2" width="112" height="112" viewBox="0 0 112 112" fill="none"
        xmlns="http://www.w3.org/2000/svg">
        <g clip-path="url(#clip0_314_168)">
            <rect width="112" height="112" rx="56" fill="#EEF2F5" />
            <path
                d="M77.4648 76.0127C78.0171 76.0127 78.4648 75.565 78.4648 75.0127V62.5059H91C91.5523 62.5059 92 62.0581 92 61.5059V48C92 47.4477 91.5523 47 91 47H23.5352C22.9829 47.0001 22.5352 47.4478 22.5352 48V60.5059H10C9.44787 60.5059 9.00025 60.9538 9 61.5059V75.0127C9 75.565 9.44772 76.0127 10 76.0127H77.4648ZM24.5352 49H90V60.5059H24.5352V49ZM11 62.5059H76.4648V74.0127H11V62.5059Z"
                fill="#9BAFB8" />
            <path
                d="M91.0001 89.4814C91.5524 89.4814 92.0001 89.0337 92.0001 88.4814V74.9746C91.9999 74.4225 91.5522 73.9746 91.0001 73.9746H23.5353C22.9831 73.9746 22.5355 74.4225 22.5353 74.9746V88.4814C22.5353 89.0337 22.983 89.4814 23.5353 89.4814H91.0001ZM24.5353 75.9746H90.0001V87.4814H24.5353V75.9746Z"
                fill="#9BAFB8" />
            <path
                d="M91 116.494C91.5523 116.494 92 116.046 92 115.494V101.987C91.9997 101.435 91.5521 100.987 91 100.987H78.4648V88.4814C78.4648 87.9292 78.0171 87.4814 77.4648 87.4814H10C9.44772 87.4814 9 87.9292 9 88.4814V101.987C9 102.54 9.44772 102.987 10 102.987H22.5352V115.494C22.5352 116.046 22.9829 116.494 23.5352 116.494H91ZM11 89.4814H76.4648V100.987H11V89.4814ZM24.5352 102.987H90V114.494H24.5352V102.987Z"
                fill="#F16408" />
            <path
                d="M76.7812 5.625L48.9004 40.4824L34.3047 26.3613L35.6953 24.9238L48.7109 37.5166L75.2188 4.375L76.7812 5.625Z"
                fill="#F16408" />
        </g>
        <rect x="0.5" y="0.5" width="111" height="111" rx="55.5" stroke="#E9E9E9" />
        <defs>
            <clipPath id="clip0_314_168">
                <rect width="112" height="112" rx="56" fill="white" />
            </clipPath>
        </defs>
    </symbol>
    <symbol id="profitably-3" width="112" height="112" viewBox="0 0 112 112" fill="none"
        xmlns="http://www.w3.org/2000/svg">
        <g clip-path="url(#clip0_314_237)">
            <rect width="112" height="112" rx="56" fill="#EEF2F5" />
            <path
                d="M17.8269 105.837C17.8269 101.691 19.7048 98.7084 22.449 96.4277C25.1481 94.1846 28.7248 92.5856 32.2156 91.1416L48.4031 84.4453L49.9343 78.6953L51.8669 79.209L50.0818 85.916L49.6248 86.1045L32.9792 92.9902C29.4722 94.441 26.1638 95.9409 23.7273 97.9658C21.3357 99.9535 19.8269 102.409 19.8269 105.837V119.066H79.1355V121.066H17.8269V105.837ZM102.631 105.837C102.631 102.41 101.122 99.9535 98.7302 97.9658C96.2937 95.9409 92.9853 94.4408 89.4783 92.9902L72.8328 86.1045L72.3757 85.916L70.5906 79.209L72.5232 78.6953L74.0535 84.4453L90.2429 91.1416C93.7335 92.5854 97.3095 94.1846 100.009 96.4277C102.753 98.7084 104.631 101.691 104.631 105.837V121.066H82.5779V119.066H102.631V105.837Z"
                fill="#9BAFB8" />
            <path
                d="M91.2128 54.1968V50.1499L61.3387 53.4692L61.2284 53.4819L61.118 53.4692L31.245 50.1499V54.1968C31.245 57.4314 33.8961 60.0825 37.1307 60.0825H40.5731V62.0825H37.1307C32.7915 62.0825 29.245 58.536 29.245 54.1968V39.4263H93.2128V54.1968C93.2128 58.536 89.6662 62.0825 85.327 62.0825H81.8846V60.0825H85.327C88.5617 60.0825 91.2128 57.4314 91.2128 54.1968ZM31.245 48.1382L61.2284 51.4692L91.2128 48.1382V41.4263H31.245V48.1382Z"
                fill="#F16408" />
            <path
                d="M50.2422 85.1807C50.2424 91.2479 55.161 96.1659 61.2285 96.166C67.2961 96.166 72.2146 91.2479 72.2148 85.1807H74.2148C74.2146 92.3525 68.4006 98.166 61.2285 98.166C54.0565 98.1659 48.2424 92.3524 48.2422 85.1807H50.2422ZM39.5732 61.082V50.1807H41.5732V61.082C41.5732 71.8886 50.4203 80.7381 61.2285 80.7383C72.0367 80.7383 80.8848 71.8891 80.8848 61.082V50.1807H82.8848V61.082C82.8848 72.9936 73.1413 82.7383 61.2285 82.7383C49.3156 82.7381 39.5732 72.993 39.5732 61.082Z"
                fill="#9BAFB8" />
            <path
                d="M32.688 37.5127C32.6881 31.5904 34.4938 26.0875 37.5835 21.5264L39.2397 22.6484C36.3671 26.8892 34.6881 32.0031 34.688 37.5127V40.4268H32.688V37.5127ZM87.77 37.5127C87.7699 25.6014 79.9219 15.522 69.1138 12.1641V40.4268H67.1138V9.44238C67.1136 8.10152 66.0124 7 64.6714 7H57.7856C56.4448 7.00023 55.3434 8.10147 55.3433 9.44238V40.4268H53.3433V12.1641C48.6521 13.6217 44.5167 16.3456 41.3394 19.9395L39.8413 18.6152C43.389 14.6025 48.0502 11.5957 53.3433 10.0771V9.44238C53.3434 6.9969 55.3402 5.00023 57.7856 5H64.6714C67.1171 5 69.1136 6.99704 69.1138 9.44238V10.0762C81.0407 13.4977 89.7698 24.4842 89.77 37.5127V40.4268H87.77V37.5127ZM79.4419 26.9951V30.4375H77.4419V26.9951H79.4419ZM75.9995 20.1094V23.5527H73.9995V20.1094H75.9995Z"
                fill="#F16408" />
            <path
                d="M33.5973 92.0659V114.043L33.3971 114.311L28.6305 120.667L27.0309 119.466L31.5973 113.377V92.0659H33.5973ZM90.861 92.0659V113.377L95.4274 119.466L93.8268 120.667L89.0602 114.311L88.861 114.043V92.0659H90.861ZM40.483 89.2173V105.826H81.9752V89.2173H83.9752V107.826H38.483V89.2173H40.483Z"
                fill="#9BAFB8" />
        </g>
        <rect x="0.5" y="0.5" width="111" height="111" rx="55.5" stroke="#E9E9E9" />
        <defs>
            <clipPath id="clip0_314_237">
                <rect width="112" height="112" rx="56" fill="white" />
            </clipPath>
        </defs>
    </symbol>
    <symbol id="profitably-4" width="112" height="112" viewBox="0 0 112 112" fill="none"
        xmlns="http://www.w3.org/2000/svg">
        <rect x="0.5" y="0.5" width="111" height="111" rx="55.5" fill="#EEF2F5" />
        <rect x="0.5" y="0.5" width="111" height="111" rx="55.5" stroke="#E9E9E9" />
        <g clip-path="url(#clip0_314_183)">
            <path
                d="M-10 117V58.9941L27 29.2822L64 58.9941V117H66V58.0352L27 26.7178L-12 58.0352V117H-10Z"
                fill="#F16408" />
            <path
                d="M78.627 55.2207L27 13.7168L-24.627 55.2207L-23.373 56.7793L27 16.2842L77.373 56.7793L78.627 55.2207Z"
                fill="#F16408" />
            <path d="M49 32V11H47V32H49Z" fill="#F16408" />
            <path d="M59 66V68H17V66H59Z" fill="#9BAFB8" />
            <path d="M59 84V86H17V84H59Z" fill="#9BAFB8" />
            <path
                d="M84.9287 59.9285C85.3191 59.5381 85.9522 59.5383 86.3428 59.9285L92.707 66.2927C93.0976 66.6833 93.0976 67.3163 92.707 67.7068L86.3428 74.0711C85.9522 74.4613 85.3191 74.4615 84.9287 74.0711C84.5383 73.6806 84.5385 73.0476 84.9287 72.657L89.5859 67.9998H72V65.9998H89.5859L84.9287 61.3425C84.5385 60.952 84.5383 60.3189 84.9287 59.9285Z"
                fill="#9BAFB8" />
            <path
                d="M84.9287 77.9285C85.3191 77.5381 85.9522 77.5383 86.3428 77.9285L92.707 84.2927C93.0976 84.6833 93.0976 85.3163 92.707 85.7068L86.3428 92.0711C85.9522 92.4613 85.3191 92.4615 84.9287 92.0711C84.5383 91.6806 84.5385 91.0476 84.9287 90.657L89.5859 85.9998H72V83.9998H89.5859L84.9287 79.3425C84.5385 78.952 84.5383 78.3189 84.9287 77.9285Z"
                fill="#9BAFB8" />
        </g>
        <defs>
            <clipPath id="clip0_314_183">
                <rect width="102" height="102" fill="white" transform="translate(5 5)" />
            </clipPath>
        </defs>
    </symbol>
    <symbol id="profitably-5" width="112" height="112" viewBox="0 0 112 112" fill="none"
        xmlns="http://www.w3.org/2000/svg">
        <g clip-path="url(#clip0_314_221)">
            <rect width="112" height="112" rx="56" fill="#EEF2F5" />
            <path
                d="M81 79C81 60.7746 66.2254 46 48 46C29.7746 46 15 60.7746 15 79C15 97.2254 29.7746 112 48 112C66.2254 112 81 97.2254 81 79ZM71.4375 79C71.4375 66.6083 60.9589 56.4619 48 56.4619C35.0411 56.4619 24.5625 66.6083 24.5625 79C24.5625 91.3917 35.0411 101.538 48 101.538C60.9589 101.538 71.4375 91.3917 71.4375 79ZM73.4375 79C73.4375 92.5662 61.9922 103.538 48 103.538C34.0078 103.538 22.5625 92.5662 22.5625 79C22.5625 65.4338 34.0078 54.4619 48 54.4619C61.9922 54.4619 73.4375 65.4338 73.4375 79ZM83 79C83 98.33 67.33 114 48 114C28.67 114 13 98.33 13 79C13 59.67 28.67 44 48 44C67.33 44 83 59.67 83 79Z"
                fill="#F16408" />
            <path
                d="M85 26.5C85 19.5964 79.4036 14 72.5 14C65.5964 14 60 19.5964 60 26.5C60 33.4036 65.5964 39 72.5 39C79.4036 39 85 33.4036 85 26.5ZM81.2031 26.5C81.2031 21.9339 77.3339 18.1543 72.5 18.1543C67.6661 18.1543 63.7969 21.9339 63.7969 26.5C63.7969 31.0661 67.6661 34.8457 72.5 34.8457C77.3339 34.8457 81.2031 31.0661 81.2031 26.5ZM83.2031 26.5C83.2031 32.2407 78.3672 36.8457 72.5 36.8457C66.6328 36.8457 61.7969 32.2407 61.7969 26.5C61.7969 20.7593 66.6328 16.1543 72.5 16.1543C78.3672 16.1543 83.2031 20.7593 83.2031 26.5ZM87 26.5C87 34.5081 80.5081 41 72.5 41C64.4919 41 58 34.5081 58 26.5C58 18.4919 64.4919 12 72.5 12C80.5081 12 87 18.4919 87 26.5Z"
                fill="#9BAFB8" />
            <path
                d="M91.4141 66.8105C91.7879 67.0811 92.3047 67.0619 92.6582 66.7529L100.658 59.7529C101.074 59.3893 101.116 58.7574 100.753 58.3417C100.412 57.9521 99.8351 57.8902 99.4219 58.1835L99.3418 58.247L92 64.6718L84.6582 58.247C84.2426 57.8836 83.6107 57.9262 83.2471 58.3417C82.8837 58.7574 82.9263 59.3893 83.3418 59.7529L91.3418 66.7529L91.4141 66.8105Z"
                fill="#9BAFB8" />
            <path
                d="M91 43V65C91 65.5523 91.4477 66 92 66C92.5523 66 93 65.5523 93 65V43C93 42.4477 92.5523 42 92 42C91.4477 42 91 42.4477 91 43Z"
                fill="#9BAFB8" />
            <path
                d="M33.4092 40.8069C33.7855 41.083 34.3089 41.063 34.6641 40.7473L43.6641 32.7473L43.7373 32.676C44.0803 32.3027 44.0911 31.7232 43.7471 31.3362C43.403 30.9491 42.826 30.8918 42.415 31.1887L42.3359 31.2532L34 38.6633L25.6641 31.2532C25.2513 30.8862 24.6198 30.9234 24.2529 31.3362C23.886 31.749 23.9231 32.3804 24.3359 32.7473L33.3359 40.7473L33.4092 40.8069Z"
                fill="#9BAFB8" />
            <path
                d="M33 13V39C33 39.5523 33.4477 40 34 40C34.5523 40 35 39.5523 35 39V13C35 12.4477 34.5523 12 34 12C33.4477 12 33 12.4477 33 13Z"
                fill="#9BAFB8" />
            <path
                d="M49.7651 85.7524H45.7573V90.1953H44.2676V85.7524H42V84.3418H44.2676V82.3906H42V80.98H44.2676V71H49.8442C51.5493 71 52.8853 71.5142 53.8521 72.5425C54.8188 73.5708 55.3022 74.9595 55.3022 76.7085C55.3022 78.5278 54.8276 79.9297 53.8784 80.9141C52.9292 81.8984 51.5713 82.3906 49.8047 82.3906H45.7573V84.3418H49.7651V85.7524ZM45.7573 80.98H49.8442C51.1099 80.98 52.0811 80.6108 52.7578 79.8726C53.4434 79.1255 53.7861 78.0796 53.7861 76.7349C53.7861 75.4341 53.4434 74.397 52.7578 73.6235C52.0811 72.8413 51.1406 72.4414 49.9365 72.4238H45.7573V80.98Z"
                fill="#F16408" />
        </g>
        <rect x="0.5" y="0.5" width="111" height="111" rx="55.5" stroke="#E9E9E9" />
        <defs>
            <clipPath id="clip0_314_221">
                <rect width="112" height="112" rx="56" fill="white" />
            </clipPath>
        </defs>
    </symbol>
    <symbol id="profitably-6" width="112" height="112" viewBox="0 0 112 112" fill="none"
        xmlns="http://www.w3.org/2000/svg">
        <g clip-path="url(#clip0_314_45)">
            <rect width="112" height="112" rx="56" fill="#EEF2F5" />
            <path
                d="M19 115V56.9941L56 27.2822L93 56.9941V115H95V56.0352L56 24.7178L17 56.0352V115H19Z"
                fill="#9BAFB8" />
            <path
                d="M107.627 53.2207L56 11.7168L4.37305 53.2207L5.62695 54.7793L56 14.2842L106.373 54.7793L107.627 53.2207Z"
                fill="#9BAFB8" />
            <path d="M78 30V9H76V30H78Z" fill="#9BAFB8" />
            <path
                d="M57.5256 90.3042C57.5256 91.2894 56.7276 92.0882 55.7424 92.0884C54.7571 92.0884 53.9583 91.2895 53.9583 90.3042C53.9584 89.319 54.7572 88.521 55.7424 88.521C56.7275 88.5212 57.5255 89.3191 57.5256 90.3042ZM59.5256 90.3042C59.5255 88.2145 57.8321 86.5212 55.7424 86.521C53.6526 86.521 51.9584 88.2144 51.9583 90.3042C51.9583 92.3941 53.6525 94.0884 55.7424 94.0884C57.8322 94.0882 59.5256 92.394 59.5256 90.3042Z"
                fill="#F16408" />
            <path
                d="M54.7419 61.3511V87.52C54.7419 88.0723 55.1897 88.52 55.7419 88.52C56.2942 88.52 56.7419 88.0723 56.7419 87.52V61.3511C56.7417 60.799 56.2941 60.3511 55.7419 60.3511C55.1898 60.3511 54.7422 60.799 54.7419 61.3511Z"
                fill="#F16408" />
            <path
                d="M69.6619 62.9082L69.7634 62.9033C70.2679 62.8523 70.6619 62.4261 70.6619 61.9082C70.6619 61.3903 70.2679 60.9641 69.7634 60.9131L69.6619 60.9082H66.8777C66.3254 60.9082 65.8777 61.3559 65.8777 61.9082C65.8777 62.4605 66.3254 62.9082 66.8777 62.9082H69.6619Z"
                fill="#F16408" />
            <path
                d="M75.2292 68.4761C75.7815 68.4761 76.2292 68.0284 76.2292 67.4761C76.2292 66.9238 75.7815 66.4761 75.2292 66.4761H66.8777C66.3254 66.4761 65.8777 66.9238 65.8777 67.4761C65.8777 68.0284 66.3254 68.4761 66.8777 68.4761H75.2292Z"
                fill="#F16408" />
            <path
                d="M75.2292 79.6118C75.7815 79.6118 76.2292 79.1641 76.2292 78.6118C76.2292 78.0595 75.7815 77.6118 75.2292 77.6118H66.8777C66.3254 77.6118 65.8777 78.0595 65.8777 78.6118C65.8777 79.1641 66.3254 79.6118 66.8777 79.6118H75.2292Z"
                fill="#F16408" />
            <path
                d="M69.6619 74.0439L69.7634 74.0391C70.2679 73.988 70.6619 73.5619 70.6619 73.0439C70.6619 72.526 70.2679 72.0998 69.7634 72.0488L69.6619 72.0439H66.8777C66.3254 72.0439 65.8777 72.4917 65.8777 73.0439C65.8777 73.5962 66.3254 74.0439 66.8777 74.0439H69.6619Z"
                fill="#F16408" />
            <path
                d="M69.6619 85.1792L69.7634 85.1743C70.2679 85.1233 70.6619 84.6971 70.6619 84.1792C70.6619 83.6613 70.2679 83.2351 69.7634 83.1841L69.6619 83.1792H66.8777C66.3254 83.1792 65.8777 83.6269 65.8777 84.1792C65.8777 84.7315 66.3254 85.1792 66.8777 85.1792H69.6619Z"
                fill="#F16408" />
            <path
                d="M63.0935 90.3042C63.0935 94.3573 59.7951 97.6558 55.7419 97.6558C51.6888 97.6557 48.3904 94.3573 48.3904 90.3042C48.3904 88.1495 49.3415 86.2219 50.8435 84.8677C51.0538 84.6781 51.1746 84.4077 51.1746 84.1245V58.5679C51.1746 56.0449 53.219 54.0005 55.7419 54.0005C58.2649 54.0005 60.3093 56.0449 60.3093 58.5679V84.1245C60.3093 84.4077 60.43 84.6781 60.6404 84.8677C62.1424 86.2219 63.0935 88.1494 63.0935 90.3042ZM65.0935 90.3042C65.0935 87.7054 64.0108 85.3802 62.3093 83.6948V58.5679C62.3093 54.9403 59.3695 52.0005 55.7419 52.0005C52.1144 52.0005 49.1746 54.9404 49.1746 58.5679V83.6948C47.4732 85.3802 46.3904 87.7054 46.3904 90.3042C46.3904 95.4619 50.5843 99.6557 55.7419 99.6558C60.8997 99.6558 65.0935 95.4619 65.0935 90.3042Z"
                fill="#F16408" />
            <path
                d="M75.2292 57.3403C75.7815 57.3403 76.2292 56.8926 76.2292 56.3403C76.2292 55.788 75.7815 55.3403 75.2292 55.3403H66.8777C66.3254 55.3403 65.8777 55.788 65.8777 56.3403C65.8777 56.8926 66.3254 57.3403 66.8777 57.3403H75.2292Z"
                fill="#F16408" />
        </g>
        <rect x="0.5" y="0.5" width="111" height="111" rx="55.5" stroke="#E9E9E9" />
        <defs>
            <clipPath id="clip0_314_45">
                <rect width="112" height="112" rx="56" fill="white" />
            </clipPath>
        </defs>
    </symbol>
</svg>        